<?xml version="1.0" encoding="UTF-8"?>
<svg id="_Шар_1" data-name="Шар_1" xmlns="http://www.w3.org/2000/svg" viewBox="40 390 1800 300">
  <defs>
    <style>
      .cls-1 {
        stroke-width: 59.82px;
      }

      .cls-1, .cls-2 {
        fill: none;
        stroke: #fff;
      }

      .cls-2 {
        stroke-width: 59.47px;
      }

      .cls-3 {
        fill: #fff;
      }

      .cls-4 {
        fill: #ef8a00;
      }
    </style>
  </defs>
  <g>
    <g>
      <path class="cls-3" d="M343.49,406.46c29.98,0,42.56,13.32,42.56,49.6v167.29c0,36.27-12.58,49.6-42.56,49.6h-7.77c-29.98,0-42.56-13.32-42.56-49.6v-102.52l-37.75,130.28c-5.18,17.4-14.8,21.84-29.24,21.84h-5.92c-15.17,0-27.02-5.55-32.57-22.95l-41.45-128.8v102.15c0,12.95-.74,24.43-4.81,32.57-5.55,11.1-16.65,17.03-28.5,17.03h-5.92c-11.84,0-22.95-5.92-28.5-17.03-4.07-8.14-4.81-19.62-4.81-32.57v-167.29c0-36.27,12.58-49.6,42.93-49.6h52.56c19.62,0,31.09,4.44,38.12,24.43l25.91,75.13,21.84-75.5c5.55-18.88,17.77-24.06,39.23-24.06h49.23Z"/>
      <path class="cls-3" d="M408.26,520.46c0-25.54,15.17-38.12,34.42-38.12h9.62c19.25,0,34.42,12.58,34.42,38.12v114.36c0,25.54-15.17,38.12-34.42,38.12h-9.62c-19.25,0-34.42-12.58-34.42-38.12v-114.36ZM414.18,438.29c0-17.4,14.8-31.83,33.31-31.83s33.31,14.43,33.31,31.83-15.17,32.57-33.31,32.57-33.31-14.43-33.31-32.57Z"/>
      <path class="cls-3" d="M607.75,482.33c14.43,0,17.39,10.73,17.39,27.76v5.55c0,17.02-2.96,27.76-17.39,27.76h-8.88v62.18c9.99.74,17.77,7.4,17.77,19.62,0,17.77-8.51,47.74-48.11,47.74-27.39,0-48.11-18.88-48.11-57.74v-71.8h-5.18c-14.43,0-17.4-10.73-17.4-27.76v-5.55c0-17.03,2.96-27.76,17.4-27.76h5.18v-17.77c0-21.84,13.69-23.32,22.58-33.68,8.88-10.36,9.62-24.43,29.24-24.43s26.65,17.03,26.65,38.12v37.75h8.88Z"/>
      <path class="cls-3" d="M716.56,507.13c12.21-15.17,29.98-24.8,50.34-24.8,28.5,0,61.44,19.25,61.44,68.84v83.64c0,25.54-15.17,38.12-34.42,38.12h-9.62c-19.25,0-34.42-12.58-34.42-38.12v-65.88c0-11.47-4.44-19.62-13.69-19.62s-19.62,9.25-19.62,30.72v54.78c0,25.54-15.17,38.12-34.42,38.12h-9.62c-19.25,0-34.42-12.58-34.42-38.12v-190.24c0-25.54,15.17-38.12,34.42-38.12h9.62c19.25,0,34.42,12.58,34.42,38.12v62.55Z"/>
      <path class="cls-3" d="M843.13,577.82c0-56.26,42.93-95.49,95.49-95.49s95.49,39.23,95.49,95.49-42.93,95.12-95.49,95.12-95.49-39.23-95.49-95.12ZM956.75,577.82c0-18.88-6.66-30.35-18.14-30.35s-18.14,11.47-18.14,30.35,6.66,30.72,18.14,30.72,18.14-11.47,18.14-30.72Z"/>
    </g>
    <g>
      <path class="cls-2" d="M343.49,406.46c29.98,0,42.56,13.32,42.56,49.6v167.29c0,36.27-12.58,49.6-42.56,49.6h-7.77c-29.98,0-42.56-13.32-42.56-49.6v-102.52l-37.75,130.28c-5.18,17.4-14.8,21.84-29.24,21.84h-5.92c-15.17,0-27.02-5.55-32.57-22.95l-41.45-128.8v102.15c0,12.95-.74,24.43-4.81,32.57-5.55,11.1-16.65,17.03-28.5,17.03h-5.92c-11.84,0-22.95-5.92-28.5-17.03-4.07-8.14-4.81-19.62-4.81-32.57v-167.29c0-36.27,12.58-49.6,42.93-49.6h52.56c19.62,0,31.09,4.44,38.12,24.43l25.91,75.13,21.84-75.5c5.55-18.88,17.77-24.06,39.23-24.06h49.23Z"/>
      <path class="cls-2" d="M408.26,520.46c0-25.54,15.17-38.12,34.42-38.12h9.62c19.25,0,34.42,12.58,34.42,38.12v114.36c0,25.54-15.17,38.12-34.42,38.12h-9.62c-19.25,0-34.42-12.58-34.42-38.12v-114.36ZM414.18,438.29c0-17.4,14.8-31.83,33.31-31.83s33.31,14.43,33.31,31.83-15.17,32.57-33.31,32.57-33.31-14.43-33.31-32.57Z"/>
      <path class="cls-2" d="M607.75,482.33c14.43,0,17.39,10.73,17.39,27.76v5.55c0,17.02-2.96,27.76-17.39,27.76h-8.88v62.18c9.99.74,17.77,7.4,17.77,19.62,0,17.77-8.51,47.74-48.11,47.74-27.39,0-48.11-18.88-48.11-57.74v-71.8h-5.18c-14.43,0-17.4-10.73-17.4-27.76v-5.55c0-17.03,2.96-27.76,17.4-27.76h5.18v-17.77c0-21.84,13.69-23.32,22.58-33.68,8.88-10.36,9.62-24.43,29.24-24.43s26.65,17.03,26.65,38.12v37.75h8.88Z"/>
      <path class="cls-2" d="M716.56,507.13c12.21-15.17,29.98-24.8,50.34-24.8,28.5,0,61.44,19.25,61.44,68.84v83.64c0,25.54-15.17,38.12-34.42,38.12h-9.62c-19.25,0-34.42-12.58-34.42-38.12v-65.88c0-11.47-4.44-19.62-13.69-19.62s-19.62,9.25-19.62,30.72v54.78c0,25.54-15.17,38.12-34.42,38.12h-9.62c-19.25,0-34.42-12.58-34.42-38.12v-190.24c0-25.54,15.17-38.12,34.42-38.12h9.62c19.25,0,34.42,12.58,34.42,38.12v62.55Z"/>
      <path class="cls-2" d="M843.13,577.82c0-56.26,42.93-95.49,95.49-95.49s95.49,39.23,95.49,95.49-42.93,95.12-95.49,95.12-95.49-39.23-95.49-95.12ZM956.75,577.82c0-18.88-6.66-30.35-18.14-30.35s-18.14,11.47-18.14,30.35,6.66,30.72,18.14,30.72,18.14-11.47,18.14-30.72Z"/>
    </g>
    <g>
      <path class="cls-4" d="M343.49,406.46c29.98,0,42.56,13.32,42.56,49.6v167.29c0,36.27-12.58,49.6-42.56,49.6h-7.77c-29.98,0-42.56-13.32-42.56-49.6v-102.52l-37.75,130.28c-5.18,17.4-14.8,21.84-29.24,21.84h-5.92c-15.17,0-27.02-5.55-32.57-22.95l-41.45-128.8v102.15c0,12.95-.74,24.43-4.81,32.57-5.55,11.1-16.65,17.03-28.5,17.03h-5.92c-11.84,0-22.95-5.92-28.5-17.03-4.07-8.14-4.81-19.62-4.81-32.57v-167.29c0-36.27,12.58-49.6,42.93-49.6h52.56c19.62,0,31.09,4.44,38.12,24.43l25.91,75.13,21.84-75.5c5.55-18.88,17.77-24.06,39.23-24.06h49.23Z"/>
      <path class="cls-4" d="M408.26,520.46c0-25.54,15.17-38.12,34.42-38.12h9.62c19.25,0,34.42,12.58,34.42,38.12v114.36c0,25.54-15.17,38.12-34.42,38.12h-9.62c-19.25,0-34.42-12.58-34.42-38.12v-114.36ZM414.18,438.29c0-17.4,14.8-31.83,33.31-31.83s33.31,14.43,33.31,31.83-15.17,32.57-33.31,32.57-33.31-14.43-33.31-32.57Z"/>
      <path class="cls-4" d="M607.75,482.33c14.43,0,17.39,10.73,17.39,27.76v5.55c0,17.02-2.96,27.76-17.39,27.76h-8.88v62.18c9.99.74,17.77,7.4,17.77,19.62,0,17.77-8.51,47.74-48.11,47.74-27.39,0-48.11-18.88-48.11-57.74v-71.8h-5.18c-14.43,0-17.4-10.73-17.4-27.76v-5.55c0-17.03,2.96-27.76,17.4-27.76h5.18v-17.77c0-21.84,13.69-23.32,22.58-33.68,8.88-10.36,9.62-24.43,29.24-24.43s26.65,17.03,26.65,38.12v37.75h8.88Z"/>
      <path class="cls-4" d="M716.56,507.13c12.21-15.17,29.98-24.8,50.34-24.8,28.5,0,61.44,19.25,61.44,68.84v83.64c0,25.54-15.17,38.12-34.42,38.12h-9.62c-19.25,0-34.42-12.58-34.42-38.12v-65.88c0-11.47-4.44-19.62-13.69-19.62s-19.62,9.25-19.62,30.72v54.78c0,25.54-15.17,38.12-34.42,38.12h-9.62c-19.25,0-34.42-12.58-34.42-38.12v-190.24c0-25.54,15.17-38.12,34.42-38.12h9.62c19.25,0,34.42,12.58,34.42,38.12v62.55Z"/>
      <path class="cls-4" d="M843.13,577.82c0-56.26,42.93-95.49,95.49-95.49s95.49,39.23,95.49,95.49-42.93,95.12-95.49,95.12-95.49-39.23-95.49-95.12ZM956.75,577.82c0-18.88-6.66-30.35-18.14-30.35s-18.14,11.47-18.14,30.35,6.66,30.72,18.14,30.72,18.14-11.47,18.14-30.72Z"/>
    </g>
  </g>
  <polygon class="cls-3" points="1153.84 482.33 1332.56 463.59 1456.48 546.01 1566.16 561.17 1718.46 535.94 1776.34 502.18 1798.95 607.43 1573.75 642.07 1311.51 600.4 1153.84 594.2 1134.78 497.35 1153.84 482.33"/>
  <g>
    <g>
      <path class="cls-3" d="M1206.41,672.94c-35.9,0-69.21-11.1-95.12-38.49-23.69-25.17-33.68-56.63-33.68-93.27v-2.96c0-35.9,9.62-67.73,33.68-93.27,25.54-27.02,59.22-38.49,95.12-38.49h7.77c68.1,0,97.71,40.71,97.71,72.54,0,23.69-13.69,37.38-34.42,37.38s-28.5-8.51-35.9-21.84c-8.14-14.43-18.87-19.62-34.42-19.62-12.58,0-24.06,4.07-31.46,14.06-7.4,9.99-9.62,26.28-9.62,43.67v14.06c0,18.14,2.96,34.05,9.62,43.67,7.77,11.1,18.51,14.06,31.09,14.06,15.91,0,26.65-4.44,34.42-19.62,6.66-12.95,14.8-21.84,35.9-21.84s34.42,14.43,34.42,37.38c0,32.57-29.24,72.54-97.34,72.54h-7.77Z"/>
      <path class="cls-3" d="M1408.86,507.13c12.21-15.17,29.98-24.8,50.34-24.8,28.5,0,61.44,19.25,61.44,68.84v83.64c0,25.54-15.17,38.12-34.42,38.12h-9.62c-19.25,0-34.42-12.58-34.42-38.12v-65.88c0-11.47-4.44-19.62-13.69-19.62s-19.62,9.25-19.62,30.72v54.78c0,25.54-15.17,38.12-34.42,38.12h-9.62c-19.25,0-34.42-12.58-34.42-38.12v-190.24c0-25.54,15.17-38.12,34.42-38.12h9.62c19.25,0,34.42,12.58,34.42,38.12v62.55Z"/>
      <path class="cls-3" d="M1720.12,608.54c17.03,0,29.24,5.92,29.24,29.61v5.18c0,19.25-5.92,29.61-33.31,29.61h-22.58c-21.1,0-39.97-4.81-48.11-21.84-9.25,9.62-29.24,21.84-57,21.84-24.43,0-52.93-10.73-52.93-45.89,0-42.19,39.6-52.93,70.69-61.07,20.36-5.55,37.01-9.99,37.01-21.47,0-7.03-4.81-13.32-17.02-13.32-26.65,0-28.13,29.98-59.96,29.98-17.39,0-27.02-9.99-27.02-25.17,0-22.58,26.28-53.67,92.9-53.67,62.92,0,88.09,20.73,88.09,73.65v52.56ZM1646.84,579.67c-17.39,14.8-39.6,13.32-39.6,28.5,0,6.29,3.7,10.73,10.36,10.73,11.1,0,29.24-15.17,29.24-39.23Z"/>
      <path class="cls-3" d="M1815.24,406.46c20.36,0,27.76,8.88,23.69,29.98l-31.09,155.08c-.74,2.96-10.73,2.96-11.47,0l-31.09-155.08c-4.07-21.1,4.44-29.98,24.8-29.98h25.17ZM1770.08,637.04c0-18.51,11.1-29.61,28.87-29.61h6.29c17.77,0,28.5,11.1,28.5,29.61v6.66c0,18.14-10.73,29.24-28.5,29.24h-6.29c-17.77,0-28.87-11.1-28.87-29.24v-6.66Z"/>
    </g>
    <g>
      <path class="cls-1" d="M1206.41,672.94c-35.9,0-69.21-11.1-95.12-38.49-23.69-25.17-33.68-56.63-33.68-93.27v-2.96c0-35.9,9.62-67.73,33.68-93.27,25.54-27.02,59.22-38.49,95.12-38.49h7.77c68.1,0,97.71,40.71,97.71,72.54,0,23.69-13.69,37.38-34.42,37.38s-28.5-8.51-35.9-21.84c-8.14-14.43-18.87-19.62-34.42-19.62-12.58,0-24.06,4.07-31.46,14.06-7.4,9.99-9.62,26.28-9.62,43.67v14.06c0,18.14,2.96,34.05,9.62,43.67,7.77,11.1,18.51,14.06,31.09,14.06,15.91,0,26.65-4.44,34.42-19.62,6.66-12.95,14.8-21.84,35.9-21.84s34.42,14.43,34.42,37.38c0,32.57-29.24,72.54-97.34,72.54h-7.77Z"/>
      <path class="cls-1" d="M1408.86,507.13c12.21-15.17,29.98-24.8,50.34-24.8,28.5,0,61.44,19.25,61.44,68.84v83.64c0,25.54-15.17,38.12-34.42,38.12h-9.62c-19.25,0-34.42-12.58-34.42-38.12v-65.88c0-11.47-4.44-19.62-13.69-19.62s-19.62,9.25-19.62,30.72v54.78c0,25.54-15.17,38.12-34.42,38.12h-9.62c-19.25,0-34.42-12.58-34.42-38.12v-190.24c0-25.54,15.17-38.12,34.42-38.12h9.62c19.25,0,34.42,12.58,34.42,38.12v62.55Z"/>
      <path class="cls-1" d="M1720.12,608.54c17.03,0,29.24,5.92,29.24,29.61v5.18c0,19.25-5.92,29.61-33.31,29.61h-22.58c-21.1,0-39.97-4.81-48.11-21.84-9.25,9.62-29.24,21.84-57,21.84-24.43,0-52.93-10.73-52.93-45.89,0-42.19,39.6-52.93,70.69-61.07,20.36-5.55,37.01-9.99,37.01-21.47,0-7.03-4.81-13.32-17.02-13.32-26.65,0-28.13,29.98-59.96,29.98-17.39,0-27.02-9.99-27.02-25.17,0-22.58,26.28-53.67,92.9-53.67,62.92,0,88.09,20.73,88.09,73.65v52.56ZM1646.84,579.67c-17.39,14.8-39.6,13.32-39.6,28.5,0,6.29,3.7,10.73,10.36,10.73,11.1,0,29.24-15.17,29.24-39.23Z"/>
      <path class="cls-1" d="M1815.24,406.46c20.36,0,27.76,8.88,23.69,29.98l-31.09,155.08c-.74,2.96-10.73,2.96-11.47,0l-31.09-155.08c-4.07-21.1,4.44-29.98,24.8-29.98h25.17ZM1770.08,637.04c0-18.51,11.1-29.61,28.87-29.61h6.29c17.77,0,28.5,11.1,28.5,29.61v6.66c0,18.14-10.73,29.24-28.5,29.24h-6.29c-17.77,0-28.87-11.1-28.87-29.24v-6.66Z"/>
    </g>
    <g>
      <path class="cls-4" d="M1206.41,672.94c-35.9,0-69.21-11.1-95.12-38.49-23.69-25.17-33.68-56.63-33.68-93.27v-2.96c0-35.9,9.62-67.73,33.68-93.27,25.54-27.02,59.22-38.49,95.12-38.49h7.77c68.1,0,97.71,40.71,97.71,72.54,0,23.69-13.69,37.38-34.42,37.38s-28.5-8.51-35.9-21.84c-8.14-14.43-18.87-19.62-34.42-19.62-12.58,0-24.06,4.07-31.46,14.06-7.4,9.99-9.62,26.28-9.62,43.67v14.06c0,18.14,2.96,34.05,9.62,43.67,7.77,11.1,18.51,14.06,31.09,14.06,15.91,0,26.65-4.44,34.42-19.62,6.66-12.95,14.8-21.84,35.9-21.84s34.42,14.43,34.42,37.38c0,32.57-29.24,72.54-97.34,72.54h-7.77Z"/>
      <path class="cls-4" d="M1408.86,507.13c12.21-15.17,29.98-24.8,50.34-24.8,28.5,0,61.44,19.25,61.44,68.84v83.64c0,25.54-15.17,38.12-34.42,38.12h-9.62c-19.25,0-34.42-12.58-34.42-38.12v-65.88c0-11.47-4.44-19.62-13.69-19.62s-19.62,9.25-19.62,30.72v54.78c0,25.54-15.17,38.12-34.42,38.12h-9.62c-19.25,0-34.42-12.58-34.42-38.12v-190.24c0-25.54,15.17-38.12,34.42-38.12h9.62c19.25,0,34.42,12.58,34.42,38.12v62.55Z"/>
      <path class="cls-4" d="M1720.12,608.54c17.03,0,29.24,5.92,29.24,29.61v5.18c0,19.25-5.92,29.61-33.31,29.61h-22.58c-21.1,0-39.97-4.81-48.11-21.84-9.25,9.62-29.24,21.84-57,21.84-24.43,0-52.93-10.73-52.93-45.89,0-42.19,39.6-52.93,70.69-61.07,20.36-5.55,37.01-9.99,37.01-21.47,0-7.03-4.81-13.32-17.02-13.32-26.65,0-28.13,29.98-59.96,29.98-17.39,0-27.02-9.99-27.02-25.17,0-22.58,26.28-53.67,92.9-53.67,62.92,0,88.09,20.73,88.09,73.65v52.56ZM1646.84,579.67c-17.39,14.8-39.6,13.32-39.6,28.5,0,6.29,3.7,10.73,10.36,10.73,11.1,0,29.24-15.17,29.24-39.23Z"/>
      <path class="cls-4" d="M1815.24,406.46c20.36,0,27.76,8.88,23.69,29.98l-31.09,155.08c-.74,2.96-10.73,2.96-11.47,0l-31.09-155.08c-4.07-21.1,4.44-29.98,24.8-29.98h25.17ZM1770.08,637.04c0-18.51,11.1-29.61,28.87-29.61h6.29c17.77,0,28.5,11.1,28.5,29.61v6.66c0,18.14-10.73,29.24-28.5,29.24h-6.29c-17.77,0-28.87-11.1-28.87-29.24v-6.66Z"/>
    </g>
  </g>
</svg>
