<?xml version="1.0" encoding="UTF-8"?>
<svg id="_Шар_1" data-name="Шар_1" xmlns="http://www.w3.org/2000/svg" viewBox="100 180 930 760">
  <defs>
    <style>
      .cls-1, .cls-2 {
        fill: #fff;
      }

      .cls-1, .cls-3, .cls-4, .cls-5, .cls-6, .cls-7 {
        stroke: #fff;
      }

      .cls-1, .cls-7 {
        stroke-width: 1.56px;
      }

      .cls-3 {
        stroke-width: 40.55px;
      }

      .cls-3, .cls-4, .cls-5, .cls-6 {
        stroke-linecap: round;
        stroke-linejoin: round;
      }

      .cls-3, .cls-4, .cls-5, .cls-6, .cls-7 {
        fill: none;
      }

      .cls-4 {
        stroke-width: 74.88px;
      }

      .cls-5 {
        stroke-width: 65.68px;
      }

      .cls-6 {
        stroke-width: 42.89px;
      }

      .cls-8 {
        fill: #ef8a00;
      }
    </style>
  </defs>
  <g>
    <g>
      <g>
        <path d="M243.52,418.12c-10.05-11.9-16.81-21.65-25.26-29.59-28.46-26.75-69.66-16.73-83.18,20.03-9.27,25.21-5.3,50.42,2.65,74.95,19.39,59.81,55.47,109.44,101.13,151.02,36.09,32.86,67.28,68.09,92.62,110.09,26.73,44.32,62.99,81.48,107.77,108.66,19.09,11.59,39.94,20.3,62.02,31.33.19,5.44-.55,13.8.93,21.75,6.19,33.26,31.42,53.39,69.44,52.33,19.78-.55,40.09-4.32,58.99-10.31,52.85-16.76,102.16-40.55,138.74-84.16,8.65-10.32,15.93-22.55,20.86-35.07,11.08-28.16,4.41-52.81-21.84-74.36,8.12-7.67,16.18-14.71,23.6-22.38,36.44-37.67,65.06-80.09,73.15-132.95,2.83-18.52,2.53-38.31-.61-56.79-6.17-36.28-25.36-52.75-63.69-60.09-10.4-60.45-38.84-107.74-97.8-131-57.39-22.64-112.23-16.92-163.11,21.8-9.14-16.61-9.21-33.7-7.48-50.55,3.19-31.17,8.05-62.16,11.2-93.33,1.52-15.03,1.65-30.35.78-45.44-1.44-24.95-10.67-46.18-35.36-56.43-25.92-10.76-50.98-7.86-73.66,9.03-23.52,17.52-36.02,42.65-43.4,69.89-6.86,25.34-10.83,51.46-17.96,77.91-.23-6.69-.12-13.4-.76-20.05-1.33-13.64-2.28-27.39-4.8-40.82-4.79-25.52-17.88-44.27-44.89-50.34-28.87-6.49-53.72-.1-72.09,23.97-18.96,24.85-23.8,54.38-25.16,84.56-1.91,42.43,3.83,84.06,14.65,125.06.73,2.77,1.26,5.59,2.52,11.31ZM744.59,527.53c-6.38,13.5-11.18,25.28-17.31,36.33-24.2,43.68-70.79,44.24-96.25,1.28-3.22-5.44-5.97-11.27-8.08-17.23-8.72-24.64-2.33-45.31,17.54-57.94,19.74-12.56,32.38-10.01,53.78,11.88,13.37,13.67,27.9,24.65,50.32,25.68Z"/>
        <path class="cls-7" d="M243.52,418.12c-10.05-11.9-16.81-21.65-25.26-29.59-28.46-26.75-69.66-16.73-83.18,20.03-9.27,25.21-5.3,50.42,2.65,74.95,19.39,59.81,55.47,109.44,101.13,151.02,36.09,32.86,67.28,68.09,92.62,110.09,26.73,44.32,62.99,81.48,107.77,108.66,19.09,11.59,39.94,20.3,62.02,31.33.19,5.44-.55,13.8.93,21.75,6.19,33.26,31.42,53.39,69.44,52.33,19.78-.55,40.09-4.32,58.99-10.31,52.85-16.76,102.16-40.55,138.74-84.16,8.65-10.32,15.93-22.55,20.86-35.07,11.08-28.16,4.41-52.81-21.84-74.36,8.12-7.67,16.18-14.71,23.6-22.38,36.44-37.67,65.06-80.09,73.15-132.95,2.83-18.52,2.53-38.31-.61-56.79-6.17-36.28-25.36-52.75-63.69-60.09-10.4-60.45-38.84-107.74-97.8-131-57.39-22.64-112.23-16.92-163.11,21.8-9.14-16.61-9.21-33.7-7.48-50.55,3.19-31.17,8.05-62.16,11.2-93.33,1.52-15.03,1.65-30.35.78-45.44-1.44-24.95-10.67-46.18-35.36-56.43-25.92-10.76-50.98-7.86-73.66,9.03-23.52,17.52-36.02,42.65-43.4,69.89-6.86,25.34-10.83,51.46-17.96,77.91-.23-6.69-.12-13.4-.76-20.05-1.33-13.64-2.28-27.39-4.8-40.82-4.79-25.52-17.88-44.27-44.89-50.34-28.87-6.49-53.72-.1-72.09,23.97-18.96,24.85-23.8,54.38-25.16,84.56-1.91,42.43,3.83,84.06,14.65,125.06.73,2.77,1.26,5.59,2.52,11.31ZM744.59,527.53c-6.38,13.5-11.18,25.28-17.31,36.33-24.2,43.68-70.79,44.24-96.25,1.28-3.22-5.44-5.97-11.27-8.08-17.23-8.72-24.64-2.33-45.31,17.54-57.94,19.74-12.56,32.38-10.01,53.78,11.88,13.37,13.67,27.9,24.65,50.32,25.68Z"/>
        <path class="cls-4" d="M243.52,418.12c-10.05-11.9-16.81-21.65-25.26-29.59-28.46-26.75-69.66-16.73-83.18,20.03-9.27,25.21-5.3,50.42,2.65,74.95,19.39,59.81,55.47,109.44,101.13,151.02,36.09,32.86,67.28,68.09,92.62,110.09,26.73,44.32,62.99,81.48,107.77,108.66,19.09,11.59,39.94,20.3,62.02,31.33.19,5.44-.55,13.8.93,21.75,6.19,33.26,31.42,53.39,69.44,52.33,19.78-.55,40.09-4.32,58.99-10.31,52.85-16.76,102.16-40.55,138.74-84.16,8.65-10.32,15.93-22.55,20.86-35.07,11.08-28.16,4.41-52.81-21.84-74.36,8.12-7.67,16.18-14.71,23.6-22.38,36.44-37.67,65.06-80.09,73.15-132.95,2.83-18.52,2.53-38.31-.61-56.79-6.17-36.28-25.36-52.75-63.69-60.09-10.4-60.45-38.84-107.74-97.8-131-57.39-22.64-112.23-16.92-163.11,21.8-9.14-16.61-9.21-33.7-7.48-50.55,3.19-31.17,8.05-62.16,11.2-93.33,1.52-15.03,1.65-30.35.78-45.44-1.44-24.95-10.67-46.18-35.36-56.43-25.92-10.76-50.98-7.86-73.66,9.03-23.52,17.52-36.02,42.65-43.4,69.89-6.86,25.34-10.83,51.46-17.96,77.91-.23-6.69-.12-13.4-.76-20.05-1.33-13.64-2.28-27.39-4.8-40.82-4.79-25.52-17.88-44.27-44.89-50.34-28.87-6.49-53.72-.1-72.09,23.97-18.96,24.85-23.8,54.38-25.16,84.56-1.91,42.43,3.83,84.06,14.65,125.06.73,2.77,1.26,5.59,2.52,11.31ZM744.59,527.53c-6.38,13.5-11.18,25.28-17.31,36.33-24.2,43.68-70.79,44.24-96.25,1.28-3.22-5.44-5.97-11.27-8.08-17.23-8.72-24.64-2.33-45.31,17.54-57.94,19.74-12.56,32.38-10.01,53.78,11.88,13.37,13.67,27.9,24.65,50.32,25.68Z"/>
        <path class="cls-2" d="M243.52,418.12c-10.05-11.9-16.81-21.65-25.26-29.59-28.46-26.75-69.66-16.73-83.18,20.03-9.27,25.21-5.3,50.42,2.65,74.95,19.39,59.81,55.47,109.44,101.13,151.02,36.09,32.86,67.28,68.09,92.62,110.09,26.73,44.32,62.99,81.48,107.77,108.66,19.09,11.59,39.94,20.3,62.02,31.33.19,5.44-.55,13.8.93,21.75,6.19,33.26,31.42,53.39,69.44,52.33,19.78-.55,40.09-4.32,58.99-10.31,52.85-16.76,102.16-40.55,138.74-84.16,8.65-10.32,15.93-22.55,20.86-35.07,11.08-28.16,4.41-52.81-21.84-74.36,8.12-7.67,16.18-14.71,23.6-22.38,36.44-37.67,65.06-80.09,73.15-132.95,2.83-18.52,2.53-38.31-.61-56.79-6.17-36.28-25.36-52.75-63.69-60.09-10.4-60.45-38.84-107.74-97.8-131-57.39-22.64-112.23-16.92-163.11,21.8-9.14-16.61-9.21-33.7-7.48-50.55,3.19-31.17,8.05-62.16,11.2-93.33,1.52-15.03,1.65-30.35.78-45.44-1.44-24.95-10.67-46.18-35.36-56.43-25.92-10.76-50.98-7.86-73.66,9.03-23.52,17.52-36.02,42.65-43.4,69.89-6.86,25.34-10.83,51.46-17.96,77.91-.23-6.69-.12-13.4-.76-20.05-1.33-13.64-2.28-27.39-4.8-40.82-4.79-25.52-17.88-44.27-44.89-50.34-28.87-6.49-53.72-.1-72.09,23.97-18.96,24.85-23.8,54.38-25.16,84.56-1.91,42.43,3.83,84.06,14.65,125.06.73,2.77,1.26,5.59,2.52,11.31ZM744.59,527.53c-6.38,13.5-11.18,25.28-17.31,36.33-24.2,43.68-70.79,44.24-96.25,1.28-3.22-5.44-5.97-11.27-8.08-17.23-8.72-24.64-2.33-45.31,17.54-57.94,19.74-12.56,32.38-10.01,53.78,11.88,13.37,13.67,27.9,24.65,50.32,25.68Z"/>
      </g>
      <ellipse class="cls-1" cx="679.66" cy="548.25" rx="87.36" ry="65.52" transform="translate(-18.49 23.74) rotate(-1.97)"/>
    </g>
    <g>
      <path d="M243.52,418.12c-10.05-11.9-16.81-21.65-25.26-29.59-28.46-26.75-69.66-16.73-83.18,20.03-9.27,25.21-5.3,50.42,2.65,74.95,19.39,59.81,55.47,109.44,101.13,151.02,36.09,32.86,67.28,68.09,92.62,110.09,26.73,44.32,62.99,81.48,107.77,108.66,19.09,11.59,39.94,20.3,62.02,31.33.19,5.44-.55,13.8.93,21.75,6.19,33.26,31.42,53.39,69.44,52.33,19.78-.55,40.09-4.32,58.99-10.31,52.85-16.76,102.16-40.55,138.74-84.16,8.65-10.32,15.93-22.55,20.86-35.07,11.08-28.16,4.41-52.81-21.84-74.36,8.12-7.67,16.18-14.71,23.6-22.38,36.44-37.67,65.06-80.09,73.15-132.95,2.83-18.52,2.53-38.31-.61-56.79-6.17-36.28-25.36-52.75-63.69-60.09-10.4-60.45-38.84-107.74-97.8-131-57.39-22.64-112.23-16.92-163.11,21.8-9.14-16.61-9.21-33.7-7.48-50.55,3.19-31.17,8.05-62.16,11.2-93.33,1.52-15.03,1.65-30.35.78-45.44-1.44-24.95-10.67-46.18-35.36-56.43-25.92-10.76-50.98-7.86-73.66,9.03-23.52,17.52-36.02,42.65-43.4,69.89-6.86,25.34-10.83,51.46-17.96,77.91-.23-6.69-.12-13.4-.76-20.05-1.33-13.64-2.28-27.39-4.8-40.82-4.79-25.52-17.88-44.27-44.89-50.34-28.87-6.49-53.72-.1-72.09,23.97-18.96,24.85-23.8,54.38-25.16,84.56-1.91,42.43,3.83,84.06,14.65,125.06.73,2.77,1.26,5.59,2.52,11.31ZM534.02,889.09c11.66-1.08,21.97-4.04,21.21-17.61-.71-12.66-11.31-13.44-21.09-16.13-21.1-5.82-43.08-10.56-62.4-20.3-50.81-25.64-89.39-66.18-117.76-114.3-23.74-40.27-53.14-73.64-87.92-104.34-42.21-37.26-76.62-81.67-95.14-135.81-5.69-16.62-7.34-35.31-7-52.98.14-7.47,8.89-18.03,16.22-20.98,5.01-2.02,16.72,4.92,21.28,10.97,11.72,15.58,20.57,33.28,31.6,49.42,12.92,18.9,24.17,40.37,41.24,54.63,19.11,15.96,41.29,28.62,60.38,45.28,8.07,7.05,17.95,6.39,24.28-3.04,5.97-8.9,2.35-16.84-5.95-22.75-22.98-16.35-39.67-38.44-51.4-63.27-30.32-64.14-49.5-131.35-42.31-203.12,1.98-19.79,9.68-39.68,18.17-57.94,6.8-14.62,22.57-15.55,37.49-12.92,14.35,2.53,20.32,12.71,22.2,25.8,1.95,13.56,3.64,27.2,4.61,40.86,3.18,44.86,10.81,88.44,33.01,128.45,7.55,13.61,13.65,28.01,20.83,41.84,6.52,12.57,13.17,25.1,20.56,37.16,5.26,8.59,13.4,12.23,22.41,5.64,9.27-6.78,7.33-14.91,2.72-24.61-9.12-19.21-18.14-38.77-24.03-59.11-4.85-16.75-6.1-34.75-7.27-52.31-3.25-48.75-1.52-97.32,16.86-143.3,5.99-14.97,15.35-30.22,27.2-40.87,24.03-21.6,54.39-9.09,58.91,22.55.96,6.73,1.29,13.75.54,20.49-3.5,31.63-8.37,63.13-11.03,94.82-2.49,29.69-5.77,60.22,10.26,87.51,5.41,9.2,4.99,15.25-.36,23.55-7.9,12.23-6.26,23.58,3.43,27.77,13.01,5.63,18.6-3.43,23.6-13.09,13.86-26.77,35.65-44.16,64.59-51.51,67.69-17.19,139.73,12.4,161.48,91.02,1.89,6.84-.03,20.28-4.02,22.06-8.73,3.9-20.86,5.07-29.86,2.1-8.48-2.8-15.2-11.91-21.89-18.99-30.13-31.9-83.38-22.38-108.24,11.37-34.35,46.63-.47,128.12,59.27,143.77,21.16,5.54,40.72,1.76,59.03-9.79,18.38-11.6,31.45-27.67,40.64-47.24,6.65-14.17,12.73-28.76,20.93-42,10.08-16.28,30.32-16.8,41.77-1.48,4.82,6.46,8.2,14.56,10.24,22.43,7.49,28.89.78,56.44-10.33,83.05-23.01,55.13-67.5,93.07-108.67,133.46-11.17,10.96-15.28,18.87-8.15,26.79,9.84,10.93,19.21,5.59,28.22-1.7,1.14-.92,2.32-1.8,3.49-2.7,10.23-7.91,18.28-6.9,22.1,5.25,2.57,8.18,3.59,20.02-.53,26.52-10.58,16.67-22.46,33.57-37.34,46.25-34.86,29.68-76.43,47.28-120.84,57.67-11.31,2.65-23.33,3.93-34.92,3.42-22.85-1-33.46-13.68-32.29-37.69ZM744.59,527.53c-6.38,13.5-11.18,25.28-17.31,36.33-24.2,43.68-70.79,44.24-96.25,1.28-3.22-5.44-5.97-11.27-8.08-17.23-8.72-24.64-2.33-45.31,17.54-57.94,19.74-12.56,32.38-10.01,53.78,11.88,13.37,13.67,27.9,24.65,50.32,25.68Z"/>
      <path class="cls-7" d="M243.52,418.12c-10.05-11.9-16.81-21.65-25.26-29.59-28.46-26.75-69.66-16.73-83.18,20.03-9.27,25.21-5.3,50.42,2.65,74.95,19.39,59.81,55.47,109.44,101.13,151.02,36.09,32.86,67.28,68.09,92.62,110.09,26.73,44.32,62.99,81.48,107.77,108.66,19.09,11.59,39.94,20.3,62.02,31.33.19,5.44-.55,13.8.93,21.75,6.19,33.26,31.42,53.39,69.44,52.33,19.78-.55,40.09-4.32,58.99-10.31,52.85-16.76,102.16-40.55,138.74-84.16,8.65-10.32,15.93-22.55,20.86-35.07,11.08-28.16,4.41-52.81-21.84-74.36,8.12-7.67,16.18-14.71,23.6-22.38,36.44-37.67,65.06-80.09,73.15-132.95,2.83-18.52,2.53-38.31-.61-56.79-6.17-36.28-25.36-52.75-63.69-60.09-10.4-60.45-38.84-107.74-97.8-131-57.39-22.64-112.23-16.92-163.11,21.8-9.14-16.61-9.21-33.7-7.48-50.55,3.19-31.17,8.05-62.16,11.2-93.33,1.52-15.03,1.65-30.35.78-45.44-1.44-24.95-10.67-46.18-35.36-56.43-25.92-10.76-50.98-7.86-73.66,9.03-23.52,17.52-36.02,42.65-43.4,69.89-6.86,25.34-10.83,51.46-17.96,77.91-.23-6.69-.12-13.4-.76-20.05-1.33-13.64-2.28-27.39-4.8-40.82-4.79-25.52-17.88-44.27-44.89-50.34-28.87-6.49-53.72-.1-72.09,23.97-18.96,24.85-23.8,54.38-25.16,84.56-1.91,42.43,3.83,84.06,14.65,125.06.73,2.77,1.26,5.59,2.52,11.31ZM534.02,889.09c11.66-1.08,21.97-4.04,21.21-17.61-.71-12.66-11.31-13.44-21.09-16.13-21.1-5.82-43.08-10.56-62.4-20.3-50.81-25.64-89.39-66.18-117.76-114.3-23.74-40.27-53.14-73.64-87.92-104.34-42.21-37.26-76.62-81.67-95.14-135.81-5.69-16.62-7.34-35.31-7-52.98.14-7.47,8.89-18.03,16.22-20.98,5.01-2.02,16.72,4.92,21.28,10.97,11.72,15.58,20.57,33.28,31.6,49.42,12.92,18.9,24.17,40.37,41.24,54.63,19.11,15.96,41.29,28.62,60.38,45.28,8.07,7.05,17.95,6.39,24.28-3.04,5.97-8.9,2.35-16.84-5.95-22.75-22.98-16.35-39.67-38.44-51.4-63.27-30.32-64.14-49.5-131.35-42.31-203.12,1.98-19.79,9.68-39.68,18.17-57.94,6.8-14.62,22.57-15.55,37.49-12.92,14.35,2.53,20.32,12.71,22.2,25.8,1.95,13.56,3.64,27.2,4.61,40.86,3.18,44.86,10.81,88.44,33.01,128.45,7.55,13.61,13.65,28.01,20.83,41.84,6.52,12.57,13.17,25.1,20.56,37.16,5.26,8.59,13.4,12.23,22.41,5.64,9.27-6.78,7.33-14.91,2.72-24.61-9.12-19.21-18.14-38.77-24.03-59.11-4.85-16.75-6.1-34.75-7.27-52.31-3.25-48.75-1.52-97.32,16.86-143.3,5.99-14.97,15.35-30.22,27.2-40.87,24.03-21.6,54.39-9.09,58.91,22.55.96,6.73,1.29,13.75.54,20.49-3.5,31.63-8.37,63.13-11.03,94.82-2.49,29.69-5.77,60.22,10.26,87.51,5.41,9.2,4.99,15.25-.36,23.55-7.9,12.23-6.26,23.58,3.43,27.77,13.01,5.63,18.6-3.43,23.6-13.09,13.86-26.77,35.65-44.16,64.59-51.51,67.69-17.19,139.73,12.4,161.48,91.02,1.89,6.84-.03,20.28-4.02,22.06-8.73,3.9-20.86,5.07-29.86,2.1-8.48-2.8-15.2-11.91-21.89-18.99-30.13-31.9-83.38-22.38-108.24,11.37-34.35,46.63-.47,128.12,59.27,143.77,21.16,5.54,40.72,1.76,59.03-9.79,18.38-11.6,31.45-27.67,40.64-47.24,6.65-14.17,12.73-28.76,20.93-42,10.08-16.28,30.32-16.8,41.77-1.48,4.82,6.46,8.2,14.56,10.24,22.43,7.49,28.89.78,56.44-10.33,83.05-23.01,55.13-67.5,93.07-108.67,133.46-11.17,10.96-15.28,18.87-8.15,26.79,9.84,10.93,19.21,5.59,28.22-1.7,1.14-.92,2.32-1.8,3.49-2.7,10.23-7.91,18.28-6.9,22.1,5.25,2.57,8.18,3.59,20.02-.53,26.52-10.58,16.67-22.46,33.57-37.34,46.25-34.86,29.68-76.43,47.28-120.84,57.67-11.31,2.65-23.33,3.93-34.92,3.42-22.85-1-33.46-13.68-32.29-37.69ZM744.59,527.53c-6.38,13.5-11.18,25.28-17.31,36.33-24.2,43.68-70.79,44.24-96.25,1.28-3.22-5.44-5.97-11.27-8.08-17.23-8.72-24.64-2.33-45.31,17.54-57.94,19.74-12.56,32.38-10.01,53.78,11.88,13.37,13.67,27.9,24.65,50.32,25.68Z"/>
      <path class="cls-4" d="M243.52,418.12c-10.05-11.9-16.81-21.65-25.26-29.59-28.46-26.75-69.66-16.73-83.18,20.03-9.27,25.21-5.3,50.42,2.65,74.95,19.39,59.81,55.47,109.44,101.13,151.02,36.09,32.86,67.28,68.09,92.62,110.09,26.73,44.32,62.99,81.48,107.77,108.66,19.09,11.59,39.94,20.3,62.02,31.33.19,5.44-.55,13.8.93,21.75,6.19,33.26,31.42,53.39,69.44,52.33,19.78-.55,40.09-4.32,58.99-10.31,52.85-16.76,102.16-40.55,138.74-84.16,8.65-10.32,15.93-22.55,20.86-35.07,11.08-28.16,4.41-52.81-21.84-74.36,8.12-7.67,16.18-14.71,23.6-22.38,36.44-37.67,65.06-80.09,73.15-132.95,2.83-18.52,2.53-38.31-.61-56.79-6.17-36.28-25.36-52.75-63.69-60.09-10.4-60.45-38.84-107.74-97.8-131-57.39-22.64-112.23-16.92-163.11,21.8-9.14-16.61-9.21-33.7-7.48-50.55,3.19-31.17,8.05-62.16,11.2-93.33,1.52-15.03,1.65-30.35.78-45.44-1.44-24.95-10.67-46.18-35.36-56.43-25.92-10.76-50.98-7.86-73.66,9.03-23.52,17.52-36.02,42.65-43.4,69.89-6.86,25.34-10.83,51.46-17.96,77.91-.23-6.69-.12-13.4-.76-20.05-1.33-13.64-2.28-27.39-4.8-40.82-4.79-25.52-17.88-44.27-44.89-50.34-28.87-6.49-53.72-.1-72.09,23.97-18.96,24.85-23.8,54.38-25.16,84.56-1.91,42.43,3.83,84.06,14.65,125.06.73,2.77,1.26,5.59,2.52,11.31ZM534.02,889.09c11.66-1.08,21.97-4.04,21.21-17.61-.71-12.66-11.31-13.44-21.09-16.13-21.1-5.82-43.08-10.56-62.4-20.3-50.81-25.64-89.39-66.18-117.76-114.3-23.74-40.27-53.14-73.64-87.92-104.34-42.21-37.26-76.62-81.67-95.14-135.81-5.69-16.62-7.34-35.31-7-52.98.14-7.47,8.89-18.03,16.22-20.98,5.01-2.02,16.72,4.92,21.28,10.97,11.72,15.58,20.57,33.28,31.6,49.42,12.92,18.9,24.17,40.37,41.24,54.63,19.11,15.96,41.29,28.62,60.38,45.28,8.07,7.05,17.95,6.39,24.28-3.04,5.97-8.9,2.35-16.84-5.95-22.75-22.98-16.35-39.67-38.44-51.4-63.27-30.32-64.14-49.5-131.35-42.31-203.12,1.98-19.79,9.68-39.68,18.17-57.94,6.8-14.62,22.57-15.55,37.49-12.92,14.35,2.53,20.32,12.71,22.2,25.8,1.95,13.56,3.64,27.2,4.61,40.86,3.18,44.86,10.81,88.44,33.01,128.45,7.55,13.61,13.65,28.01,20.83,41.84,6.52,12.57,13.17,25.1,20.56,37.16,5.26,8.59,13.4,12.23,22.41,5.64,9.27-6.78,7.33-14.91,2.72-24.61-9.12-19.21-18.14-38.77-24.03-59.11-4.85-16.75-6.1-34.75-7.27-52.31-3.25-48.75-1.52-97.32,16.86-143.3,5.99-14.97,15.35-30.22,27.2-40.87,24.03-21.6,54.39-9.09,58.91,22.55.96,6.73,1.29,13.75.54,20.49-3.5,31.63-8.37,63.13-11.03,94.82-2.49,29.69-5.77,60.22,10.26,87.51,5.41,9.2,4.99,15.25-.36,23.55-7.9,12.23-6.26,23.58,3.43,27.77,13.01,5.63,18.6-3.43,23.6-13.09,13.86-26.77,35.65-44.16,64.59-51.51,67.69-17.19,139.73,12.4,161.48,91.02,1.89,6.84-.03,20.28-4.02,22.06-8.73,3.9-20.86,5.07-29.86,2.1-8.48-2.8-15.2-11.91-21.89-18.99-30.13-31.9-83.38-22.38-108.24,11.37-34.35,46.63-.47,128.12,59.27,143.77,21.16,5.54,40.72,1.76,59.03-9.79,18.38-11.6,31.45-27.67,40.64-47.24,6.65-14.17,12.73-28.76,20.93-42,10.08-16.28,30.32-16.8,41.77-1.48,4.82,6.46,8.2,14.56,10.24,22.43,7.49,28.89.78,56.44-10.33,83.05-23.01,55.13-67.5,93.07-108.67,133.46-11.17,10.96-15.28,18.87-8.15,26.79,9.84,10.93,19.21,5.59,28.22-1.7,1.14-.92,2.32-1.8,3.49-2.7,10.23-7.91,18.28-6.9,22.1,5.25,2.57,8.18,3.59,20.02-.53,26.52-10.58,16.67-22.46,33.57-37.34,46.25-34.86,29.68-76.43,47.28-120.84,57.67-11.31,2.65-23.33,3.93-34.92,3.42-22.85-1-33.46-13.68-32.29-37.69ZM744.59,527.53c-6.38,13.5-11.18,25.28-17.31,36.33-24.2,43.68-70.79,44.24-96.25,1.28-3.22-5.44-5.97-11.27-8.08-17.23-8.72-24.64-2.33-45.31,17.54-57.94,19.74-12.56,32.38-10.01,53.78,11.88,13.37,13.67,27.9,24.65,50.32,25.68Z"/>
      <path class="cls-8" d="M243.52,418.12c-10.05-11.9-16.81-21.65-25.26-29.59-28.46-26.75-69.66-16.73-83.18,20.03-9.27,25.21-5.3,50.42,2.65,74.95,19.39,59.81,55.47,109.44,101.13,151.02,36.09,32.86,67.28,68.09,92.62,110.09,26.73,44.32,62.99,81.48,107.77,108.66,19.09,11.59,39.94,20.3,62.02,31.33.19,5.44-.55,13.8.93,21.75,6.19,33.26,31.42,53.39,69.44,52.33,19.78-.55,40.09-4.32,58.99-10.31,52.85-16.76,102.16-40.55,138.74-84.16,8.65-10.32,15.93-22.55,20.86-35.07,11.08-28.16,4.41-52.81-21.84-74.36,8.12-7.67,16.18-14.71,23.6-22.38,36.44-37.67,65.06-80.09,73.15-132.95,2.83-18.52,2.53-38.31-.61-56.79-6.17-36.28-25.36-52.75-63.69-60.09-10.4-60.45-38.84-107.74-97.8-131-57.39-22.64-112.23-16.92-163.11,21.8-9.14-16.61-9.21-33.7-7.48-50.55,3.19-31.17,8.05-62.16,11.2-93.33,1.52-15.03,1.65-30.35.78-45.44-1.44-24.95-10.67-46.18-35.36-56.43-25.92-10.76-50.98-7.86-73.66,9.03-23.52,17.52-36.02,42.65-43.4,69.89-6.86,25.34-10.83,51.46-17.96,77.91-.23-6.69-.12-13.4-.76-20.05-1.33-13.64-2.28-27.39-4.8-40.82-4.79-25.52-17.88-44.27-44.89-50.34-28.87-6.49-53.72-.1-72.09,23.97-18.96,24.85-23.8,54.38-25.16,84.56-1.91,42.43,3.83,84.06,14.65,125.06.73,2.77,1.26,5.59,2.52,11.31ZM534.02,889.09c11.66-1.08,21.97-4.04,21.21-17.61-.71-12.66-11.31-13.44-21.09-16.13-21.1-5.82-43.08-10.56-62.4-20.3-50.81-25.64-89.39-66.18-117.76-114.3-23.74-40.27-53.14-73.64-87.92-104.34-42.21-37.26-76.62-81.67-95.14-135.81-5.69-16.62-7.34-35.31-7-52.98.14-7.47,8.89-18.03,16.22-20.98,5.01-2.02,16.72,4.92,21.28,10.97,11.72,15.58,20.57,33.28,31.6,49.42,12.92,18.9,24.17,40.37,41.24,54.63,19.11,15.96,41.29,28.62,60.38,45.28,8.07,7.05,17.95,6.39,24.28-3.04,5.97-8.9,2.35-16.84-5.95-22.75-22.98-16.35-39.67-38.44-51.4-63.27-30.32-64.14-49.5-131.35-42.31-203.12,1.98-19.79,9.68-39.68,18.17-57.94,6.8-14.62,22.57-15.55,37.49-12.92,14.35,2.53,20.32,12.71,22.2,25.8,1.95,13.56,3.64,27.2,4.61,40.86,3.18,44.86,10.81,88.44,33.01,128.45,7.55,13.61,13.65,28.01,20.83,41.84,6.52,12.57,13.17,25.1,20.56,37.16,5.26,8.59,13.4,12.23,22.41,5.64,9.27-6.78,7.33-14.91,2.72-24.61-9.12-19.21-18.14-38.77-24.03-59.11-4.85-16.75-6.1-34.75-7.27-52.31-3.25-48.75-1.52-97.32,16.86-143.3,5.99-14.97,15.35-30.22,27.2-40.87,24.03-21.6,54.39-9.09,58.91,22.55.96,6.73,1.29,13.75.54,20.49-3.5,31.63-8.37,63.13-11.03,94.82-2.49,29.69-5.77,60.22,10.26,87.51,5.41,9.2,4.99,15.25-.36,23.55-7.9,12.23-6.26,23.58,3.43,27.77,13.01,5.63,18.6-3.43,23.6-13.09,13.86-26.77,35.65-44.16,64.59-51.51,67.69-17.19,139.73,12.4,161.48,91.02,1.89,6.84-.03,20.28-4.02,22.06-8.73,3.9-20.86,5.07-29.86,2.1-8.48-2.8-15.2-11.91-21.89-18.99-30.13-31.9-83.38-22.38-108.24,11.37-34.35,46.63-.47,128.12,59.27,143.77,21.16,5.54,40.72,1.76,59.03-9.79,18.38-11.6,31.45-27.67,40.64-47.24,6.65-14.17,12.73-28.76,20.93-42,10.08-16.28,30.32-16.8,41.77-1.48,4.82,6.46,8.2,14.56,10.24,22.43,7.49,28.89.78,56.44-10.33,83.05-23.01,55.13-67.5,93.07-108.67,133.46-11.17,10.96-15.28,18.87-8.15,26.79,9.84,10.93,19.21,5.59,28.22-1.7,1.14-.92,2.32-1.8,3.49-2.7,10.23-7.91,18.28-6.9,22.1,5.25,2.57,8.18,3.59,20.02-.53,26.52-10.58,16.67-22.46,33.57-37.34,46.25-34.86,29.68-76.43,47.28-120.84,57.67-11.31,2.65-23.33,3.93-34.92,3.42-22.85-1-33.46-13.68-32.29-37.69ZM744.59,527.53c-6.38,13.5-11.18,25.28-17.31,36.33-24.2,43.68-70.79,44.24-96.25,1.28-3.22-5.44-5.97-11.27-8.08-17.23-8.72-24.64-2.33-45.31,17.54-57.94,19.74-12.56,32.38-10.01,53.78,11.88,13.37,13.67,27.9,24.65,50.32,25.68Z"/>
    </g>
  </g>
  <g>
    <path class="cls-5" d="M959.55,295.26c14.51,25.45,27.78,48.71,41.73,73.17-49.58,28.44-97.74,56.07-147.55,84.64-13.82-21.81-26.87-42.43-41.1-64.89,49.05-31.02,96.89-61.28,146.91-92.92Z"/>
    <path class="cls-8" d="M959.55,295.26c14.51,25.45,27.78,48.71,41.73,73.17-49.58,28.44-97.74,56.07-147.55,84.64-13.82-21.81-26.87-42.43-41.1-64.89,49.05-31.02,96.89-61.28,146.91-92.92Z"/>
  </g>
  <g>
    <path class="cls-3" d="M887.2,538.63c.83-15.61,1.58-29.72,2.41-45.48,30.58,1.55,60.72,3.07,92.26,4.66-1.91,17.52-3.73,34.12-5.65,51.66-29.89-3.64-58.89-7.17-89.02-10.84Z"/>
    <path class="cls-8" d="M887.2,538.63c.83-15.61,1.58-29.72,2.41-45.48,30.58,1.55,60.72,3.07,92.26,4.66-1.91,17.52-3.73,34.12-5.65,51.66-29.89-3.64-58.89-7.17-89.02-10.84Z"/>
  </g>
  <g>
    <path class="cls-6" d="M785.62,349.59c-15.13-6.67-28.8-12.7-44.09-19.43,12.99-29.67,25.79-58.91,39.19-89.51,16.61,8.46,32.35,16.48,48.99,24.95-14.8,28.2-29.17,55.56-44.09,83.99Z"/>
    <path class="cls-8" d="M785.62,349.59c-15.13-6.67-28.8-12.7-44.09-19.43,12.99-29.67,25.79-58.91,39.19-89.51,16.61,8.46,32.35,16.48,48.99,24.95-14.8,28.2-29.17,55.56-44.09,83.99Z"/>
  </g>
</svg>
