<?xml version="1.0" encoding="UTF-8"?>
<svg id="_Шар_1" data-name="Шар_1" xmlns="http://www.w3.org/2000/svg" viewBox="100 180 930 760">
  <defs>
    <style>
      .cls-1 {
        fill: #007936;
      }

      .cls-2, .cls-3 {
        fill: #fff;
      }

      .cls-2, .cls-4, .cls-5, .cls-6, .cls-7, .cls-8 {
        stroke: #fff;
      }

      .cls-2, .cls-8 {
        stroke-width: 1.56px;
      }

      .cls-4 {
        stroke-width: 40.64px;
      }

      .cls-4, .cls-5, .cls-6, .cls-7 {
        stroke-linecap: round;
        stroke-linejoin: round;
      }

      .cls-4, .cls-5, .cls-6, .cls-7, .cls-8 {
        fill: none;
      }

      .cls-5 {
        stroke-width: 75.05px;
      }

      .cls-6 {
        stroke-width: 65.83px;
      }

      .cls-7 {
        stroke-width: 42.98px;
      }
    </style>
  </defs>
  <g>
    <g>
      <g>
        <path d="M242.8,417.85c-10.07-11.92-16.84-21.69-25.32-29.66-28.53-26.81-69.81-16.76-83.36,20.08-9.29,25.27-5.31,50.54,2.66,75.12,19.44,59.94,55.59,109.69,101.36,151.36,36.17,32.93,67.43,68.24,92.83,110.34,26.79,44.41,63.13,81.66,108.01,108.91,19.14,11.62,40.03,20.34,62.16,31.4.19,5.46-.55,13.83.93,21.79,6.2,33.34,31.49,53.51,69.59,52.44,19.83-.55,40.18-4.33,59.12-10.34,52.97-16.8,102.38-40.64,139.05-84.35,8.67-10.34,15.97-22.6,20.9-35.15,11.1-28.22,4.42-52.93-21.88-74.53,8.14-7.69,16.22-14.74,23.65-22.43,36.52-37.75,65.21-80.27,73.31-133.25,2.84-18.56,2.54-38.4-.61-56.92-6.18-36.36-25.41-52.87-63.84-60.22-10.43-60.58-38.93-107.98-98.02-131.29-57.52-22.69-112.48-16.96-163.48,21.84-9.17-16.64-9.23-33.77-7.5-50.67,3.2-31.24,8.07-62.3,11.23-93.54,1.52-15.06,1.65-30.41.78-45.54-1.44-25.01-10.69-46.28-35.44-56.56-25.98-10.78-51.09-7.88-73.82,9.05-23.57,17.56-36.1,42.75-43.5,70.05-6.88,25.39-10.86,51.57-18,78.08-.23-6.7-.12-13.43-.77-20.09-1.33-13.67-2.29-27.45-4.81-40.92-4.8-25.58-17.92-44.37-44.99-50.45-28.94-6.51-53.84-.1-72.25,24.03-19,24.9-23.85,54.5-25.21,84.74-1.91,42.53,3.84,84.25,14.68,125.34.73,2.77,1.26,5.6,2.53,11.33ZM744.99,527.51c-6.39,13.53-11.21,25.34-17.34,36.41-24.26,43.78-70.95,44.34-96.47,1.29-3.23-5.45-5.99-11.3-8.1-17.27-8.74-24.69-2.33-45.41,17.57-58.07,19.78-12.58,32.46-10.03,53.9,11.9,13.4,13.7,27.96,24.7,50.43,25.74Z"/>
        <path class="cls-8" d="M242.8,417.85c-10.07-11.92-16.84-21.69-25.32-29.66-28.53-26.81-69.81-16.76-83.36,20.08-9.29,25.27-5.31,50.54,2.66,75.12,19.44,59.94,55.59,109.69,101.36,151.36,36.17,32.93,67.43,68.24,92.83,110.34,26.79,44.41,63.13,81.66,108.01,108.91,19.14,11.62,40.03,20.34,62.16,31.4.19,5.46-.55,13.83.93,21.79,6.2,33.34,31.49,53.51,69.59,52.44,19.83-.55,40.18-4.33,59.12-10.34,52.97-16.8,102.38-40.64,139.05-84.35,8.67-10.34,15.97-22.6,20.9-35.15,11.1-28.22,4.42-52.93-21.88-74.53,8.14-7.69,16.22-14.74,23.65-22.43,36.52-37.75,65.21-80.27,73.31-133.25,2.84-18.56,2.54-38.4-.61-56.92-6.18-36.36-25.41-52.87-63.84-60.22-10.43-60.58-38.93-107.98-98.02-131.29-57.52-22.69-112.48-16.96-163.48,21.84-9.17-16.64-9.23-33.77-7.5-50.67,3.2-31.24,8.07-62.3,11.23-93.54,1.52-15.06,1.65-30.41.78-45.54-1.44-25.01-10.69-46.28-35.44-56.56-25.98-10.78-51.09-7.88-73.82,9.05-23.57,17.56-36.1,42.75-43.5,70.05-6.88,25.39-10.86,51.57-18,78.08-.23-6.7-.12-13.43-.77-20.09-1.33-13.67-2.29-27.45-4.81-40.92-4.8-25.58-17.92-44.37-44.99-50.45-28.94-6.51-53.84-.1-72.25,24.03-19,24.9-23.85,54.5-25.21,84.74-1.91,42.53,3.84,84.25,14.68,125.34.73,2.77,1.26,5.6,2.53,11.33ZM744.99,527.51c-6.39,13.53-11.21,25.34-17.34,36.41-24.26,43.78-70.95,44.34-96.47,1.29-3.23-5.45-5.99-11.3-8.1-17.27-8.74-24.69-2.33-45.41,17.57-58.07,19.78-12.58,32.46-10.03,53.9,11.9,13.4,13.7,27.96,24.7,50.43,25.74Z"/>
        <path class="cls-5" d="M242.8,417.85c-10.07-11.92-16.84-21.69-25.32-29.66-28.53-26.81-69.81-16.76-83.36,20.08-9.29,25.27-5.31,50.54,2.66,75.12,19.44,59.94,55.59,109.69,101.36,151.36,36.17,32.93,67.43,68.24,92.83,110.34,26.79,44.41,63.13,81.66,108.01,108.91,19.14,11.62,40.03,20.34,62.16,31.4.19,5.46-.55,13.83.93,21.79,6.2,33.34,31.49,53.51,69.59,52.44,19.83-.55,40.18-4.33,59.12-10.34,52.97-16.8,102.38-40.64,139.05-84.35,8.67-10.34,15.97-22.6,20.9-35.15,11.1-28.22,4.42-52.93-21.88-74.53,8.14-7.69,16.22-14.74,23.65-22.43,36.52-37.75,65.21-80.27,73.31-133.25,2.84-18.56,2.54-38.4-.61-56.92-6.18-36.36-25.41-52.87-63.84-60.22-10.43-60.58-38.93-107.98-98.02-131.29-57.52-22.69-112.48-16.96-163.48,21.84-9.17-16.64-9.23-33.77-7.5-50.67,3.2-31.24,8.07-62.3,11.23-93.54,1.52-15.06,1.65-30.41.78-45.54-1.44-25.01-10.69-46.28-35.44-56.56-25.98-10.78-51.09-7.88-73.82,9.05-23.57,17.56-36.1,42.75-43.5,70.05-6.88,25.39-10.86,51.57-18,78.08-.23-6.7-.12-13.43-.77-20.09-1.33-13.67-2.29-27.45-4.81-40.92-4.8-25.58-17.92-44.37-44.99-50.45-28.94-6.51-53.84-.1-72.25,24.03-19,24.9-23.85,54.5-25.21,84.74-1.91,42.53,3.84,84.25,14.68,125.34.73,2.77,1.26,5.6,2.53,11.33ZM744.99,527.51c-6.39,13.53-11.21,25.34-17.34,36.41-24.26,43.78-70.95,44.34-96.47,1.29-3.23-5.45-5.99-11.3-8.1-17.27-8.74-24.69-2.33-45.41,17.57-58.07,19.78-12.58,32.46-10.03,53.9,11.9,13.4,13.7,27.96,24.7,50.43,25.74Z"/>
        <path class="cls-3" d="M242.8,417.85c-10.07-11.92-16.84-21.69-25.32-29.66-28.53-26.81-69.81-16.76-83.36,20.08-9.29,25.27-5.31,50.54,2.66,75.12,19.44,59.94,55.59,109.69,101.36,151.36,36.17,32.93,67.43,68.24,92.83,110.34,26.79,44.41,63.13,81.66,108.01,108.91,19.14,11.62,40.03,20.34,62.16,31.4.19,5.46-.55,13.83.93,21.79,6.2,33.34,31.49,53.51,69.59,52.44,19.83-.55,40.18-4.33,59.12-10.34,52.97-16.8,102.38-40.64,139.05-84.35,8.67-10.34,15.97-22.6,20.9-35.15,11.1-28.22,4.42-52.93-21.88-74.53,8.14-7.69,16.22-14.74,23.65-22.43,36.52-37.75,65.21-80.27,73.31-133.25,2.84-18.56,2.54-38.4-.61-56.92-6.18-36.36-25.41-52.87-63.84-60.22-10.43-60.58-38.93-107.98-98.02-131.29-57.52-22.69-112.48-16.96-163.48,21.84-9.17-16.64-9.23-33.77-7.5-50.67,3.2-31.24,8.07-62.3,11.23-93.54,1.52-15.06,1.65-30.41.78-45.54-1.44-25.01-10.69-46.28-35.44-56.56-25.98-10.78-51.09-7.88-73.82,9.05-23.57,17.56-36.1,42.75-43.5,70.05-6.88,25.39-10.86,51.57-18,78.08-.23-6.7-.12-13.43-.77-20.09-1.33-13.67-2.29-27.45-4.81-40.92-4.8-25.58-17.92-44.37-44.99-50.45-28.94-6.51-53.84-.1-72.25,24.03-19,24.9-23.85,54.5-25.21,84.74-1.91,42.53,3.84,84.25,14.68,125.34.73,2.77,1.26,5.6,2.53,11.33ZM744.99,527.51c-6.39,13.53-11.21,25.34-17.34,36.41-24.26,43.78-70.95,44.34-96.47,1.29-3.23-5.45-5.99-11.3-8.1-17.27-8.74-24.69-2.33-45.41,17.57-58.07,19.78-12.58,32.46-10.03,53.9,11.9,13.4,13.7,27.96,24.7,50.43,25.74Z"/>
      </g>
      <ellipse class="cls-2" cx="679.92" cy="548.27" rx="87.55" ry="65.67" transform="translate(-18.49 23.75) rotate(-1.97)"/>
    </g>
    <g>
      <path d="M242.8,417.85c-10.07-11.92-16.84-21.69-25.32-29.66-28.53-26.81-69.81-16.76-83.36,20.08-9.29,25.27-5.31,50.54,2.66,75.12,19.44,59.94,55.59,109.69,101.36,151.36,36.17,32.93,67.43,68.24,92.83,110.34,26.79,44.41,63.13,81.66,108.01,108.91,19.14,11.62,40.03,20.34,62.16,31.4.19,5.46-.55,13.83.93,21.79,6.2,33.34,31.49,53.51,69.59,52.44,19.83-.55,40.18-4.33,59.12-10.34,52.97-16.8,102.38-40.64,139.05-84.35,8.67-10.34,15.97-22.6,20.9-35.15,11.1-28.22,4.42-52.93-21.88-74.53,8.14-7.69,16.22-14.74,23.65-22.43,36.52-37.75,65.21-80.27,73.31-133.25,2.84-18.56,2.54-38.4-.61-56.92-6.18-36.36-25.41-52.87-63.84-60.22-10.43-60.58-38.93-107.98-98.02-131.29-57.52-22.69-112.48-16.96-163.48,21.84-9.17-16.64-9.23-33.77-7.5-50.67,3.2-31.24,8.07-62.3,11.23-93.54,1.52-15.06,1.65-30.41.78-45.54-1.44-25.01-10.69-46.28-35.44-56.56-25.98-10.78-51.09-7.88-73.82,9.05-23.57,17.56-36.1,42.75-43.5,70.05-6.88,25.39-10.86,51.57-18,78.08-.23-6.7-.12-13.43-.77-20.09-1.33-13.67-2.29-27.45-4.81-40.92-4.8-25.58-17.92-44.37-44.99-50.45-28.94-6.51-53.84-.1-72.25,24.03-19,24.9-23.85,54.5-25.21,84.74-1.91,42.53,3.84,84.25,14.68,125.34.73,2.77,1.26,5.6,2.53,11.33ZM533.95,889.87c11.69-1.08,22.02-4.05,21.26-17.65-.71-12.69-11.34-13.47-21.14-16.17-21.15-5.83-43.18-10.58-62.54-20.35-50.92-25.69-89.59-66.32-118.02-114.55-23.8-40.36-53.26-73.8-88.12-104.57-42.31-37.34-76.79-81.85-95.36-136.11-5.7-16.66-7.35-35.39-7.01-53.1.15-7.49,8.91-18.07,16.26-21.03,5.02-2.02,16.76,4.93,21.32,11,11.75,15.61,20.61,33.35,31.68,49.53,12.95,18.94,24.22,40.46,41.33,54.75,19.15,16,41.38,28.69,60.51,45.38,8.09,7.06,17.99,6.41,24.34-3.05,5.99-8.91,2.36-16.88-5.97-22.8-23.03-16.38-39.75-38.53-51.52-63.41-30.39-64.28-49.61-131.64-42.4-203.57,1.99-19.84,9.71-39.77,18.22-58.07,6.81-14.65,22.62-15.59,37.57-12.95,14.38,2.54,20.36,12.74,22.25,25.86,1.95,13.59,3.64,27.26,4.62,40.95,3.19,44.96,10.83,88.64,33.08,128.74,7.57,13.64,13.68,28.07,20.87,41.93,6.53,12.59,13.2,25.15,20.61,37.24,5.27,8.61,13.43,12.26,22.46,5.65,9.29-6.8,7.34-14.94,2.73-24.66-9.14-19.25-18.18-38.86-24.08-59.24-4.86-16.78-6.11-34.83-7.28-52.43-3.25-48.86-1.53-97.54,16.9-143.62,6-15,15.39-30.29,27.26-40.96,24.09-21.65,54.51-9.11,59.05,22.6.97,6.75,1.29,13.79.54,20.54-3.51,31.7-8.39,63.27-11.05,95.03-2.49,29.75-5.79,60.35,10.28,87.7,5.42,9.22,5.01,15.29-.36,23.6-7.91,12.26-6.27,23.63,3.43,27.83,13.04,5.64,18.64-3.44,23.65-13.12,13.89-26.83,35.73-44.26,64.73-51.63,67.84-17.23,140.04,12.43,161.84,91.22,1.9,6.85-.03,20.33-4.03,22.11-8.75,3.91-20.9,5.09-29.93,2.11-8.5-2.8-15.23-11.93-21.94-19.04-30.2-31.97-83.57-22.43-108.49,11.39-34.43,46.74-.48,128.4,59.4,144.09,21.21,5.56,40.81,1.77,59.16-9.81,18.42-11.62,31.52-27.73,40.73-47.34,6.66-14.2,12.76-28.82,20.98-42.09,10.11-16.31,30.39-16.84,41.86-1.48,4.84,6.47,8.22,14.59,10.26,22.48,7.51,28.96.78,56.57-10.36,83.24-23.07,55.25-67.65,93.28-108.91,133.76-11.19,10.98-15.32,18.91-8.17,26.85,9.86,10.96,19.25,5.6,28.29-1.7,1.15-.93,2.33-1.81,3.49-2.71,10.25-7.93,18.32-6.91,22.15,5.26,2.58,8.2,3.6,20.06-.53,26.58-10.6,16.71-22.51,33.65-37.42,46.35-34.93,29.75-76.6,47.38-121.11,57.8-11.34,2.65-23.38,3.93-34.99,3.43-22.9-1-33.53-13.71-32.36-37.78ZM744.99,527.51c-6.39,13.53-11.21,25.34-17.34,36.41-24.26,43.78-70.95,44.34-96.47,1.29-3.23-5.45-5.99-11.3-8.1-17.27-8.74-24.69-2.33-45.41,17.57-58.07,19.78-12.58,32.46-10.03,53.9,11.9,13.4,13.7,27.96,24.7,50.43,25.74Z"/>
      <path class="cls-8" d="M242.8,417.85c-10.07-11.92-16.84-21.69-25.32-29.66-28.53-26.81-69.81-16.76-83.36,20.08-9.29,25.27-5.31,50.54,2.66,75.12,19.44,59.94,55.59,109.69,101.36,151.36,36.17,32.93,67.43,68.24,92.83,110.34,26.79,44.41,63.13,81.66,108.01,108.91,19.14,11.62,40.03,20.34,62.16,31.4.19,5.46-.55,13.83.93,21.79,6.2,33.34,31.49,53.51,69.59,52.44,19.83-.55,40.18-4.33,59.12-10.34,52.97-16.8,102.38-40.64,139.05-84.35,8.67-10.34,15.97-22.6,20.9-35.15,11.1-28.22,4.42-52.93-21.88-74.53,8.14-7.69,16.22-14.74,23.65-22.43,36.52-37.75,65.21-80.27,73.31-133.25,2.84-18.56,2.54-38.4-.61-56.92-6.18-36.36-25.41-52.87-63.84-60.22-10.43-60.58-38.93-107.98-98.02-131.29-57.52-22.69-112.48-16.96-163.48,21.84-9.17-16.64-9.23-33.77-7.5-50.67,3.2-31.24,8.07-62.3,11.23-93.54,1.52-15.06,1.65-30.41.78-45.54-1.44-25.01-10.69-46.28-35.44-56.56-25.98-10.78-51.09-7.88-73.82,9.05-23.57,17.56-36.1,42.75-43.5,70.05-6.88,25.39-10.86,51.57-18,78.08-.23-6.7-.12-13.43-.77-20.09-1.33-13.67-2.29-27.45-4.81-40.92-4.8-25.58-17.92-44.37-44.99-50.45-28.94-6.51-53.84-.1-72.25,24.03-19,24.9-23.85,54.5-25.21,84.74-1.91,42.53,3.84,84.25,14.68,125.34.73,2.77,1.26,5.6,2.53,11.33ZM533.95,889.87c11.69-1.08,22.02-4.05,21.26-17.65-.71-12.69-11.34-13.47-21.14-16.17-21.15-5.83-43.18-10.58-62.54-20.35-50.92-25.69-89.59-66.32-118.02-114.55-23.8-40.36-53.26-73.8-88.12-104.57-42.31-37.34-76.79-81.85-95.36-136.11-5.7-16.66-7.35-35.39-7.01-53.1.15-7.49,8.91-18.07,16.26-21.03,5.02-2.02,16.76,4.93,21.32,11,11.75,15.61,20.61,33.35,31.68,49.53,12.95,18.94,24.22,40.46,41.33,54.75,19.15,16,41.38,28.69,60.51,45.38,8.09,7.06,17.99,6.41,24.34-3.05,5.99-8.91,2.36-16.88-5.97-22.8-23.03-16.38-39.75-38.53-51.52-63.41-30.39-64.28-49.61-131.64-42.4-203.57,1.99-19.84,9.71-39.77,18.22-58.07,6.81-14.65,22.62-15.59,37.57-12.95,14.38,2.54,20.36,12.74,22.25,25.86,1.95,13.59,3.64,27.26,4.62,40.95,3.19,44.96,10.83,88.64,33.08,128.74,7.57,13.64,13.68,28.07,20.87,41.93,6.53,12.59,13.2,25.15,20.61,37.24,5.27,8.61,13.43,12.26,22.46,5.65,9.29-6.8,7.34-14.94,2.73-24.66-9.14-19.25-18.18-38.86-24.08-59.24-4.86-16.78-6.11-34.83-7.28-52.43-3.25-48.86-1.53-97.54,16.9-143.62,6-15,15.39-30.29,27.26-40.96,24.09-21.65,54.51-9.11,59.05,22.6.97,6.75,1.29,13.79.54,20.54-3.51,31.7-8.39,63.27-11.05,95.03-2.49,29.75-5.79,60.35,10.28,87.7,5.42,9.22,5.01,15.29-.36,23.6-7.91,12.26-6.27,23.63,3.43,27.83,13.04,5.64,18.64-3.44,23.65-13.12,13.89-26.83,35.73-44.26,64.73-51.63,67.84-17.23,140.04,12.43,161.84,91.22,1.9,6.85-.03,20.33-4.03,22.11-8.75,3.91-20.9,5.09-29.93,2.11-8.5-2.8-15.23-11.93-21.94-19.04-30.2-31.97-83.57-22.43-108.49,11.39-34.43,46.74-.48,128.4,59.4,144.09,21.21,5.56,40.81,1.77,59.16-9.81,18.42-11.62,31.52-27.73,40.73-47.34,6.66-14.2,12.76-28.82,20.98-42.09,10.11-16.31,30.39-16.84,41.86-1.48,4.84,6.47,8.22,14.59,10.26,22.48,7.51,28.96.78,56.57-10.36,83.24-23.07,55.25-67.65,93.28-108.91,133.76-11.19,10.98-15.32,18.91-8.17,26.85,9.86,10.96,19.25,5.6,28.29-1.7,1.15-.93,2.33-1.81,3.49-2.71,10.25-7.93,18.32-6.91,22.15,5.26,2.58,8.2,3.6,20.06-.53,26.58-10.6,16.71-22.51,33.65-37.42,46.35-34.93,29.75-76.6,47.38-121.11,57.8-11.34,2.65-23.38,3.93-34.99,3.43-22.9-1-33.53-13.71-32.36-37.78ZM744.99,527.51c-6.39,13.53-11.21,25.34-17.34,36.41-24.26,43.78-70.95,44.34-96.47,1.29-3.23-5.45-5.99-11.3-8.1-17.27-8.74-24.69-2.33-45.41,17.57-58.07,19.78-12.58,32.46-10.03,53.9,11.9,13.4,13.7,27.96,24.7,50.43,25.74Z"/>
      <path class="cls-5" d="M242.8,417.85c-10.07-11.92-16.84-21.69-25.32-29.66-28.53-26.81-69.81-16.76-83.36,20.08-9.29,25.27-5.31,50.54,2.66,75.12,19.44,59.94,55.59,109.69,101.36,151.36,36.17,32.93,67.43,68.24,92.83,110.34,26.79,44.41,63.13,81.66,108.01,108.91,19.14,11.62,40.03,20.34,62.16,31.4.19,5.46-.55,13.83.93,21.79,6.2,33.34,31.49,53.51,69.59,52.44,19.83-.55,40.18-4.33,59.12-10.34,52.97-16.8,102.38-40.64,139.05-84.35,8.67-10.34,15.97-22.6,20.9-35.15,11.1-28.22,4.42-52.93-21.88-74.53,8.14-7.69,16.22-14.74,23.65-22.43,36.52-37.75,65.21-80.27,73.31-133.25,2.84-18.56,2.54-38.4-.61-56.92-6.18-36.36-25.41-52.87-63.84-60.22-10.43-60.58-38.93-107.98-98.02-131.29-57.52-22.69-112.48-16.96-163.48,21.84-9.17-16.64-9.23-33.77-7.5-50.67,3.2-31.24,8.07-62.3,11.23-93.54,1.52-15.06,1.65-30.41.78-45.54-1.44-25.01-10.69-46.28-35.44-56.56-25.98-10.78-51.09-7.88-73.82,9.05-23.57,17.56-36.1,42.75-43.5,70.05-6.88,25.39-10.86,51.57-18,78.08-.23-6.7-.12-13.43-.77-20.09-1.33-13.67-2.29-27.45-4.81-40.92-4.8-25.58-17.92-44.37-44.99-50.45-28.94-6.51-53.84-.1-72.25,24.03-19,24.9-23.85,54.5-25.21,84.74-1.91,42.53,3.84,84.25,14.68,125.34.73,2.77,1.26,5.6,2.53,11.33ZM533.95,889.87c11.69-1.08,22.02-4.05,21.26-17.65-.71-12.69-11.34-13.47-21.14-16.17-21.15-5.83-43.18-10.58-62.54-20.35-50.92-25.69-89.59-66.32-118.02-114.55-23.8-40.36-53.26-73.8-88.12-104.57-42.31-37.34-76.79-81.85-95.36-136.11-5.7-16.66-7.35-35.39-7.01-53.1.15-7.49,8.91-18.07,16.26-21.03,5.02-2.02,16.76,4.93,21.32,11,11.75,15.61,20.61,33.35,31.68,49.53,12.95,18.94,24.22,40.46,41.33,54.75,19.15,16,41.38,28.69,60.51,45.38,8.09,7.06,17.99,6.41,24.34-3.05,5.99-8.91,2.36-16.88-5.97-22.8-23.03-16.38-39.75-38.53-51.52-63.41-30.39-64.28-49.61-131.64-42.4-203.57,1.99-19.84,9.71-39.77,18.22-58.07,6.81-14.65,22.62-15.59,37.57-12.95,14.38,2.54,20.36,12.74,22.25,25.86,1.95,13.59,3.64,27.26,4.62,40.95,3.19,44.96,10.83,88.64,33.08,128.74,7.57,13.64,13.68,28.07,20.87,41.93,6.53,12.59,13.2,25.15,20.61,37.24,5.27,8.61,13.43,12.26,22.46,5.65,9.29-6.8,7.34-14.94,2.73-24.66-9.14-19.25-18.18-38.86-24.08-59.24-4.86-16.78-6.11-34.83-7.28-52.43-3.25-48.86-1.53-97.54,16.9-143.62,6-15,15.39-30.29,27.26-40.96,24.09-21.65,54.51-9.11,59.05,22.6.97,6.75,1.29,13.79.54,20.54-3.51,31.7-8.39,63.27-11.05,95.03-2.49,29.75-5.79,60.35,10.28,87.7,5.42,9.22,5.01,15.29-.36,23.6-7.91,12.26-6.27,23.63,3.43,27.83,13.04,5.64,18.64-3.44,23.65-13.12,13.89-26.83,35.73-44.26,64.73-51.63,67.84-17.23,140.04,12.43,161.84,91.22,1.9,6.85-.03,20.33-4.03,22.11-8.75,3.91-20.9,5.09-29.93,2.11-8.5-2.8-15.23-11.93-21.94-19.04-30.2-31.97-83.57-22.43-108.49,11.39-34.43,46.74-.48,128.4,59.4,144.09,21.21,5.56,40.81,1.77,59.16-9.81,18.42-11.62,31.52-27.73,40.73-47.34,6.66-14.2,12.76-28.82,20.98-42.09,10.11-16.31,30.39-16.84,41.86-1.48,4.84,6.47,8.22,14.59,10.26,22.48,7.51,28.96.78,56.57-10.36,83.24-23.07,55.25-67.65,93.28-108.91,133.76-11.19,10.98-15.32,18.91-8.17,26.85,9.86,10.96,19.25,5.6,28.29-1.7,1.15-.93,2.33-1.81,3.49-2.71,10.25-7.93,18.32-6.91,22.15,5.26,2.58,8.2,3.6,20.06-.53,26.58-10.6,16.71-22.51,33.65-37.42,46.35-34.93,29.75-76.6,47.38-121.11,57.8-11.34,2.65-23.38,3.93-34.99,3.43-22.9-1-33.53-13.71-32.36-37.78ZM744.99,527.51c-6.39,13.53-11.21,25.34-17.34,36.41-24.26,43.78-70.95,44.34-96.47,1.29-3.23-5.45-5.99-11.3-8.1-17.27-8.74-24.69-2.33-45.41,17.57-58.07,19.78-12.58,32.46-10.03,53.9,11.9,13.4,13.7,27.96,24.7,50.43,25.74Z"/>
      <path class="cls-1" d="M242.8,417.85c-10.07-11.92-16.84-21.69-25.32-29.66-28.53-26.81-69.81-16.76-83.36,20.08-9.29,25.27-5.31,50.54,2.66,75.12,19.44,59.94,55.59,109.69,101.36,151.36,36.17,32.93,67.43,68.24,92.83,110.34,26.79,44.41,63.13,81.66,108.01,108.91,19.14,11.62,40.03,20.34,62.16,31.4.19,5.46-.55,13.83.93,21.79,6.2,33.34,31.49,53.51,69.59,52.44,19.83-.55,40.18-4.33,59.12-10.34,52.97-16.8,102.38-40.64,139.05-84.35,8.67-10.34,15.97-22.6,20.9-35.15,11.1-28.22,4.42-52.93-21.88-74.53,8.14-7.69,16.22-14.74,23.65-22.43,36.52-37.75,65.21-80.27,73.31-133.25,2.84-18.56,2.54-38.4-.61-56.92-6.18-36.36-25.41-52.87-63.84-60.22-10.43-60.58-38.93-107.98-98.02-131.29-57.52-22.69-112.48-16.96-163.48,21.84-9.17-16.64-9.23-33.77-7.5-50.67,3.2-31.24,8.07-62.3,11.23-93.54,1.52-15.06,1.65-30.41.78-45.54-1.44-25.01-10.69-46.28-35.44-56.56-25.98-10.78-51.09-7.88-73.82,9.05-23.57,17.56-36.1,42.75-43.5,70.05-6.88,25.39-10.86,51.57-18,78.08-.23-6.7-.12-13.43-.77-20.09-1.33-13.67-2.29-27.45-4.81-40.92-4.8-25.58-17.92-44.37-44.99-50.45-28.94-6.51-53.84-.1-72.25,24.03-19,24.9-23.85,54.5-25.21,84.74-1.91,42.53,3.84,84.25,14.68,125.34.73,2.77,1.26,5.6,2.53,11.33ZM533.95,889.87c11.69-1.08,22.02-4.05,21.26-17.65-.71-12.69-11.34-13.47-21.14-16.17-21.15-5.83-43.18-10.58-62.54-20.35-50.92-25.69-89.59-66.32-118.02-114.55-23.8-40.36-53.26-73.8-88.12-104.57-42.31-37.34-76.79-81.85-95.36-136.11-5.7-16.66-7.35-35.39-7.01-53.1.15-7.49,8.91-18.07,16.26-21.03,5.02-2.02,16.76,4.93,21.32,11,11.75,15.61,20.61,33.35,31.68,49.53,12.95,18.94,24.22,40.46,41.33,54.75,19.15,16,41.38,28.69,60.51,45.38,8.09,7.06,17.99,6.41,24.34-3.05,5.99-8.91,2.36-16.88-5.97-22.8-23.03-16.38-39.75-38.53-51.52-63.41-30.39-64.28-49.61-131.64-42.4-203.57,1.99-19.84,9.71-39.77,18.22-58.07,6.81-14.65,22.62-15.59,37.57-12.95,14.38,2.54,20.36,12.74,22.25,25.86,1.95,13.59,3.64,27.26,4.62,40.95,3.19,44.96,10.83,88.64,33.08,128.74,7.57,13.64,13.68,28.07,20.87,41.93,6.53,12.59,13.2,25.15,20.61,37.24,5.27,8.61,13.43,12.26,22.46,5.65,9.29-6.8,7.34-14.94,2.73-24.66-9.14-19.25-18.18-38.86-24.08-59.24-4.86-16.78-6.11-34.83-7.28-52.43-3.25-48.86-1.53-97.54,16.9-143.62,6-15,15.39-30.29,27.26-40.96,24.09-21.65,54.51-9.11,59.05,22.6.97,6.75,1.29,13.79.54,20.54-3.51,31.7-8.39,63.27-11.05,95.03-2.49,29.75-5.79,60.35,10.28,87.7,5.42,9.22,5.01,15.29-.36,23.6-7.91,12.26-6.27,23.63,3.43,27.83,13.04,5.64,18.64-3.44,23.65-13.12,13.89-26.83,35.73-44.26,64.73-51.63,67.84-17.23,140.04,12.43,161.84,91.22,1.9,6.85-.03,20.33-4.03,22.11-8.75,3.91-20.9,5.09-29.93,2.11-8.5-2.8-15.23-11.93-21.94-19.04-30.2-31.97-83.57-22.43-108.49,11.39-34.43,46.74-.48,128.4,59.4,144.09,21.21,5.56,40.81,1.77,59.16-9.81,18.42-11.62,31.52-27.73,40.73-47.34,6.66-14.2,12.76-28.82,20.98-42.09,10.11-16.31,30.39-16.84,41.86-1.48,4.84,6.47,8.22,14.59,10.26,22.48,7.51,28.96.78,56.57-10.36,83.24-23.07,55.25-67.65,93.28-108.91,133.76-11.19,10.98-15.32,18.91-8.17,26.85,9.86,10.96,19.25,5.6,28.29-1.7,1.15-.93,2.33-1.81,3.49-2.71,10.25-7.93,18.32-6.91,22.15,5.26,2.58,8.2,3.6,20.06-.53,26.58-10.6,16.71-22.51,33.65-37.42,46.35-34.93,29.75-76.6,47.38-121.11,57.8-11.34,2.65-23.38,3.93-34.99,3.43-22.9-1-33.53-13.71-32.36-37.78ZM744.99,527.51c-6.39,13.53-11.21,25.34-17.34,36.41-24.26,43.78-70.95,44.34-96.47,1.29-3.23-5.45-5.99-11.3-8.1-17.27-8.74-24.69-2.33-45.41,17.57-58.07,19.78-12.58,32.46-10.03,53.9,11.9,13.4,13.7,27.96,24.7,50.43,25.74Z"/>
    </g>
  </g>
  <g>
    <path class="cls-6" d="M960.43,294.72c14.55,25.5,27.84,48.81,41.83,73.33-49.69,28.51-97.95,56.19-147.88,84.83-13.85-21.86-26.93-42.52-41.19-65.03,49.16-31.09,97.1-61.41,147.24-93.12Z"/>
    <path class="cls-1" d="M960.43,294.72c14.55,25.5,27.84,48.81,41.83,73.33-49.69,28.51-97.95,56.19-147.88,84.83-13.85-21.86-26.93-42.52-41.19-65.03,49.16-31.09,97.1-61.41,147.24-93.12Z"/>
  </g>
  <g>
    <path class="cls-4" d="M887.91,538.63c.83-15.65,1.58-29.78,2.42-45.59,30.65,1.55,60.85,3.08,92.46,4.67-1.92,17.56-3.74,34.2-5.66,51.78-29.95-3.65-59.02-7.19-89.22-10.87Z"/>
    <path class="cls-1" d="M887.91,538.63c.83-15.65,1.58-29.78,2.42-45.59,30.65,1.55,60.85,3.08,92.46,4.67-1.92,17.56-3.74,34.2-5.66,51.78-29.95-3.65-59.02-7.19-89.22-10.87Z"/>
  </g>
  <g>
    <path class="cls-7" d="M786.11,349.17c-15.17-6.69-28.87-12.72-44.18-19.48,13.02-29.73,25.85-59.04,39.27-89.7,16.65,8.48,32.42,16.51,49.1,25-14.83,28.26-29.23,55.68-44.19,84.18Z"/>
    <path class="cls-1" d="M786.11,349.17c-15.17-6.69-28.87-12.72-44.18-19.48,13.02-29.73,25.85-59.04,39.27-89.7,16.65,8.48,32.42,16.51,49.1,25-14.83,28.26-29.23,55.68-44.19,84.18Z"/>
  </g>
</svg>
