<?xml version="1.0" encoding="UTF-8"?>
<svg xmlns="http://www.w3.org/2000/svg" version="1.1" viewBox="40 180 1820 720">
  <defs>
    <style>
      .cls-1 {
        fill: #007936;
      }

      .cls-2 {
        stroke-width: 57.3px;
      }

      .cls-2, .cls-3, .cls-4, .cls-5, .cls-6 {
        fill: none;
      }

      .cls-2, .cls-3, .cls-4, .cls-5, .cls-6, .cls-7 {
        stroke: #fff;
      }

      .cls-8, .cls-7 {
        fill: #fff;
      }

      .cls-3 {
        stroke-width: 59.1px;
      }

      .cls-3, .cls-4, .cls-5 {
        stroke-linecap: round;
        stroke-linejoin: round;
      }

      .cls-4 {
        stroke-width: 35.6px;
      }

      .cls-5 {
        stroke-width: 23.3px;
      }

      .cls-6 {
        stroke-width: 1.2px;
      }

      .cls-7 {
        stroke-miterlimit: 4;
        stroke-width: 1.2px;
      }
    </style>
  </defs>
  <!-- Generator: Adobe Illustrator 28.7.8, SVG Export Plug-In . SVG Version: 1.2.0 Build 200)  -->
  <g>
    <g id="_Шар_1">
      <g>
        <polygon class="cls-8" points="603.6 435.6 621 708.8 616.6 714.4 621.9 722.9 623.5 747.4 1525.2 875.6 1545.9 416.1 603.6 435.6"/>
        <g>
          <g>
            <path class="cls-8" d="M1007.5,212c36,0,51.1,16,51.1,59.5v200.8c0,43.5-15.1,59.5-51.1,59.5h-9.3c-36,0-51.1-16-51.1-59.5v-123.1l-45.3,156.4c-6.2,20.9-17.8,26.2-35.1,26.2h-7.1c-18.2,0-32.4-6.7-39.1-27.5l-49.8-154.6v122.6c0,15.5-.9,29.3-5.8,39.1-6.7,13.3-20,20.4-34.2,20.4h-7.1c-14.2,0-27.5-7.1-34.2-20.4-4.9-9.8-5.8-23.5-5.8-39.1v-200.8c0-43.5,15.1-59.5,51.5-59.5h63.1c23.5,0,37.3,5.3,45.8,29.3l31.1,90.2,26.2-90.6c6.7-22.7,21.3-28.9,47.1-28.9h59.1Z"/>
            <path class="cls-8" d="M1085.2,348.9c0-30.7,18.2-45.8,41.3-45.8h11.6c23.1,0,41.3,15.1,41.3,45.8v137.3c0,30.7-18.2,45.8-41.3,45.8h-11.6c-23.1,0-41.3-15.1-41.3-45.8v-137.3ZM1092.3,250.2c0-20.9,17.8-38.2,40-38.2s40,17.3,40,38.2-18.2,39.1-40,39.1-40-17.3-40-39.1Z"/>
            <path class="cls-8" d="M1324.7,303.1c17.3,0,20.9,12.9,20.9,33.3v6.7c0,20.4-3.6,33.3-20.9,33.3h-10.7v74.6c12,.9,21.3,8.9,21.3,23.5,0,21.3-10.2,57.3-57.8,57.3s-57.8-22.7-57.8-69.3v-86.2h-6.2c-17.3,0-20.9-12.9-20.9-33.3v-6.7c0-20.4,3.6-33.3,20.9-33.3h6.2v-21.3c0-26.2,16.4-28,27.1-40.4,10.7-12.4,11.6-29.3,35.1-29.3s32,20.4,32,45.8v45.3h10.7Z"/>
            <path class="cls-8" d="M1455.3,332.9c14.7-18.2,36-29.8,60.4-29.8s73.8,23.1,73.8,82.6v100.4c0,30.7-18.2,45.8-41.3,45.8h-11.6c-23.1,0-41.3-15.1-41.3-45.8v-79.1c0-13.8-5.3-23.5-16.4-23.5s-23.6,11.1-23.6,36.9v65.8c0,30.7-18.2,45.8-41.3,45.8h-11.6c-23.1,0-41.3-15.1-41.3-45.8v-228.4c0-30.7,18.2-45.8,41.3-45.8h11.6c23.1,0,41.3,15.1,41.3,45.8v75.1h0Z"/>
            <path class="cls-8" d="M1607.3,417.8c0-67.5,51.5-114.6,114.6-114.6s114.6,47.1,114.6,114.6-51.5,114.2-114.6,114.2-114.6-47.1-114.6-114.2ZM1743.7,417.8c0-22.7-8-36.4-21.8-36.4s-21.8,13.8-21.8,36.4,8,36.9,21.8,36.9,21.8-13.8,21.8-36.9Z"/>
            <path class="cls-8" d="M829.3,876.9c-43.1,0-83.1-13.3-114.2-46.2-28.4-30.2-40.4-68-40.4-112v-3.6c0-43.1,11.5-81.3,40.4-112,30.7-32.4,71.1-46.2,114.2-46.2h9.3c81.8,0,117.3,48.9,117.3,87.1s-16.4,44.9-41.3,44.9-34.2-10.2-43.1-26.2c-9.8-17.3-22.7-23.5-41.3-23.5s-28.9,4.9-37.8,16.9c-8.9,12-11.5,31.5-11.5,52.4v16.9c0,21.8,3.5,40.9,11.5,52.4,9.3,13.3,22.2,16.9,37.3,16.9s32-5.3,41.3-23.5c8-15.5,17.8-26.2,43.1-26.2s41.3,17.3,41.3,44.9c0,39.1-35.1,87.1-116.9,87.1h-9.3,0Z"/>
            <path class="cls-8" d="M1072.3,677.9c14.7-18.2,36-29.8,60.4-29.8s73.8,23.1,73.8,82.6v100.4c0,30.7-18.2,45.8-41.3,45.8h-11.6c-23.1,0-41.3-15.1-41.3-45.8v-79.1c0-13.8-5.3-23.5-16.4-23.5s-23.6,11.1-23.6,36.9v65.8c0,30.7-18.2,45.8-41.3,45.8h-11.5c-23.1,0-41.3-15.1-41.3-45.8v-228.4c0-30.7,18.2-45.8,41.3-45.8h11.5c23.1,0,41.3,15.1,41.3,45.8v75.1h0Z"/>
            <path class="cls-8" d="M1446,799.6c20.4,0,35.1,7.1,35.1,35.5v6.2c0,23.1-7.1,35.5-40,35.5h-27.1c-25.3,0-48-5.8-57.8-26.2-11.1,11.5-35.1,26.2-68.4,26.2s-63.5-12.9-63.5-55.1,47.5-63.5,84.9-73.3c24.4-6.7,44.4-12,44.4-25.8s-5.8-16-20.4-16c-32,0-33.8,36-72,36s-32.4-12-32.4-30.2c0-27.1,31.6-64.4,111.5-64.4s105.8,24.9,105.8,88.4v63.1h0ZM1358,765c-20.9,17.8-47.5,16-47.5,34.2s4.4,12.9,12.4,12.9c13.3,0,35.1-18.2,35.1-47.1h0Z"/>
            <path class="cls-8" d="M1560.2,557c24.4,0,33.3,10.7,28.4,36l-37.3,186.2c-.9,3.6-12.9,3.6-13.8,0l-37.3-186.2c-4.9-25.3,5.3-36,29.8-36h30.2ZM1506,833.8c0-22.2,13.3-35.5,34.7-35.5h7.6c21.3,0,34.2,13.3,34.2,35.5v8c0,21.8-12.9,35.1-34.2,35.1h-7.6c-21.3,0-34.7-13.3-34.7-35.1v-8Z"/>
          </g>
          <g>
            <path class="cls-2" d="M1007.5,212c36,0,51.1,16,51.1,59.5v200.8c0,43.5-15.1,59.5-51.1,59.5h-9.3c-36,0-51.1-16-51.1-59.5v-123.1l-45.3,156.4c-6.2,20.9-17.8,26.2-35.1,26.2h-7.1c-18.2,0-32.4-6.7-39.1-27.5l-49.8-154.6v122.6c0,15.5-.9,29.3-5.8,39.1-6.7,13.3-20,20.4-34.2,20.4h-7.1c-14.2,0-27.5-7.1-34.2-20.4-4.9-9.8-5.8-23.5-5.8-39.1v-200.8c0-43.5,15.1-59.5,51.5-59.5h63.1c23.5,0,37.3,5.3,45.8,29.3l31.1,90.2,26.2-90.6c6.7-22.7,21.3-28.9,47.1-28.9h59.1Z"/>
            <path class="cls-2" d="M1085.2,348.9c0-30.7,18.2-45.8,41.3-45.8h11.6c23.1,0,41.3,15.1,41.3,45.8v137.3c0,30.7-18.2,45.8-41.3,45.8h-11.6c-23.1,0-41.3-15.1-41.3-45.8v-137.3ZM1092.3,250.2c0-20.9,17.8-38.2,40-38.2s40,17.3,40,38.2-18.2,39.1-40,39.1-40-17.3-40-39.1Z"/>
            <path class="cls-2" d="M1324.7,303.1c17.3,0,20.9,12.9,20.9,33.3v6.7c0,20.4-3.6,33.3-20.9,33.3h-10.7v74.6c12,.9,21.3,8.9,21.3,23.5,0,21.3-10.2,57.3-57.8,57.3s-57.8-22.7-57.8-69.3v-86.2h-6.2c-17.3,0-20.9-12.9-20.9-33.3v-6.7c0-20.4,3.6-33.3,20.9-33.3h6.2v-21.3c0-26.2,16.4-28,27.1-40.4,10.7-12.4,11.6-29.3,35.1-29.3s32,20.4,32,45.8v45.3h10.7Z"/>
            <path class="cls-2" d="M1455.3,332.9c14.7-18.2,36-29.8,60.4-29.8s73.8,23.1,73.8,82.6v100.4c0,30.7-18.2,45.8-41.3,45.8h-11.6c-23.1,0-41.3-15.1-41.3-45.8v-79.1c0-13.8-5.3-23.5-16.4-23.5s-23.6,11.1-23.6,36.9v65.8c0,30.7-18.2,45.8-41.3,45.8h-11.6c-23.1,0-41.3-15.1-41.3-45.8v-228.4c0-30.7,18.2-45.8,41.3-45.8h11.6c23.1,0,41.3,15.1,41.3,45.8v75.1h0Z"/>
            <path class="cls-2" d="M1607.3,417.8c0-67.5,51.5-114.6,114.6-114.6s114.6,47.1,114.6,114.6-51.5,114.2-114.6,114.2-114.6-47.1-114.6-114.2ZM1743.7,417.8c0-22.7-8-36.4-21.8-36.4s-21.8,13.8-21.8,36.4,8,36.9,21.8,36.9,21.8-13.8,21.8-36.9Z"/>
            <path class="cls-2" d="M829.3,876.9c-43.1,0-83.1-13.3-114.2-46.2-28.4-30.2-40.4-68-40.4-112v-3.6c0-43.1,11.5-81.3,40.4-112,30.7-32.4,71.1-46.2,114.2-46.2h9.3c81.8,0,117.3,48.9,117.3,87.1s-16.4,44.9-41.3,44.9-34.2-10.2-43.1-26.2c-9.8-17.3-22.7-23.5-41.3-23.5s-28.9,4.9-37.8,16.9c-8.9,12-11.5,31.5-11.5,52.4v16.9c0,21.8,3.5,40.9,11.5,52.4,9.3,13.3,22.2,16.9,37.3,16.9s32-5.3,41.3-23.5c8-15.5,17.8-26.2,43.1-26.2s41.3,17.3,41.3,44.9c0,39.1-35.1,87.1-116.9,87.1h-9.3,0Z"/>
            <path class="cls-2" d="M1072.3,677.9c14.7-18.2,36-29.8,60.4-29.8s73.8,23.1,73.8,82.6v100.4c0,30.7-18.2,45.8-41.3,45.8h-11.6c-23.1,0-41.3-15.1-41.3-45.8v-79.1c0-13.8-5.3-23.5-16.4-23.5s-23.6,11.1-23.6,36.9v65.8c0,30.7-18.2,45.8-41.3,45.8h-11.5c-23.1,0-41.3-15.1-41.3-45.8v-228.4c0-30.7,18.2-45.8,41.3-45.8h11.5c23.1,0,41.3,15.1,41.3,45.8v75.1h0Z"/>
            <path class="cls-2" d="M1446,799.6c20.4,0,35.1,7.1,35.1,35.5v6.2c0,23.1-7.1,35.5-40,35.5h-27.1c-25.3,0-48-5.8-57.8-26.2-11.1,11.5-35.1,26.2-68.4,26.2s-63.5-12.9-63.5-55.1,47.5-63.5,84.9-73.3c24.4-6.7,44.4-12,44.4-25.8s-5.8-16-20.4-16c-32,0-33.8,36-72,36s-32.4-12-32.4-30.2c0-27.1,31.6-64.4,111.5-64.4s105.8,24.9,105.8,88.4v63.1h0ZM1358,765c-20.9,17.8-47.5,16-47.5,34.2s4.4,12.9,12.4,12.9c13.3,0,35.1-18.2,35.1-47.1h0Z"/>
            <path class="cls-2" d="M1560.2,557c24.4,0,33.3,10.7,28.4,36l-37.3,186.2c-.9,3.6-12.9,3.6-13.8,0l-37.3-186.2c-4.9-25.3,5.3-36,29.8-36h30.2ZM1506,833.8c0-22.2,13.3-35.5,34.7-35.5h7.6c21.3,0,34.2,13.3,34.2,35.5v8c0,21.8-12.9,35.1-34.2,35.1h-7.6c-21.3,0-34.7-13.3-34.7-35.1v-8Z"/>
          </g>
          <g>
            <path class="cls-1" d="M1007.5,212c36,0,51.1,16,51.1,59.5v200.8c0,43.5-15.1,59.5-51.1,59.5h-9.3c-36,0-51.1-16-51.1-59.5v-123.1l-45.3,156.4c-6.2,20.9-17.8,26.2-35.1,26.2h-7.1c-18.2,0-32.4-6.7-39.1-27.5l-49.8-154.6v122.6c0,15.5-.9,29.3-5.8,39.1-6.7,13.3-20,20.4-34.2,20.4h-7.1c-14.2,0-27.5-7.1-34.2-20.4-4.9-9.8-5.8-23.5-5.8-39.1v-200.8c0-43.5,15.1-59.5,51.5-59.5h63.1c23.5,0,37.3,5.3,45.8,29.3l31.1,90.2,26.2-90.6c6.7-22.7,21.3-28.9,47.1-28.9h59.1Z"/>
            <path class="cls-1" d="M1085.2,348.9c0-30.7,18.2-45.8,41.3-45.8h11.6c23.1,0,41.3,15.1,41.3,45.8v137.3c0,30.7-18.2,45.8-41.3,45.8h-11.6c-23.1,0-41.3-15.1-41.3-45.8v-137.3ZM1092.3,250.2c0-20.9,17.8-38.2,40-38.2s40,17.3,40,38.2-18.2,39.1-40,39.1-40-17.3-40-39.1Z"/>
            <path class="cls-1" d="M1324.7,303.1c17.3,0,20.9,12.9,20.9,33.3v6.7c0,20.4-3.6,33.3-20.9,33.3h-10.7v74.6c12,.9,21.3,8.9,21.3,23.5,0,21.3-10.2,57.3-57.8,57.3s-57.8-22.7-57.8-69.3v-86.2h-6.2c-17.3,0-20.9-12.9-20.9-33.3v-6.7c0-20.4,3.6-33.3,20.9-33.3h6.2v-21.3c0-26.2,16.4-28,27.1-40.4,10.7-12.4,11.6-29.3,35.1-29.3s32,20.4,32,45.8v45.3h10.7Z"/>
            <path class="cls-1" d="M1455.3,332.9c14.7-18.2,36-29.8,60.4-29.8s73.8,23.1,73.8,82.6v100.4c0,30.7-18.2,45.8-41.3,45.8h-11.6c-23.1,0-41.3-15.1-41.3-45.8v-79.1c0-13.8-5.3-23.5-16.4-23.5s-23.6,11.1-23.6,36.9v65.8c0,30.7-18.2,45.8-41.3,45.8h-11.6c-23.1,0-41.3-15.1-41.3-45.8v-228.4c0-30.7,18.2-45.8,41.3-45.8h11.6c23.1,0,41.3,15.1,41.3,45.8v75.1h0Z"/>
            <path class="cls-1" d="M1607.3,417.8c0-67.5,51.5-114.6,114.6-114.6s114.6,47.1,114.6,114.6-51.5,114.2-114.6,114.2-114.6-47.1-114.6-114.2ZM1743.7,417.8c0-22.7-8-36.4-21.8-36.4s-21.8,13.8-21.8,36.4,8,36.9,21.8,36.9,21.8-13.8,21.8-36.9Z"/>
            <path class="cls-1" d="M829.3,876.9c-43.1,0-83.1-13.3-114.2-46.2-28.4-30.2-40.4-68-40.4-112v-3.6c0-43.1,11.5-81.3,40.4-112,30.7-32.4,71.1-46.2,114.2-46.2h9.3c81.8,0,117.3,48.9,117.3,87.1s-16.4,44.9-41.3,44.9-34.2-10.2-43.1-26.2c-9.8-17.3-22.7-23.5-41.3-23.5s-28.9,4.9-37.8,16.9c-8.9,12-11.5,31.5-11.5,52.4v16.9c0,21.8,3.5,40.9,11.5,52.4,9.3,13.3,22.2,16.9,37.3,16.9s32-5.3,41.3-23.5c8-15.5,17.8-26.2,43.1-26.2s41.3,17.3,41.3,44.9c0,39.1-35.1,87.1-116.9,87.1h-9.3,0Z"/>
            <path class="cls-1" d="M1072.3,677.9c14.7-18.2,36-29.8,60.4-29.8s73.8,23.1,73.8,82.6v100.4c0,30.7-18.2,45.8-41.3,45.8h-11.6c-23.1,0-41.3-15.1-41.3-45.8v-79.1c0-13.8-5.3-23.5-16.4-23.5s-23.6,11.1-23.6,36.9v65.8c0,30.7-18.2,45.8-41.3,45.8h-11.5c-23.1,0-41.3-15.1-41.3-45.8v-228.4c0-30.7,18.2-45.8,41.3-45.8h11.5c23.1,0,41.3,15.1,41.3,45.8v75.1h0Z"/>
            <path class="cls-1" d="M1446,799.6c20.4,0,35.1,7.1,35.1,35.5v6.2c0,23.1-7.1,35.5-40,35.5h-27.1c-25.3,0-48-5.8-57.8-26.2-11.1,11.5-35.1,26.2-68.4,26.2s-63.5-12.9-63.5-55.1,47.5-63.5,84.9-73.3c24.4-6.7,44.4-12,44.4-25.8s-5.8-16-20.4-16c-32,0-33.8,36-72,36s-32.4-12-32.4-30.2c0-27.1,31.6-64.4,111.5-64.4s105.8,24.9,105.8,88.4v63.1h0ZM1358,765c-20.9,17.8-47.5,16-47.5,34.2s4.4,12.9,12.4,12.9c13.3,0,35.1-18.2,35.1-47.1h0Z"/>
            <path class="cls-1" d="M1560.2,557c24.4,0,33.3,10.7,28.4,36l-37.3,186.2c-.9,3.6-12.9,3.6-13.8,0l-37.3-186.2c-4.9-25.3,5.3-36,29.8-36h30.2ZM1506,833.8c0-22.2,13.3-35.5,34.7-35.5h7.6c21.3,0,34.2,13.3,34.2,35.5v8c0,21.8-12.9,35.1-34.2,35.1h-7.6c-21.3,0-34.7-13.3-34.7-35.1v-8Z"/>
          </g>
        </g>
        <g>
          <g>
            <g>
              <g>
                <path d="M173.2,437.2c-7.9-9.4-13.3-17.1-19.9-23.3-22.4-21.1-54.9-13.2-65.6,15.8-7.3,19.9-4.2,39.8,2.1,59.1,15.3,47.2,43.8,86.3,79.8,119.1,28.5,25.9,53.1,53.7,73.1,86.8,21.1,35,49.7,64.3,85,85.7,15.1,9.1,31.5,16,48.9,24.7.1,4.3-.4,10.9.7,17.2,4.9,26.2,24.8,42.1,54.8,41.3,15.6-.4,31.6-3.4,46.5-8.1,41.7-13.2,80.6-32,109.4-66.4,6.8-8.1,12.6-17.8,16.5-27.7,8.7-22.2,3.5-41.7-17.2-58.7,6.4-6,12.8-11.6,18.6-17.7,28.7-29.7,51.3-63.2,57.7-104.9,2.2-14.6,2-30.2-.5-44.8-4.9-28.6-20-41.6-50.2-47.4-8.2-47.7-30.6-85-77.1-103.3-45.3-17.9-88.5-13.4-128.7,17.2-7.2-13.1-7.3-26.6-5.9-39.9,2.5-24.6,6.4-49,8.8-73.6,1.2-11.9,1.3-23.9.6-35.8-1.1-19.7-8.4-36.4-27.9-44.5-20.4-8.5-40.2-6.2-58.1,7.1-18.5,13.8-28.4,33.6-34.2,55.1-5.4,20-8.5,40.6-14.2,61.5-.2-5.3,0-10.6-.6-15.8-1-10.8-1.8-21.6-3.8-32.2-3.8-20.1-14.1-34.9-35.4-39.7-22.8-5.1-42.4,0-56.9,18.9-15,19.6-18.8,42.9-19.8,66.7-1.5,33.5,3,66.3,11.6,98.6.6,2.2,1,4.4,2,8.9h0ZM568.5,523.5c-5,10.6-8.8,19.9-13.7,28.7-19.1,34.5-55.8,34.9-75.9,1-2.5-4.3-4.7-8.9-6.4-13.6-6.9-19.4-1.8-35.7,13.8-45.7,15.6-9.9,25.5-7.9,42.4,9.4,10.5,10.8,22,19.4,39.7,20.3h0Z"/>
                <path class="cls-6" d="M173.2,437.2c-7.9-9.4-13.3-17.1-19.9-23.3-22.4-21.1-54.9-13.2-65.6,15.8-7.3,19.9-4.2,39.8,2.1,59.1,15.3,47.2,43.8,86.3,79.8,119.1,28.5,25.9,53.1,53.7,73.1,86.8,21.1,35,49.7,64.3,85,85.7,15.1,9.1,31.5,16,48.9,24.7.1,4.3-.4,10.9.7,17.2,4.9,26.2,24.8,42.1,54.8,41.3,15.6-.4,31.6-3.4,46.5-8.1,41.7-13.2,80.6-32,109.4-66.4,6.8-8.1,12.6-17.8,16.5-27.7,8.7-22.2,3.5-41.7-17.2-58.7,6.4-6,12.8-11.6,18.6-17.7,28.7-29.7,51.3-63.2,57.7-104.9,2.2-14.6,2-30.2-.5-44.8-4.9-28.6-20-41.6-50.2-47.4-8.2-47.7-30.6-85-77.1-103.3-45.3-17.9-88.5-13.4-128.7,17.2-7.2-13.1-7.3-26.6-5.9-39.9,2.5-24.6,6.4-49,8.8-73.6,1.2-11.9,1.3-23.9.6-35.8-1.1-19.7-8.4-36.4-27.9-44.5-20.4-8.5-40.2-6.2-58.1,7.1-18.5,13.8-28.4,33.6-34.2,55.1-5.4,20-8.5,40.6-14.2,61.5-.2-5.3,0-10.6-.6-15.8-1-10.8-1.8-21.6-3.8-32.2-3.8-20.1-14.1-34.9-35.4-39.7-22.8-5.1-42.4,0-56.9,18.9-15,19.6-18.8,42.9-19.8,66.7-1.5,33.5,3,66.3,11.6,98.6.6,2.2,1,4.4,2,8.9h0ZM568.5,523.5c-5,10.6-8.8,19.9-13.7,28.7-19.1,34.5-55.8,34.9-75.9,1-2.5-4.3-4.7-8.9-6.4-13.6-6.9-19.4-1.8-35.7,13.8-45.7,15.6-9.9,25.5-7.9,42.4,9.4,10.5,10.8,22,19.4,39.7,20.3h0Z"/>
                <path class="cls-3" d="M173.2,437.2c-7.9-9.4-13.3-17.1-19.9-23.3-22.4-21.1-54.9-13.2-65.6,15.8-7.3,19.9-4.2,39.8,2.1,59.1,15.3,47.2,43.8,86.3,79.8,119.1,28.5,25.9,53.1,53.7,73.1,86.8,21.1,35,49.7,64.3,85,85.7,15.1,9.1,31.5,16,48.9,24.7.1,4.3-.4,10.9.7,17.2,4.9,26.2,24.8,42.1,54.8,41.3,15.6-.4,31.6-3.4,46.5-8.1,41.7-13.2,80.6-32,109.4-66.4,6.8-8.1,12.6-17.8,16.5-27.7,8.7-22.2,3.5-41.7-17.2-58.7,6.4-6,12.8-11.6,18.6-17.7,28.7-29.7,51.3-63.2,57.7-104.9,2.2-14.6,2-30.2-.5-44.8-4.9-28.6-20-41.6-50.2-47.4-8.2-47.7-30.6-85-77.1-103.3-45.3-17.9-88.5-13.4-128.7,17.2-7.2-13.1-7.3-26.6-5.9-39.9,2.5-24.6,6.4-49,8.8-73.6,1.2-11.9,1.3-23.9.6-35.8-1.1-19.7-8.4-36.4-27.9-44.5-20.4-8.5-40.2-6.2-58.1,7.1-18.5,13.8-28.4,33.6-34.2,55.1-5.4,20-8.5,40.6-14.2,61.5-.2-5.3,0-10.6-.6-15.8-1-10.8-1.8-21.6-3.8-32.2-3.8-20.1-14.1-34.9-35.4-39.7-22.8-5.1-42.4,0-56.9,18.9-15,19.6-18.8,42.9-19.8,66.7-1.5,33.5,3,66.3,11.6,98.6.6,2.2,1,4.4,2,8.9h0ZM568.5,523.5c-5,10.6-8.8,19.9-13.7,28.7-19.1,34.5-55.8,34.9-75.9,1-2.5-4.3-4.7-8.9-6.4-13.6-6.9-19.4-1.8-35.7,13.8-45.7,15.6-9.9,25.5-7.9,42.4,9.4,10.5,10.8,22,19.4,39.7,20.3h0Z"/>
                <path class="cls-8" d="M173.2,437.2c-7.9-9.4-13.3-17.1-19.9-23.3-22.4-21.1-54.9-13.2-65.6,15.8-7.3,19.9-4.2,39.8,2.1,59.1,15.3,47.2,43.8,86.3,79.8,119.1,28.5,25.9,53.1,53.7,73.1,86.8,21.1,35,49.7,64.3,85,85.7,15.1,9.1,31.5,16,48.9,24.7.1,4.3-.4,10.9.7,17.2,4.9,26.2,24.8,42.1,54.8,41.3,15.6-.4,31.6-3.4,46.5-8.1,41.7-13.2,80.6-32,109.4-66.4,6.8-8.1,12.6-17.8,16.5-27.7,8.7-22.2,3.5-41.7-17.2-58.7,6.4-6,12.8-11.6,18.6-17.7,28.7-29.7,51.3-63.2,57.7-104.9,2.2-14.6,2-30.2-.5-44.8-4.9-28.6-20-41.6-50.2-47.4-8.2-47.7-30.6-85-77.1-103.3-45.3-17.9-88.5-13.4-128.7,17.2-7.2-13.1-7.3-26.6-5.9-39.9,2.5-24.6,6.4-49,8.8-73.6,1.2-11.9,1.3-23.9.6-35.8-1.1-19.7-8.4-36.4-27.9-44.5-20.4-8.5-40.2-6.2-58.1,7.1-18.5,13.8-28.4,33.6-34.2,55.1-5.4,20-8.5,40.6-14.2,61.5-.2-5.3,0-10.6-.6-15.8-1-10.8-1.8-21.6-3.8-32.2-3.8-20.1-14.1-34.9-35.4-39.7-22.8-5.1-42.4,0-56.9,18.9-15,19.6-18.8,42.9-19.8,66.7-1.5,33.5,3,66.3,11.6,98.6.6,2.2,1,4.4,2,8.9h0ZM568.5,523.5c-5,10.6-8.8,19.9-13.7,28.7-19.1,34.5-55.8,34.9-75.9,1-2.5-4.3-4.7-8.9-6.4-13.6-6.9-19.4-1.8-35.7,13.8-45.7,15.6-9.9,25.5-7.9,42.4,9.4,10.5,10.8,22,19.4,39.7,20.3h0Z"/>
              </g>
              <ellipse class="cls-7" cx="517.2" cy="539.9" rx="68.9" ry="51.7" transform="translate(-18.3 18.1) rotate(-2)"/>
            </g>
            <g>
              <path class="cls-1" d="M173.2,437.2c-7.9-9.4-13.3-17.1-19.9-23.3-22.4-21.1-54.9-13.2-65.6,15.8-7.3,19.9-4.2,39.8,2.1,59.1,15.3,47.2,43.8,86.3,79.8,119.1,28.5,25.9,53.1,53.7,73.1,86.8,21.1,35,49.7,64.3,85,85.7,15.1,9.1,31.5,16,48.9,24.7.1,4.3-.4,10.9.7,17.2,4.9,26.2,24.8,42.1,54.8,41.3,15.6-.4,31.6-3.4,46.5-8.1,41.7-13.2,80.6-32,109.4-66.4,6.8-8.1,12.6-17.8,16.5-27.7,8.7-22.2,3.5-41.7-17.2-58.7,6.4-6,12.8-11.6,18.6-17.7,28.7-29.7,51.3-63.2,57.7-104.9,2.2-14.6,2-30.2-.5-44.8-4.9-28.6-20-41.6-50.2-47.4-8.2-47.7-30.6-85-77.1-103.3-45.3-17.9-88.5-13.4-128.7,17.2-7.2-13.1-7.3-26.6-5.9-39.9,2.5-24.6,6.4-49,8.8-73.6,1.2-11.9,1.3-23.9.6-35.8-1.1-19.7-8.4-36.4-27.9-44.5-20.4-8.5-40.2-6.2-58.1,7.1-18.5,13.8-28.4,33.6-34.2,55.1-5.4,20-8.5,40.6-14.2,61.5-.2-5.3,0-10.6-.6-15.8-1-10.8-1.8-21.6-3.8-32.2-3.8-20.1-14.1-34.9-35.4-39.7-22.8-5.1-42.4,0-56.9,18.9-15,19.6-18.8,42.9-19.8,66.7-1.5,33.5,3,66.3,11.6,98.6.6,2.2,1,4.4,2,8.9h0ZM402.4,808.7c9.2-.8,17.3-3.2,16.7-13.9-.6-10-8.9-10.6-16.6-12.7-16.6-4.6-34-8.3-49.2-16-40.1-20.2-70.5-52.2-92.9-90.2-18.7-31.8-41.9-58.1-69.4-82.3-33.3-29.4-60.4-64.4-75.1-107.1-4.5-13.1-5.8-27.9-5.5-41.8.1-5.9,7-14.2,12.8-16.5,3.9-1.6,13.2,3.9,16.8,8.7,9.2,12.3,16.2,26.2,24.9,39,10.2,14.9,19.1,31.8,32.5,43.1,15.1,12.6,32.6,22.6,47.6,35.7,6.4,5.6,14.2,5,19.1-2.4,4.7-7,1.9-13.3-4.7-18-18.1-12.9-31.3-30.3-40.6-49.9-23.9-50.6-39.1-103.6-33.4-160.2,1.6-15.6,7.6-31.3,14.3-45.7,5.4-11.5,17.8-12.3,29.6-10.2,11.3,2,16,10,17.5,20.4,1.5,10.7,2.9,21.5,3.6,32.2,2.5,35.4,8.5,69.8,26,101.3,6,10.7,10.8,22.1,16.4,33,5.1,9.9,10.4,19.8,16.2,29.3,4.1,6.8,10.6,9.6,17.7,4.5,7.3-5.4,5.8-11.8,2.1-19.4-7.2-15.1-14.3-30.6-19-46.6-3.8-13.2-4.8-27.4-5.7-41.3-2.6-38.5-1.2-76.8,13.3-113,4.7-11.8,12.1-23.8,21.5-32.2,19-17,42.9-7.2,46.5,17.8.8,5.3,1,10.9.4,16.2-2.8,25-6.6,49.8-8.7,74.8-2,23.4-4.5,47.5,8.1,69,4.3,7.3,3.9,12-.3,18.6-6.2,9.6-4.9,18.6,2.7,21.9,10.3,4.4,14.7-2.7,18.6-10.3,10.9-21.1,28.1-34.8,51-40.6,53.4-13.6,110.2,9.8,127.4,71.8,1.5,5.4,0,16-3.2,17.4-6.9,3.1-16.5,4-23.5,1.7-6.7-2.2-12-9.4-17.3-15-23.8-25.2-65.8-17.7-85.4,9-27.1,36.8-.4,101.1,46.8,113.4,16.7,4.4,32.1,1.4,46.6-7.7,14.5-9.2,24.8-21.8,32-37.3,5.2-11.2,10-22.7,16.5-33.1,8-12.8,23.9-13.2,33-1.2,3.8,5.1,6.5,11.5,8.1,17.7,5.9,22.8.6,44.5-8.2,65.5-18.2,43.5-53.2,73.4-85.7,105.3-8.8,8.6-12,14.9-6.4,21.1,7.8,8.6,15.2,4.4,22.3-1.3.9-.7,1.8-1.4,2.8-2.1,8.1-6.2,14.4-5.4,17.4,4.1,2,6.5,2.8,15.8-.4,20.9-8.3,13.2-17.7,26.5-29.5,36.5-27.5,23.4-60.3,37.3-95.3,45.5-8.9,2.1-18.4,3.1-27.5,2.7-18-.8-26.4-10.8-25.5-29.7h0ZM568.5,523.5c-5,10.6-8.8,19.9-13.7,28.7-19.1,34.5-55.8,34.9-75.9,1-2.5-4.3-4.7-8.9-6.4-13.6-6.9-19.4-1.8-35.7,13.8-45.7,15.6-9.9,25.5-7.9,42.4,9.4,10.5,10.8,22,19.4,39.7,20.3h0Z"/>
              <path class="cls-6" d="M173.2,437.2c-7.9-9.4-13.3-17.1-19.9-23.3-22.4-21.1-54.9-13.2-65.6,15.8-7.3,19.9-4.2,39.8,2.1,59.1,15.3,47.2,43.8,86.3,79.8,119.1,28.5,25.9,53.1,53.7,73.1,86.8,21.1,35,49.7,64.3,85,85.7,15.1,9.1,31.5,16,48.9,24.7.1,4.3-.4,10.9.7,17.2,4.9,26.2,24.8,42.1,54.8,41.3,15.6-.4,31.6-3.4,46.5-8.1,41.7-13.2,80.6-32,109.4-66.4,6.8-8.1,12.6-17.8,16.5-27.7,8.7-22.2,3.5-41.7-17.2-58.7,6.4-6,12.8-11.6,18.6-17.7,28.7-29.7,51.3-63.2,57.7-104.9,2.2-14.6,2-30.2-.5-44.8-4.9-28.6-20-41.6-50.2-47.4-8.2-47.7-30.6-85-77.1-103.3-45.3-17.9-88.5-13.4-128.7,17.2-7.2-13.1-7.3-26.6-5.9-39.9,2.5-24.6,6.4-49,8.8-73.6,1.2-11.9,1.3-23.9.6-35.8-1.1-19.7-8.4-36.4-27.9-44.5-20.4-8.5-40.2-6.2-58.1,7.1-18.5,13.8-28.4,33.6-34.2,55.1-5.4,20-8.5,40.6-14.2,61.5-.2-5.3,0-10.6-.6-15.8-1-10.8-1.8-21.6-3.8-32.2-3.8-20.1-14.1-34.9-35.4-39.7-22.8-5.1-42.4,0-56.9,18.9-15,19.6-18.8,42.9-19.8,66.7-1.5,33.5,3,66.3,11.6,98.6.6,2.2,1,4.4,2,8.9h0ZM402.4,808.7c9.2-.8,17.3-3.2,16.7-13.9-.6-10-8.9-10.6-16.6-12.7-16.6-4.6-34-8.3-49.2-16-40.1-20.2-70.5-52.2-92.9-90.2-18.7-31.8-41.9-58.1-69.4-82.3-33.3-29.4-60.4-64.4-75.1-107.1-4.5-13.1-5.8-27.9-5.5-41.8.1-5.9,7-14.2,12.8-16.5,3.9-1.6,13.2,3.9,16.8,8.7,9.2,12.3,16.2,26.2,24.9,39,10.2,14.9,19.1,31.8,32.5,43.1,15.1,12.6,32.6,22.6,47.6,35.7,6.4,5.6,14.2,5,19.1-2.4,4.7-7,1.9-13.3-4.7-18-18.1-12.9-31.3-30.3-40.6-49.9-23.9-50.6-39.1-103.6-33.4-160.2,1.6-15.6,7.6-31.3,14.3-45.7,5.4-11.5,17.8-12.3,29.6-10.2,11.3,2,16,10,17.5,20.4,1.5,10.7,2.9,21.5,3.6,32.2,2.5,35.4,8.5,69.8,26,101.3,6,10.7,10.8,22.1,16.4,33,5.1,9.9,10.4,19.8,16.2,29.3,4.1,6.8,10.6,9.6,17.7,4.5,7.3-5.4,5.8-11.8,2.1-19.4-7.2-15.1-14.3-30.6-19-46.6-3.8-13.2-4.8-27.4-5.7-41.3-2.6-38.5-1.2-76.8,13.3-113,4.7-11.8,12.1-23.8,21.5-32.2,19-17,42.9-7.2,46.5,17.8.8,5.3,1,10.9.4,16.2-2.8,25-6.6,49.8-8.7,74.8-2,23.4-4.5,47.5,8.1,69,4.3,7.3,3.9,12-.3,18.6-6.2,9.6-4.9,18.6,2.7,21.9,10.3,4.4,14.7-2.7,18.6-10.3,10.9-21.1,28.1-34.8,51-40.6,53.4-13.6,110.2,9.8,127.4,71.8,1.5,5.4,0,16-3.2,17.4-6.9,3.1-16.5,4-23.5,1.7-6.7-2.2-12-9.4-17.3-15-23.8-25.2-65.8-17.7-85.4,9-27.1,36.8-.4,101.1,46.8,113.4,16.7,4.4,32.1,1.4,46.6-7.7,14.5-9.2,24.8-21.8,32-37.3,5.2-11.2,10-22.7,16.5-33.1,8-12.8,23.9-13.2,33-1.2,3.8,5.1,6.5,11.5,8.1,17.7,5.9,22.8.6,44.5-8.2,65.5-18.2,43.5-53.2,73.4-85.7,105.3-8.8,8.6-12,14.9-6.4,21.1,7.8,8.6,15.2,4.4,22.3-1.3.9-.7,1.8-1.4,2.8-2.1,8.1-6.2,14.4-5.4,17.4,4.1,2,6.5,2.8,15.8-.4,20.9-8.3,13.2-17.7,26.5-29.5,36.5-27.5,23.4-60.3,37.3-95.3,45.5-8.9,2.1-18.4,3.1-27.5,2.7-18-.8-26.4-10.8-25.5-29.7h0ZM568.5,523.5c-5,10.6-8.8,19.9-13.7,28.7-19.1,34.5-55.8,34.9-75.9,1-2.5-4.3-4.7-8.9-6.4-13.6-6.9-19.4-1.8-35.7,13.8-45.7,15.6-9.9,25.5-7.9,42.4,9.4,10.5,10.8,22,19.4,39.7,20.3h0Z"/>
              <path class="cls-3" d="M173.2,437.2c-7.9-9.4-13.3-17.1-19.9-23.3-22.4-21.1-54.9-13.2-65.6,15.8-7.3,19.9-4.2,39.8,2.1,59.1,15.3,47.2,43.8,86.3,79.8,119.1,28.5,25.9,53.1,53.7,73.1,86.8,21.1,35,49.7,64.3,85,85.7,15.1,9.1,31.5,16,48.9,24.7.1,4.3-.4,10.9.7,17.2,4.9,26.2,24.8,42.1,54.8,41.3,15.6-.4,31.6-3.4,46.5-8.1,41.7-13.2,80.6-32,109.4-66.4,6.8-8.1,12.6-17.8,16.5-27.7,8.7-22.2,3.5-41.7-17.2-58.7,6.4-6,12.8-11.6,18.6-17.7,28.7-29.7,51.3-63.2,57.7-104.9,2.2-14.6,2-30.2-.5-44.8-4.9-28.6-20-41.6-50.2-47.4-8.2-47.7-30.6-85-77.1-103.3-45.3-17.9-88.5-13.4-128.7,17.2-7.2-13.1-7.3-26.6-5.9-39.9,2.5-24.6,6.4-49,8.8-73.6,1.2-11.9,1.3-23.9.6-35.8-1.1-19.7-8.4-36.4-27.9-44.5-20.4-8.5-40.2-6.2-58.1,7.1-18.5,13.8-28.4,33.6-34.2,55.1-5.4,20-8.5,40.6-14.2,61.5-.2-5.3,0-10.6-.6-15.8-1-10.8-1.8-21.6-3.8-32.2-3.8-20.1-14.1-34.9-35.4-39.7-22.8-5.1-42.4,0-56.9,18.9-15,19.6-18.8,42.9-19.8,66.7-1.5,33.5,3,66.3,11.6,98.6.6,2.2,1,4.4,2,8.9h0ZM402.4,808.7c9.2-.8,17.3-3.2,16.7-13.9-.6-10-8.9-10.6-16.6-12.7-16.6-4.6-34-8.3-49.2-16-40.1-20.2-70.5-52.2-92.9-90.2-18.7-31.8-41.9-58.1-69.4-82.3-33.3-29.4-60.4-64.4-75.1-107.1-4.5-13.1-5.8-27.9-5.5-41.8.1-5.9,7-14.2,12.8-16.5,3.9-1.6,13.2,3.9,16.8,8.7,9.2,12.3,16.2,26.2,24.9,39,10.2,14.9,19.1,31.8,32.5,43.1,15.1,12.6,32.6,22.6,47.6,35.7,6.4,5.6,14.2,5,19.1-2.4,4.7-7,1.9-13.3-4.7-18-18.1-12.9-31.3-30.3-40.6-49.9-23.9-50.6-39.1-103.6-33.4-160.2,1.6-15.6,7.6-31.3,14.3-45.7,5.4-11.5,17.8-12.3,29.6-10.2,11.3,2,16,10,17.5,20.4,1.5,10.7,2.9,21.5,3.6,32.2,2.5,35.4,8.5,69.8,26,101.3,6,10.7,10.8,22.1,16.4,33,5.1,9.9,10.4,19.8,16.2,29.3,4.1,6.8,10.6,9.6,17.7,4.5,7.3-5.4,5.8-11.8,2.1-19.4-7.2-15.1-14.3-30.6-19-46.6-3.8-13.2-4.8-27.4-5.7-41.3-2.6-38.5-1.2-76.8,13.3-113,4.7-11.8,12.1-23.8,21.5-32.2,19-17,42.9-7.2,46.5,17.8.8,5.3,1,10.9.4,16.2-2.8,25-6.6,49.8-8.7,74.8-2,23.4-4.5,47.5,8.1,69,4.3,7.3,3.9,12-.3,18.6-6.2,9.6-4.9,18.6,2.7,21.9,10.3,4.4,14.7-2.7,18.6-10.3,10.9-21.1,28.1-34.8,51-40.6,53.4-13.6,110.2,9.8,127.4,71.8,1.5,5.4,0,16-3.2,17.4-6.9,3.1-16.5,4-23.5,1.7-6.7-2.2-12-9.4-17.3-15-23.8-25.2-65.8-17.7-85.4,9-27.1,36.8-.4,101.1,46.8,113.4,16.7,4.4,32.1,1.4,46.6-7.7,14.5-9.2,24.8-21.8,32-37.3,5.2-11.2,10-22.7,16.5-33.1,8-12.8,23.9-13.2,33-1.2,3.8,5.1,6.5,11.5,8.1,17.7,5.9,22.8.6,44.5-8.2,65.5-18.2,43.5-53.2,73.4-85.7,105.3-8.8,8.6-12,14.9-6.4,21.1,7.8,8.6,15.2,4.4,22.3-1.3.9-.7,1.8-1.4,2.8-2.1,8.1-6.2,14.4-5.4,17.4,4.1,2,6.5,2.8,15.8-.4,20.9-8.3,13.2-17.7,26.5-29.5,36.5-27.5,23.4-60.3,37.3-95.3,45.5-8.9,2.1-18.4,3.1-27.5,2.7-18-.8-26.4-10.8-25.5-29.7h0ZM568.5,523.5c-5,10.6-8.8,19.9-13.7,28.7-19.1,34.5-55.8,34.9-75.9,1-2.5-4.3-4.7-8.9-6.4-13.6-6.9-19.4-1.8-35.7,13.8-45.7,15.6-9.9,25.5-7.9,42.4,9.4,10.5,10.8,22,19.4,39.7,20.3h0Z"/>
              <path class="cls-1" d="M173.2,437.2c-7.9-9.4-13.3-17.1-19.9-23.3-22.4-21.1-54.9-13.2-65.6,15.8-7.3,19.9-4.2,39.8,2.1,59.1,15.3,47.2,43.8,86.3,79.8,119.1,28.5,25.9,53.1,53.7,73.1,86.8,21.1,35,49.7,64.3,85,85.7,15.1,9.1,31.5,16,48.9,24.7.1,4.3-.4,10.9.7,17.2,4.9,26.2,24.8,42.1,54.8,41.3,15.6-.4,31.6-3.4,46.5-8.1,41.7-13.2,80.6-32,109.4-66.4,6.8-8.1,12.6-17.8,16.5-27.7,8.7-22.2,3.5-41.7-17.2-58.7,6.4-6,12.8-11.6,18.6-17.7,28.7-29.7,51.3-63.2,57.7-104.9,2.2-14.6,2-30.2-.5-44.8-4.9-28.6-20-41.6-50.2-47.4-8.2-47.7-30.6-85-77.1-103.3-45.3-17.9-88.5-13.4-128.7,17.2-7.2-13.1-7.3-26.6-5.9-39.9,2.5-24.6,6.4-49,8.8-73.6,1.2-11.9,1.3-23.9.6-35.8-1.1-19.7-8.4-36.4-27.9-44.5-20.4-8.5-40.2-6.2-58.1,7.1-18.5,13.8-28.4,33.6-34.2,55.1-5.4,20-8.5,40.6-14.2,61.5-.2-5.3,0-10.6-.6-15.8-1-10.8-1.8-21.6-3.8-32.2-3.8-20.1-14.1-34.9-35.4-39.7-22.8-5.1-42.4,0-56.9,18.9-15,19.6-18.8,42.9-19.8,66.7-1.5,33.5,3,66.3,11.6,98.6.6,2.2,1,4.4,2,8.9h0ZM402.4,808.7c9.2-.8,17.3-3.2,16.7-13.9-.6-10-8.9-10.6-16.6-12.7-16.6-4.6-34-8.3-49.2-16-40.1-20.2-70.5-52.2-92.9-90.2-18.7-31.8-41.9-58.1-69.4-82.3-33.3-29.4-60.4-64.4-75.1-107.1-4.5-13.1-5.8-27.9-5.5-41.8.1-5.9,7-14.2,12.8-16.5,3.9-1.6,13.2,3.9,16.8,8.7,9.2,12.3,16.2,26.2,24.9,39,10.2,14.9,19.1,31.8,32.5,43.1,15.1,12.6,32.6,22.6,47.6,35.7,6.4,5.6,14.2,5,19.1-2.4,4.7-7,1.9-13.3-4.7-18-18.1-12.9-31.3-30.3-40.6-49.9-23.9-50.6-39.1-103.6-33.4-160.2,1.6-15.6,7.6-31.3,14.3-45.7,5.4-11.5,17.8-12.3,29.6-10.2,11.3,2,16,10,17.5,20.4,1.5,10.7,2.9,21.5,3.6,32.2,2.5,35.4,8.5,69.8,26,101.3,6,10.7,10.8,22.1,16.4,33,5.1,9.9,10.4,19.8,16.2,29.3,4.1,6.8,10.6,9.6,17.7,4.5,7.3-5.4,5.8-11.8,2.1-19.4-7.2-15.1-14.3-30.6-19-46.6-3.8-13.2-4.8-27.4-5.7-41.3-2.6-38.5-1.2-76.8,13.3-113,4.7-11.8,12.1-23.8,21.5-32.2,19-17,42.9-7.2,46.5,17.8.8,5.3,1,10.9.4,16.2-2.8,25-6.6,49.8-8.7,74.8-2,23.4-4.5,47.5,8.1,69,4.3,7.3,3.9,12-.3,18.6-6.2,9.6-4.9,18.6,2.7,21.9,10.3,4.4,14.7-2.7,18.6-10.3,10.9-21.1,28.1-34.8,51-40.6,53.4-13.6,110.2,9.8,127.4,71.8,1.5,5.4,0,16-3.2,17.4-6.9,3.1-16.5,4-23.5,1.7-6.7-2.2-12-9.4-17.3-15-23.8-25.2-65.8-17.7-85.4,9-27.1,36.8-.4,101.1,46.8,113.4,16.7,4.4,32.1,1.4,46.6-7.7,14.5-9.2,24.8-21.8,32-37.3,5.2-11.2,10-22.7,16.5-33.1,8-12.8,23.9-13.2,33-1.2,3.8,5.1,6.5,11.5,8.1,17.7,5.9,22.8.6,44.5-8.2,65.5-18.2,43.5-53.2,73.4-85.7,105.3-8.8,8.6-12,14.9-6.4,21.1,7.8,8.6,15.2,4.4,22.3-1.3.9-.7,1.8-1.4,2.8-2.1,8.1-6.2,14.4-5.4,17.4,4.1,2,6.5,2.8,15.8-.4,20.9-8.3,13.2-17.7,26.5-29.5,36.5-27.5,23.4-60.3,37.3-95.3,45.5-8.9,2.1-18.4,3.1-27.5,2.7-18-.8-26.4-10.8-25.5-29.7h0ZM568.5,523.5c-5,10.6-8.8,19.9-13.7,28.7-19.1,34.5-55.8,34.9-75.9,1-2.5-4.3-4.7-8.9-6.4-13.6-6.9-19.4-1.8-35.7,13.8-45.7,15.6-9.9,25.5-7.9,42.4,9.4,10.5,10.8,22,19.4,39.7,20.3h0Z"/>
            </g>
          </g>
          <g>
            <path class="cls-4" d="M684.1,348.8c8.4,13.5,16,25.9,24.1,38.8-26.3,16.4-51.9,32.3-78.3,48.8-7.9-11.5-15.4-22.5-23.6-34.4,26-17.8,51.3-35.1,77.8-53.3h0Z"/>
            <path class="cls-1" d="M684.1,348.8c8.4,13.5,16,25.9,24.1,38.8-26.3,16.4-51.9,32.3-78.3,48.8-7.9-11.5-15.4-22.5-23.6-34.4,26-17.8,51.3-35.1,77.8-53.3h0Z"/>
          </g>
          <g>
            <path class="cls-5" d="M595.1,389.4c-8.3-3.3-15.9-6.3-24.3-9.7,6.5-16.3,12.8-32.5,19.5-49.3,9.2,4.2,17.9,8.3,27,12.5-7.5,15.6-14.7,30.7-22.2,46.4h0Z"/>
            <path class="cls-1" d="M595.1,389.4c-8.3-3.3-15.9-6.3-24.3-9.7,6.5-16.3,12.8-32.5,19.5-49.3,9.2,4.2,17.9,8.3,27,12.5-7.5,15.6-14.7,30.7-22.2,46.4h0Z"/>
          </g>
          <g>
            <path class="cls-5" d="M638.1,475.6c-.6-9-1.2-17-1.8-26.1,17.5-1.3,34.8-2.5,52.9-3.9.2,10.1.3,19.7.4,29.8-17.3,0-34,0-51.5.1h0Z"/>
            <path class="cls-1" d="M638.1,475.6c-.6-9-1.2-17-1.8-26.1,17.5-1.3,34.8-2.5,52.9-3.9.2,10.1.3,19.7.4,29.8-17.3,0-34,0-51.5.1h0Z"/>
          </g>
        </g>
      </g>
    </g>
  </g>
</svg>
