<?xml version="1.0" encoding="UTF-8"?>
<svg xmlns="http://www.w3.org/2000/svg" version="1.1" viewBox="40 390 1800 300">
  <defs>
    <style>
      .cls-1 {
        fill: #007936;
      }

      .cls-2 {
        stroke-width: 59.7px;
      }

      .cls-2, .cls-3 {
        fill: none;
        stroke: #fff;
      }

      .cls-3 {
        stroke-width: 60px;
      }

      .cls-4 {
        fill: #fff;
      }
    </style>
  </defs>
  <!-- Generator: Adobe Illustrator 28.7.8, SVG Export Plug-In . SVG Version: 1.2.0 Build 200)  -->
  <g>
    <g id="_Шар_1">
      <g>
        <g>
          <g>
            <path class="cls-4" d="M344.4,406.3c30.1,0,42.7,13.4,42.7,49.8v167.9c0,36.4-12.6,49.8-42.7,49.8h-7.8c-30.1,0-42.7-13.4-42.7-49.8v-102.9l-37.9,130.8c-5.2,17.5-14.9,21.9-29.4,21.9h-5.9c-15.2,0-27.1-5.6-32.7-23l-41.6-129.3v102.5c0,13-.7,24.5-4.8,32.7-5.6,11.2-16.7,17.1-28.6,17.1h-5.9c-11.9,0-23-5.9-28.6-17.1-4.1-8.2-4.8-19.7-4.8-32.7v-167.9c0-36.4,12.6-49.8,43.1-49.8h52.8c19.7,0,31.2,4.5,38.3,24.5l26,75.4,21.9-75.8c5.6-19,17.8-24.1,39.4-24.1h49.4,0Z"/>
            <path class="cls-4" d="M409.4,520.7c0-25.6,15.2-38.3,34.5-38.3h9.7c19.3,0,34.5,12.6,34.5,38.3v114.8c0,25.6-15.2,38.3-34.5,38.3h-9.7c-19.3,0-34.5-12.6-34.5-38.3v-114.8ZM415.3,438.2c0-17.5,14.9-32,33.4-32s33.4,14.5,33.4,32-15.2,32.7-33.4,32.7-33.4-14.5-33.4-32.7Z"/>
            <path class="cls-4" d="M609.6,482.4c14.5,0,17.5,10.8,17.5,27.9v5.6c0,17.1-3,27.9-17.5,27.9h-8.9v62.4c10,.7,17.8,7.4,17.8,19.7,0,17.8-8.5,47.9-48.3,47.9s-48.3-19-48.3-58v-72.1h-5.2c-14.5,0-17.5-10.8-17.5-27.9v-5.6c0-17.1,3-27.9,17.5-27.9h5.2v-17.8c0-21.9,13.8-23.4,22.7-33.8,8.9-10.4,9.7-24.5,29.3-24.5s26.8,17.1,26.8,38.3v37.9h8.9Z"/>
            <path class="cls-4" d="M718.8,507.3c12.3-15.2,30.1-24.9,50.5-24.9s61.7,19.3,61.7,69.1v84c0,25.6-15.2,38.3-34.5,38.3h-9.7c-19.3,0-34.5-12.6-34.5-38.3v-66.1c0-11.5-4.5-19.7-13.8-19.7s-19.7,9.3-19.7,30.8v55c0,25.6-15.2,38.3-34.5,38.3h-9.7c-19.3,0-34.5-12.6-34.5-38.3v-191c0-25.6,15.2-38.3,34.5-38.3h9.7c19.3,0,34.5,12.6,34.5,38.3v62.8h0Z"/>
            <path class="cls-4" d="M845.9,578.3c0-56.5,43.1-95.9,95.8-95.9s95.8,39.4,95.8,95.9-43.1,95.5-95.8,95.5-95.8-39.4-95.8-95.5ZM959.9,578.3c0-19-6.7-30.5-18.2-30.5s-18.2,11.5-18.2,30.5,6.7,30.8,18.2,30.8,18.2-11.5,18.2-30.8Z"/>
          </g>
          <g>
            <path class="cls-2" d="M344.4,406.3c30.1,0,42.7,13.4,42.7,49.8v167.9c0,36.4-12.6,49.8-42.7,49.8h-7.8c-30.1,0-42.7-13.4-42.7-49.8v-102.9l-37.9,130.8c-5.2,17.5-14.9,21.9-29.4,21.9h-5.9c-15.2,0-27.1-5.6-32.7-23l-41.6-129.3v102.5c0,13-.7,24.5-4.8,32.7-5.6,11.2-16.7,17.1-28.6,17.1h-5.9c-11.9,0-23-5.9-28.6-17.1-4.1-8.2-4.8-19.7-4.8-32.7v-167.9c0-36.4,12.6-49.8,43.1-49.8h52.8c19.7,0,31.2,4.5,38.3,24.5l26,75.4,21.9-75.8c5.6-19,17.8-24.1,39.4-24.1h49.4,0Z"/>
            <path class="cls-2" d="M409.4,520.7c0-25.6,15.2-38.3,34.5-38.3h9.7c19.3,0,34.5,12.6,34.5,38.3v114.8c0,25.6-15.2,38.3-34.5,38.3h-9.7c-19.3,0-34.5-12.6-34.5-38.3v-114.8ZM415.3,438.2c0-17.5,14.9-32,33.4-32s33.4,14.5,33.4,32-15.2,32.7-33.4,32.7-33.4-14.5-33.4-32.7Z"/>
            <path class="cls-2" d="M609.6,482.4c14.5,0,17.5,10.8,17.5,27.9v5.6c0,17.1-3,27.9-17.5,27.9h-8.9v62.4c10,.7,17.8,7.4,17.8,19.7,0,17.8-8.5,47.9-48.3,47.9s-48.3-19-48.3-58v-72.1h-5.2c-14.5,0-17.5-10.8-17.5-27.9v-5.6c0-17.1,3-27.9,17.5-27.9h5.2v-17.8c0-21.9,13.8-23.4,22.7-33.8,8.9-10.4,9.7-24.5,29.3-24.5s26.8,17.1,26.8,38.3v37.9h8.9Z"/>
            <path class="cls-2" d="M718.8,507.3c12.3-15.2,30.1-24.9,50.5-24.9s61.7,19.3,61.7,69.1v84c0,25.6-15.2,38.3-34.5,38.3h-9.7c-19.3,0-34.5-12.6-34.5-38.3v-66.1c0-11.5-4.5-19.7-13.8-19.7s-19.7,9.3-19.7,30.8v55c0,25.6-15.2,38.3-34.5,38.3h-9.7c-19.3,0-34.5-12.6-34.5-38.3v-191c0-25.6,15.2-38.3,34.5-38.3h9.7c19.3,0,34.5,12.6,34.5,38.3v62.8h0Z"/>
            <path class="cls-2" d="M845.9,578.3c0-56.5,43.1-95.9,95.8-95.9s95.8,39.4,95.8,95.9-43.1,95.5-95.8,95.5-95.8-39.4-95.8-95.5ZM959.9,578.3c0-19-6.7-30.5-18.2-30.5s-18.2,11.5-18.2,30.5,6.7,30.8,18.2,30.8,18.2-11.5,18.2-30.8Z"/>
          </g>
          <g>
            <path class="cls-1" d="M344.4,406.3c30.1,0,42.7,13.4,42.7,49.8v167.9c0,36.4-12.6,49.8-42.7,49.8h-7.8c-30.1,0-42.7-13.4-42.7-49.8v-102.9l-37.9,130.8c-5.2,17.5-14.9,21.9-29.4,21.9h-5.9c-15.2,0-27.1-5.6-32.7-23l-41.6-129.3v102.5c0,13-.7,24.5-4.8,32.7-5.6,11.2-16.7,17.1-28.6,17.1h-5.9c-11.9,0-23-5.9-28.6-17.1-4.1-8.2-4.8-19.7-4.8-32.7v-167.9c0-36.4,12.6-49.8,43.1-49.8h52.8c19.7,0,31.2,4.5,38.3,24.5l26,75.4,21.9-75.8c5.6-19,17.8-24.1,39.4-24.1h49.4,0Z"/>
            <path class="cls-1" d="M409.4,520.7c0-25.6,15.2-38.3,34.5-38.3h9.7c19.3,0,34.5,12.6,34.5,38.3v114.8c0,25.6-15.2,38.3-34.5,38.3h-9.7c-19.3,0-34.5-12.6-34.5-38.3v-114.8ZM415.3,438.2c0-17.5,14.9-32,33.4-32s33.4,14.5,33.4,32-15.2,32.7-33.4,32.7-33.4-14.5-33.4-32.7Z"/>
            <path class="cls-1" d="M609.6,482.4c14.5,0,17.5,10.8,17.5,27.9v5.6c0,17.1-3,27.9-17.5,27.9h-8.9v62.4c10,.7,17.8,7.4,17.8,19.7,0,17.8-8.5,47.9-48.3,47.9s-48.3-19-48.3-58v-72.1h-5.2c-14.5,0-17.5-10.8-17.5-27.9v-5.6c0-17.1,3-27.9,17.5-27.9h5.2v-17.8c0-21.9,13.8-23.4,22.7-33.8,8.9-10.4,9.7-24.5,29.3-24.5s26.8,17.1,26.8,38.3v37.9h8.9Z"/>
            <path class="cls-1" d="M718.8,507.3c12.3-15.2,30.1-24.9,50.5-24.9s61.7,19.3,61.7,69.1v84c0,25.6-15.2,38.3-34.5,38.3h-9.7c-19.3,0-34.5-12.6-34.5-38.3v-66.1c0-11.5-4.5-19.7-13.8-19.7s-19.7,9.3-19.7,30.8v55c0,25.6-15.2,38.3-34.5,38.3h-9.7c-19.3,0-34.5-12.6-34.5-38.3v-191c0-25.6,15.2-38.3,34.5-38.3h9.7c19.3,0,34.5,12.6,34.5,38.3v62.8h0Z"/>
            <path class="cls-1" d="M845.9,578.3c0-56.5,43.1-95.9,95.8-95.9s95.8,39.4,95.8,95.9-43.1,95.5-95.8,95.5-95.8-39.4-95.8-95.5ZM959.9,578.3c0-19-6.7-30.5-18.2-30.5s-18.2,11.5-18.2,30.5,6.7,30.8,18.2,30.8,18.2-11.5,18.2-30.8Z"/>
          </g>
        </g>
        <polygon class="cls-4" points="1157.7 482.4 1337.1 463.6 1461.5 546.3 1571.6 561.6 1724.5 536.2 1782.6 502.4 1805.3 608 1579.2 642.8 1316 601 1157.7 594.7 1138.6 497.5 1157.7 482.4"/>
        <g>
          <g>
            <path class="cls-4" d="M1210.5,673.7c-36,0-69.5-11.2-95.5-38.6-23.8-25.3-33.8-56.8-33.8-93.6v-3c0-36,9.7-68,33.8-93.6,25.6-27.1,59.4-38.6,95.5-38.6h7.8c68.4,0,98.1,40.9,98.1,72.8s-13.8,37.5-34.6,37.5-28.6-8.5-36-21.9c-8.2-14.5-18.9-19.7-34.6-19.7s-24.2,4.1-31.6,14.1c-7.4,10-9.7,26.4-9.7,43.8v14.1c0,18.2,3,34.2,9.7,43.8,7.8,11.1,18.6,14.1,31.2,14.1s26.8-4.5,34.6-19.7c6.7-13,14.9-21.9,36-21.9s34.6,14.5,34.6,37.5c0,32.7-29.3,72.8-97.7,72.8h-7.8Z"/>
            <path class="cls-4" d="M1413.7,507.3c12.3-15.2,30.1-24.9,50.5-24.9s61.7,19.3,61.7,69.1v84c0,25.6-15.2,38.3-34.6,38.3h-9.7c-19.3,0-34.6-12.6-34.6-38.3v-66.1c0-11.5-4.5-19.7-13.8-19.7s-19.7,9.3-19.7,30.8v55c0,25.6-15.2,38.3-34.6,38.3h-9.7c-19.3,0-34.6-12.6-34.6-38.3v-191c0-25.6,15.2-38.3,34.6-38.3h9.7c19.3,0,34.6,12.6,34.6,38.3v62.8h0Z"/>
            <path class="cls-4" d="M1726.1,609.1c17.1,0,29.3,5.9,29.3,29.7v5.2c0,19.3-5.9,29.7-33.4,29.7h-22.7c-21.2,0-40.1-4.8-48.3-21.9-9.3,9.7-29.3,21.9-57.2,21.9s-53.1-10.8-53.1-46.1,39.8-53.1,71-61.3c20.4-5.6,37.2-10,37.2-21.5s-4.8-13.4-17.1-13.4c-26.8,0-28.2,30.1-60.2,30.1s-27.1-10-27.1-25.3c0-22.7,26.4-53.9,93.2-53.9s88.4,20.8,88.4,73.9v52.8h0ZM1652.6,580.1c-17.5,14.9-39.8,13.4-39.8,28.6s3.7,10.8,10.4,10.8c11.2,0,29.3-15.2,29.3-39.4Z"/>
            <path class="cls-4" d="M1821.6,406.3c20.4,0,27.9,8.9,23.8,30.1l-31.2,155.7c-.7,3-10.8,3-11.5,0l-31.2-155.7c-4.1-21.2,4.5-30.1,24.9-30.1h25.3ZM1776.3,637.7c0-18.6,11.2-29.7,29-29.7h6.3c17.8,0,28.6,11.1,28.6,29.7v6.7c0,18.2-10.8,29.3-28.6,29.3h-6.3c-17.8,0-29-11.2-29-29.3v-6.7Z"/>
          </g>
          <g>
            <path class="cls-3" d="M1210.5,673.7c-36,0-69.5-11.2-95.5-38.6-23.8-25.3-33.8-56.8-33.8-93.6v-3c0-36,9.7-68,33.8-93.6,25.6-27.1,59.4-38.6,95.5-38.6h7.8c68.4,0,98.1,40.9,98.1,72.8s-13.8,37.5-34.6,37.5-28.6-8.5-36-21.9c-8.2-14.5-18.9-19.7-34.6-19.7s-24.2,4.1-31.6,14.1c-7.4,10-9.7,26.4-9.7,43.8v14.1c0,18.2,3,34.2,9.7,43.8,7.8,11.1,18.6,14.1,31.2,14.1s26.8-4.5,34.6-19.7c6.7-13,14.9-21.9,36-21.9s34.6,14.5,34.6,37.5c0,32.7-29.3,72.8-97.7,72.8h-7.8Z"/>
            <path class="cls-3" d="M1413.7,507.3c12.3-15.2,30.1-24.9,50.5-24.9s61.7,19.3,61.7,69.1v84c0,25.6-15.2,38.3-34.6,38.3h-9.7c-19.3,0-34.6-12.6-34.6-38.3v-66.1c0-11.5-4.5-19.7-13.8-19.7s-19.7,9.3-19.7,30.8v55c0,25.6-15.2,38.3-34.6,38.3h-9.7c-19.3,0-34.6-12.6-34.6-38.3v-191c0-25.6,15.2-38.3,34.6-38.3h9.7c19.3,0,34.6,12.6,34.6,38.3v62.8h0Z"/>
            <path class="cls-3" d="M1726.1,609.1c17.1,0,29.3,5.9,29.3,29.7v5.2c0,19.3-5.9,29.7-33.4,29.7h-22.7c-21.2,0-40.1-4.8-48.3-21.9-9.3,9.7-29.3,21.9-57.2,21.9s-53.1-10.8-53.1-46.1,39.8-53.1,71-61.3c20.4-5.6,37.2-10,37.2-21.5s-4.8-13.4-17.1-13.4c-26.8,0-28.2,30.1-60.2,30.1s-27.1-10-27.1-25.3c0-22.7,26.4-53.9,93.2-53.9s88.4,20.8,88.4,73.9v52.8h0ZM1652.6,580.1c-17.5,14.9-39.8,13.4-39.8,28.6s3.7,10.8,10.4,10.8c11.2,0,29.3-15.2,29.3-39.4Z"/>
            <path class="cls-3" d="M1821.6,406.3c20.4,0,27.9,8.9,23.8,30.1l-31.2,155.7c-.7,3-10.8,3-11.5,0l-31.2-155.7c-4.1-21.2,4.5-30.1,24.9-30.1h25.3ZM1776.3,637.7c0-18.6,11.2-29.7,29-29.7h6.3c17.8,0,28.6,11.1,28.6,29.7v6.7c0,18.2-10.8,29.3-28.6,29.3h-6.3c-17.8,0-29-11.2-29-29.3v-6.7Z"/>
          </g>
          <g>
            <path class="cls-1" d="M1210.5,673.7c-36,0-69.5-11.2-95.5-38.6-23.8-25.3-33.8-56.8-33.8-93.6v-3c0-36,9.7-68,33.8-93.6,25.6-27.1,59.4-38.6,95.5-38.6h7.8c68.4,0,98.1,40.9,98.1,72.8s-13.8,37.5-34.6,37.5-28.6-8.5-36-21.9c-8.2-14.5-18.9-19.7-34.6-19.7s-24.2,4.1-31.6,14.1c-7.4,10-9.7,26.4-9.7,43.8v14.1c0,18.2,3,34.2,9.7,43.8,7.8,11.1,18.6,14.1,31.2,14.1s26.8-4.5,34.6-19.7c6.7-13,14.9-21.9,36-21.9s34.6,14.5,34.6,37.5c0,32.7-29.3,72.8-97.7,72.8h-7.8Z"/>
            <path class="cls-1" d="M1413.7,507.3c12.3-15.2,30.1-24.9,50.5-24.9s61.7,19.3,61.7,69.1v84c0,25.6-15.2,38.3-34.6,38.3h-9.7c-19.3,0-34.6-12.6-34.6-38.3v-66.1c0-11.5-4.5-19.7-13.8-19.7s-19.7,9.3-19.7,30.8v55c0,25.6-15.2,38.3-34.6,38.3h-9.7c-19.3,0-34.6-12.6-34.6-38.3v-191c0-25.6,15.2-38.3,34.6-38.3h9.7c19.3,0,34.6,12.6,34.6,38.3v62.8h0Z"/>
            <path class="cls-1" d="M1726.1,609.1c17.1,0,29.3,5.9,29.3,29.7v5.2c0,19.3-5.9,29.7-33.4,29.7h-22.7c-21.2,0-40.1-4.8-48.3-21.9-9.3,9.7-29.3,21.9-57.2,21.9s-53.1-10.8-53.1-46.1,39.8-53.1,71-61.3c20.4-5.6,37.2-10,37.2-21.5s-4.8-13.4-17.1-13.4c-26.8,0-28.2,30.1-60.2,30.1s-27.1-10-27.1-25.3c0-22.7,26.4-53.9,93.2-53.9s88.4,20.8,88.4,73.9v52.8h0ZM1652.6,580.1c-17.5,14.9-39.8,13.4-39.8,28.6s3.7,10.8,10.4,10.8c11.2,0,29.3-15.2,29.3-39.4Z"/>
            <path class="cls-1" d="M1821.6,406.3c20.4,0,27.9,8.9,23.8,30.1l-31.2,155.7c-.7,3-10.8,3-11.5,0l-31.2-155.7c-4.1-21.2,4.5-30.1,24.9-30.1h25.3ZM1776.3,637.7c0-18.6,11.2-29.7,29-29.7h6.3c17.8,0,28.6,11.1,28.6,29.7v6.7c0,18.2-10.8,29.3-28.6,29.3h-6.3c-17.8,0-29-11.2-29-29.3v-6.7Z"/>
          </g>
        </g>
      </g>
    </g>
  </g>
</svg>
