<svg version="1.2" xmlns="http://www.w3.org/2000/svg" viewBox="0 0 981 982" width="981" height="982">
	<style>
		.s0 { fill: #007936 } 
		.s1 { fill: #000000 } 
		.s2 { fill: none;stroke: #ffffff;stroke-width: 1 } 
		.s3 { fill: none;stroke: #ffffff;stroke-linecap: round;stroke-linejoin: round;stroke-width: 48.4 } 
		.s4 { fill: #ffffff } 
		.s5 { fill: #ffffff;stroke: #ffffff;stroke-width: 1 } 
		.s6 { fill: none;stroke: #ffffff;stroke-linecap: round;stroke-linejoin: round;stroke-width: 42.5 } 
		.s7 { fill: none;stroke: #ffffff;stroke-linecap: round;stroke-linejoin: round;stroke-width: 26.2 } 
		.s8 { fill: none;stroke: #ffffff;stroke-linecap: round;stroke-linejoin: round;stroke-width: 27.7 } 
	</style>
	<path fill-rule="evenodd" class="s0" d="m490.5 981.17c-271.06 0-490.17-219.11-490.17-490.17 0-271.06 219.11-490.17 490.17-490.17 271.06 0 490.17 219.11 490.17 490.17 0 271.06-219.11 490.17-490.17 490.17z"/>
	<g>
		<g>
			<g>
				<g>
					<path class="s1" d="m282.39 412.22c-6.49-7.69-10.86-13.99-16.33-19.13-18.4-17.29-45.02-10.81-53.76 12.95-5.99 16.3-3.43 32.59 1.71 48.44 12.53 38.66 35.85 70.74 65.37 97.62 23.33 21.24 43.49 44.01 59.87 71.16 17.28 28.64 40.71 52.66 69.66 70.24 12.34 7.49 25.82 13.12 40.09 20.25 0.12 3.52-0.36 8.92 0.6 14.06 4 21.5 20.31 34.51 44.88 33.82 12.79-0.36 25.91-2.79 38.13-6.67 34.16-10.83 66.03-26.21 89.68-54.4 5.59-6.67 10.3-14.58 13.48-22.67 7.16-18.2 2.85-34.14-14.11-48.06 5.25-4.96 10.46-9.51 15.25-14.46 23.55-24.35 42.05-51.77 47.28-85.93 1.83-11.97 1.64-24.76-0.4-36.71-3.99-23.45-16.39-34.1-41.17-38.84-6.72-39.07-25.11-69.64-63.21-84.67-37.09-14.64-72.54-10.94-105.43 14.09-5.91-10.73-5.95-21.78-4.83-32.68 2.06-20.14 5.2-40.18 7.24-60.33 0.98-9.72 1.06-19.62 0.5-29.37-0.93-16.13-6.9-29.85-22.86-36.47-16.75-6.95-32.95-5.08-47.61 5.84-15.2 11.32-23.28 27.57-28.05 45.18-4.44 16.38-7 33.26-11.61 50.36-0.15-4.32-0.08-8.66-0.49-12.96-0.86-8.82-1.48-17.7-3.11-26.39-3.09-16.49-11.56-28.61-29.01-32.54-18.66-4.2-34.72-0.07-46.6 15.49-12.26 16.06-15.38 35.15-16.26 54.65-1.23 27.43 2.48 54.34 9.47 80.83 0.47 1.79 0.81 3.61 1.63 7.3zm323.87 70.72c-4.12 8.72-7.23 16.34-11.19 23.48-15.64 28.23-45.76 28.59-62.21 0.83-2.08-3.51-3.86-7.29-5.22-11.14-5.64-15.92-1.5-29.29 11.33-37.45 12.76-8.12 20.93-6.47 34.76 7.68 8.64 8.83 18.03 15.93 32.52 16.6z"/>
					<path class="s2" d="m282.39 412.22c-6.49-7.69-10.86-13.99-16.33-19.13-18.4-17.29-45.02-10.81-53.76 12.95-5.99 16.3-3.43 32.59 1.71 48.44 12.53 38.66 35.85 70.74 65.37 97.62 23.33 21.24 43.49 44.01 59.87 71.16 17.28 28.64 40.71 52.66 69.66 70.24 12.34 7.49 25.82 13.12 40.09 20.25 0.12 3.52-0.36 8.92 0.6 14.06 4 21.5 20.31 34.51 44.88 33.82 12.79-0.36 25.91-2.79 38.13-6.67 34.16-10.83 66.03-26.21 89.68-54.4 5.59-6.67 10.3-14.58 13.48-22.67 7.16-18.2 2.85-34.14-14.11-48.06 5.25-4.96 10.46-9.51 15.25-14.46 23.55-24.35 42.05-51.77 47.28-85.93 1.83-11.97 1.64-24.76-0.4-36.71-3.99-23.45-16.39-34.1-41.17-38.84-6.72-39.07-25.11-69.64-63.21-84.67-37.09-14.64-72.54-10.94-105.43 14.09-5.91-10.73-5.95-21.78-4.83-32.68 2.06-20.14 5.2-40.18 7.24-60.33 0.98-9.72 1.06-19.62 0.5-29.37-0.93-16.13-6.9-29.85-22.86-36.47-16.75-6.95-32.95-5.08-47.61 5.84-15.2 11.32-23.28 27.57-28.05 45.18-4.44 16.38-7 33.26-11.61 50.36-0.15-4.32-0.08-8.66-0.49-12.96-0.86-8.82-1.48-17.7-3.11-26.39-3.09-16.49-11.56-28.61-29.01-32.54-18.66-4.2-34.72-0.07-46.6 15.49-12.26 16.06-15.38 35.15-16.26 54.65-1.23 27.43 2.48 54.34 9.47 80.83 0.47 1.79 0.81 3.61 1.63 7.3zm323.87 70.72c-4.12 8.72-7.23 16.34-11.19 23.48-15.64 28.23-45.76 28.59-62.21 0.83-2.08-3.51-3.86-7.29-5.22-11.14-5.64-15.92-1.5-29.29 11.33-37.45 12.76-8.12 20.93-6.47 34.76 7.68 8.64 8.83 18.03 15.93 32.52 16.6z"/>
					<path class="s3" d="m282.39 412.22c-6.49-7.69-10.86-13.99-16.33-19.13-18.4-17.29-45.02-10.81-53.76 12.95-5.99 16.3-3.43 32.59 1.71 48.44 12.53 38.66 35.85 70.74 65.37 97.62 23.33 21.24 43.49 44.01 59.87 71.16 17.28 28.64 40.71 52.66 69.66 70.24 12.34 7.49 25.82 13.12 40.09 20.25 0.12 3.52-0.36 8.92 0.6 14.06 4 21.5 20.31 34.51 44.88 33.82 12.79-0.36 25.91-2.79 38.13-6.67 34.16-10.83 66.03-26.21 89.68-54.4 5.59-6.67 10.3-14.58 13.48-22.67 7.16-18.2 2.85-34.14-14.11-48.06 5.25-4.96 10.46-9.51 15.25-14.46 23.55-24.35 42.05-51.77 47.28-85.93 1.83-11.97 1.64-24.76-0.4-36.71-3.99-23.45-16.39-34.1-41.17-38.84-6.72-39.07-25.11-69.64-63.21-84.67-37.09-14.64-72.54-10.94-105.43 14.09-5.91-10.73-5.95-21.78-4.83-32.68 2.06-20.14 5.2-40.18 7.24-60.33 0.98-9.72 1.06-19.62 0.5-29.37-0.93-16.13-6.9-29.85-22.86-36.47-16.75-6.95-32.95-5.08-47.61 5.84-15.2 11.32-23.28 27.57-28.05 45.18-4.44 16.38-7 33.26-11.61 50.36-0.15-4.32-0.08-8.66-0.49-12.96-0.86-8.82-1.48-17.7-3.11-26.39-3.09-16.49-11.56-28.61-29.01-32.54-18.66-4.2-34.72-0.07-46.6 15.49-12.26 16.06-15.38 35.15-16.26 54.65-1.23 27.43 2.48 54.34 9.47 80.83 0.47 1.79 0.81 3.61 1.63 7.3zm323.87 70.72c-4.12 8.72-7.23 16.34-11.19 23.48-15.64 28.23-45.76 28.59-62.21 0.83-2.08-3.51-3.86-7.29-5.22-11.14-5.64-15.92-1.5-29.29 11.33-37.45 12.76-8.12 20.93-6.47 34.76 7.68 8.64 8.83 18.03 15.93 32.52 16.6z"/>
					<path class="s4" d="m282.39 412.22c-6.49-7.69-10.86-13.99-16.33-19.13-18.4-17.29-45.02-10.81-53.76 12.95-5.99 16.3-3.43 32.59 1.71 48.44 12.53 38.66 35.85 70.74 65.37 97.62 23.33 21.24 43.49 44.01 59.87 71.16 17.28 28.64 40.71 52.66 69.66 70.24 12.34 7.49 25.82 13.12 40.09 20.25 0.12 3.52-0.36 8.92 0.6 14.06 4 21.5 20.31 34.51 44.88 33.82 12.79-0.36 25.91-2.79 38.13-6.67 34.16-10.83 66.03-26.21 89.68-54.4 5.59-6.67 10.3-14.58 13.48-22.67 7.16-18.2 2.85-34.14-14.11-48.06 5.25-4.96 10.46-9.51 15.25-14.46 23.55-24.35 42.05-51.77 47.28-85.93 1.83-11.97 1.64-24.76-0.4-36.71-3.99-23.45-16.39-34.1-41.17-38.84-6.72-39.07-25.11-69.64-63.21-84.67-37.09-14.64-72.54-10.94-105.43 14.09-5.91-10.73-5.95-21.78-4.83-32.68 2.06-20.14 5.2-40.18 7.24-60.33 0.98-9.72 1.06-19.62 0.5-29.37-0.93-16.13-6.9-29.85-22.86-36.47-16.75-6.95-32.95-5.08-47.61 5.84-15.2 11.32-23.28 27.57-28.05 45.18-4.44 16.38-7 33.26-11.61 50.36-0.15-4.32-0.08-8.66-0.49-12.96-0.86-8.82-1.48-17.7-3.11-26.39-3.09-16.49-11.56-28.61-29.01-32.54-18.66-4.2-34.72-0.07-46.6 15.49-12.26 16.06-15.38 35.15-16.26 54.65-1.23 27.43 2.48 54.34 9.47 80.83 0.47 1.79 0.81 3.61 1.63 7.3zm323.87 70.72c-4.12 8.72-7.23 16.34-11.19 23.48-15.64 28.23-45.76 28.59-62.21 0.83-2.08-3.51-3.86-7.29-5.22-11.14-5.64-15.92-1.5-29.29 11.33-37.45 12.76-8.12 20.93-6.47 34.76 7.68 8.64 8.83 18.03 15.93 32.52 16.6z"/>
				</g>
				<path fill-rule="evenodd" class="s5" d="m565.7 538.7c-31.21 1.08-57.09-16.97-57.89-40.38-0.81-23.41 23.77-43.19 54.98-44.27 31.21-1.07 57.09 16.98 57.89 40.39 0.81 23.4-23.77 43.19-54.98 44.26z"/>
			</g>
			<g>
				<path class="s1" d="m282.39 412.22c-6.49-7.69-10.86-13.99-16.33-19.13-18.4-17.29-45.02-10.81-53.76 12.95-5.99 16.3-3.43 32.59 1.71 48.44 12.53 38.66 35.85 70.74 65.37 97.62 23.33 21.24 43.49 44.01 59.87 71.16 17.28 28.64 40.71 52.66 69.66 70.24 12.34 7.49 25.82 13.12 40.09 20.25 0.12 3.52-0.36 8.92 0.6 14.06 4 21.5 20.31 34.51 44.88 33.82 12.79-0.36 25.91-2.79 38.13-6.67 34.16-10.83 66.03-26.21 89.68-54.4 5.59-6.67 10.3-14.58 13.48-22.67 7.16-18.2 2.85-34.14-14.11-48.06 5.25-4.96 10.46-9.51 15.25-14.46 23.55-24.35 42.05-51.77 47.28-85.93 1.83-11.97 1.64-24.76-0.4-36.71-3.99-23.45-16.39-34.1-41.17-38.84-6.72-39.07-25.11-69.64-63.21-84.67-37.09-14.64-72.54-10.94-105.43 14.09-5.91-10.73-5.95-21.78-4.83-32.68 2.06-20.14 5.2-40.18 7.24-60.33 0.98-9.72 1.06-19.62 0.5-29.37-0.93-16.13-6.9-29.85-22.86-36.47-16.75-6.95-32.95-5.08-47.61 5.84-15.2 11.32-23.28 27.57-28.05 45.18-4.44 16.38-7 33.26-11.61 50.36-0.15-4.32-0.08-8.66-0.49-12.96-0.86-8.82-1.48-17.7-3.11-26.39-3.09-16.49-11.56-28.61-29.01-32.54-18.66-4.2-34.72-0.07-46.6 15.49-12.26 16.06-15.38 35.15-16.26 54.65-1.23 27.43 2.48 54.34 9.47 80.83 0.47 1.79 0.81 3.61 1.63 7.3zm187.76 304.42c7.54-0.7 14.2-2.61 13.71-11.38-0.46-8.19-7.31-8.69-13.63-10.43-13.64-3.76-27.85-6.82-40.33-13.12-32.84-16.57-57.78-42.77-76.12-73.88-15.35-26.03-34.35-47.6-56.83-67.44-27.28-24.08-49.52-52.79-61.5-87.78-3.68-10.74-4.74-22.83-4.52-34.25 0.09-4.83 5.74-11.66 10.48-13.56 3.24-1.3 10.81 3.18 13.75 7.09 7.58 10.07 13.29 21.51 20.43 31.94 8.35 12.22 15.62 26.1 26.65 35.31 12.35 10.32 26.69 18.5 39.03 29.27 5.22 4.56 11.6 4.13 15.7-1.96 3.86-5.75 1.52-10.88-3.85-14.71-14.85-10.57-25.64-24.85-33.23-40.89-19.6-41.45-32-84.9-27.35-131.29 1.28-12.79 6.26-25.65 11.75-37.45 4.39-9.45 14.59-10.05 24.23-8.35 9.27 1.64 13.13 8.22 14.35 16.68 1.26 8.77 2.35 17.58 2.98 26.41 2.06 28.99 6.99 57.17 21.34 83.03 4.88 8.8 8.83 18.1 13.46 27.04 4.21 8.12 8.52 16.22 13.29 24.02 3.4 5.55 8.66 7.91 14.49 3.64 5.99-4.38 4.73-9.63 1.76-15.91-5.89-12.42-11.72-25.06-15.53-38.21-3.14-10.82-3.94-22.46-4.7-33.81-2.1-31.51-0.98-62.91 10.9-92.62 3.87-9.68 9.92-19.53 17.58-26.42 15.53-13.96 35.15-5.88 38.08 14.58 0.62 4.35 0.83 8.89 0.35 13.25-2.26 20.44-5.41 40.8-7.13 61.29-1.61 19.19-3.73 38.92 6.63 56.56 3.49 5.95 3.23 9.86-0.23 15.22-5.1 7.91-4.04 15.24 2.21 17.95 8.41 3.64 12.02-2.22 15.25-8.46 8.96-17.3 23.04-28.55 41.75-33.3 43.75-11.11 90.31 8.02 104.37 58.83 1.22 4.42-0.02 13.11-2.6 14.26-5.65 2.52-13.48 3.28-19.3 1.36-5.48-1.81-9.82-7.7-14.15-12.28-19.48-20.62-53.89-14.47-69.97 7.35-22.2 30.14-0.31 82.81 38.31 92.93 13.68 3.58 26.32 1.14 38.15-6.33 11.88-7.5 20.33-17.89 26.27-30.53 4.3-9.16 8.23-18.59 13.53-27.15 6.52-10.52 19.6-10.86 27-0.96 3.12 4.17 5.3 9.41 6.62 14.5 4.84 18.68 0.5 36.48-6.68 53.68-14.88 35.63-43.63 60.16-70.24 86.27-7.22 7.08-9.88 12.2-5.27 17.31 6.36 7.07 12.41 3.61 18.24-1.1q1.12-0.89 2.25-1.75c6.61-5.11 11.82-4.46 14.28 3.39 1.66 5.29 2.32 12.94-0.34 17.14-6.84 10.78-14.52 21.7-24.14 29.89-22.53 19.19-49.4 30.56-78.11 37.28-7.31 1.71-15.08 2.54-22.57 2.21-14.77-0.65-21.63-8.84-20.87-24.36zm136.11-233.7c-4.12 8.72-7.23 16.34-11.19 23.48-15.64 28.23-45.76 28.59-62.21 0.83-2.08-3.51-3.86-7.29-5.22-11.14-5.64-15.92-1.5-29.29 11.33-37.45 12.76-8.12 20.93-6.47 34.76 7.68 8.64 8.83 18.03 15.93 32.52 16.6z"/>
				<path class="s2" d="m282.39 412.22c-6.49-7.69-10.86-13.99-16.33-19.13-18.4-17.29-45.02-10.81-53.76 12.95-5.99 16.3-3.43 32.59 1.71 48.44 12.53 38.66 35.85 70.74 65.37 97.62 23.33 21.24 43.49 44.01 59.87 71.16 17.28 28.64 40.71 52.66 69.66 70.24 12.34 7.49 25.82 13.12 40.09 20.25 0.12 3.52-0.36 8.92 0.6 14.06 4 21.5 20.31 34.51 44.88 33.82 12.79-0.36 25.91-2.79 38.13-6.67 34.16-10.83 66.03-26.21 89.68-54.4 5.59-6.67 10.3-14.58 13.48-22.67 7.16-18.2 2.85-34.14-14.11-48.06 5.25-4.96 10.46-9.51 15.25-14.46 23.55-24.35 42.05-51.77 47.28-85.93 1.83-11.97 1.64-24.76-0.4-36.71-3.99-23.45-16.39-34.1-41.17-38.84-6.72-39.07-25.11-69.64-63.21-84.67-37.09-14.64-72.54-10.94-105.43 14.09-5.91-10.73-5.95-21.78-4.83-32.68 2.06-20.14 5.2-40.18 7.24-60.33 0.98-9.72 1.06-19.62 0.5-29.37-0.93-16.13-6.9-29.85-22.86-36.47-16.75-6.95-32.95-5.08-47.61 5.84-15.2 11.32-23.28 27.57-28.05 45.18-4.44 16.38-7 33.26-11.61 50.36-0.15-4.32-0.08-8.66-0.49-12.96-0.86-8.82-1.48-17.7-3.11-26.39-3.09-16.49-11.56-28.61-29.01-32.54-18.66-4.2-34.72-0.07-46.6 15.49-12.26 16.06-15.38 35.15-16.26 54.65-1.23 27.43 2.48 54.34 9.47 80.83 0.47 1.79 0.81 3.61 1.63 7.3zm187.76 304.42c7.54-0.7 14.2-2.61 13.71-11.38-0.46-8.19-7.31-8.69-13.63-10.43-13.64-3.76-27.85-6.82-40.33-13.12-32.84-16.57-57.78-42.77-76.12-73.88-15.35-26.03-34.35-47.6-56.83-67.44-27.28-24.08-49.52-52.79-61.5-87.78-3.68-10.74-4.74-22.83-4.52-34.25 0.09-4.83 5.74-11.66 10.48-13.56 3.24-1.3 10.81 3.18 13.75 7.09 7.58 10.07 13.29 21.51 20.43 31.94 8.35 12.22 15.62 26.1 26.65 35.31 12.35 10.32 26.69 18.5 39.03 29.27 5.22 4.56 11.6 4.13 15.7-1.96 3.86-5.75 1.52-10.88-3.85-14.71-14.85-10.57-25.64-24.85-33.23-40.89-19.6-41.45-32-84.9-27.35-131.29 1.28-12.79 6.26-25.65 11.75-37.45 4.39-9.45 14.59-10.05 24.23-8.35 9.27 1.64 13.13 8.22 14.35 16.68 1.26 8.77 2.35 17.58 2.98 26.41 2.06 28.99 6.99 57.17 21.34 83.03 4.88 8.8 8.83 18.1 13.46 27.04 4.21 8.12 8.52 16.22 13.29 24.02 3.4 5.55 8.66 7.91 14.49 3.64 5.99-4.38 4.73-9.63 1.76-15.91-5.89-12.42-11.72-25.06-15.53-38.21-3.14-10.82-3.94-22.46-4.7-33.81-2.1-31.51-0.98-62.91 10.9-92.62 3.87-9.68 9.92-19.53 17.58-26.42 15.53-13.96 35.15-5.88 38.08 14.58 0.62 4.35 0.83 8.89 0.35 13.25-2.26 20.44-5.41 40.8-7.13 61.29-1.61 19.19-3.73 38.92 6.63 56.56 3.49 5.95 3.23 9.86-0.23 15.22-5.1 7.91-4.04 15.24 2.21 17.95 8.41 3.64 12.02-2.22 15.25-8.46 8.96-17.3 23.04-28.55 41.75-33.3 43.75-11.11 90.31 8.02 104.37 58.83 1.22 4.42-0.02 13.11-2.6 14.26-5.65 2.52-13.48 3.28-19.3 1.36-5.48-1.81-9.82-7.7-14.15-12.28-19.48-20.62-53.89-14.47-69.97 7.35-22.2 30.14-0.31 82.81 38.31 92.93 13.68 3.58 26.32 1.14 38.15-6.33 11.88-7.5 20.33-17.89 26.27-30.53 4.3-9.16 8.23-18.59 13.53-27.15 6.52-10.52 19.6-10.86 27-0.96 3.12 4.17 5.3 9.41 6.62 14.5 4.84 18.68 0.5 36.48-6.68 53.68-14.88 35.63-43.63 60.16-70.24 86.27-7.22 7.08-9.88 12.2-5.27 17.31 6.36 7.07 12.41 3.61 18.24-1.1q1.12-0.89 2.25-1.75c6.61-5.11 11.82-4.46 14.28 3.39 1.66 5.29 2.32 12.94-0.34 17.14-6.84 10.78-14.52 21.7-24.14 29.89-22.53 19.19-49.4 30.56-78.11 37.28-7.31 1.71-15.08 2.54-22.57 2.21-14.77-0.65-21.63-8.84-20.87-24.36zm136.11-233.7c-4.12 8.72-7.23 16.34-11.19 23.48-15.64 28.23-45.76 28.59-62.21 0.83-2.08-3.51-3.86-7.29-5.22-11.14-5.64-15.92-1.5-29.29 11.33-37.45 12.76-8.12 20.93-6.47 34.76 7.68 8.64 8.83 18.03 15.93 32.52 16.6z"/>
				<path class="s3" d="m282.39 412.22c-6.49-7.69-10.86-13.99-16.33-19.13-18.4-17.29-45.02-10.81-53.76 12.95-5.99 16.3-3.43 32.59 1.71 48.44 12.53 38.66 35.85 70.74 65.37 97.62 23.33 21.24 43.49 44.01 59.87 71.16 17.28 28.64 40.71 52.66 69.66 70.24 12.34 7.49 25.82 13.12 40.09 20.25 0.12 3.52-0.36 8.92 0.6 14.06 4 21.5 20.31 34.51 44.88 33.82 12.79-0.36 25.91-2.79 38.13-6.67 34.16-10.83 66.03-26.21 89.68-54.4 5.59-6.67 10.3-14.58 13.48-22.67 7.16-18.2 2.85-34.14-14.11-48.06 5.25-4.96 10.46-9.51 15.25-14.46 23.55-24.35 42.05-51.77 47.28-85.93 1.83-11.97 1.64-24.76-0.4-36.71-3.99-23.45-16.39-34.1-41.17-38.84-6.72-39.07-25.11-69.64-63.21-84.67-37.09-14.64-72.54-10.94-105.43 14.09-5.91-10.73-5.95-21.78-4.83-32.68 2.06-20.14 5.2-40.18 7.24-60.33 0.98-9.72 1.06-19.62 0.5-29.37-0.93-16.13-6.9-29.85-22.86-36.47-16.75-6.95-32.95-5.08-47.61 5.84-15.2 11.32-23.28 27.57-28.05 45.18-4.44 16.38-7 33.26-11.61 50.36-0.15-4.32-0.08-8.66-0.49-12.96-0.86-8.82-1.48-17.7-3.11-26.39-3.09-16.49-11.56-28.61-29.01-32.54-18.66-4.2-34.72-0.07-46.6 15.49-12.26 16.06-15.38 35.15-16.26 54.65-1.23 27.43 2.48 54.34 9.47 80.83 0.47 1.79 0.81 3.61 1.63 7.3zm187.76 304.42c7.54-0.7 14.2-2.61 13.71-11.38-0.46-8.19-7.31-8.69-13.63-10.43-13.64-3.76-27.85-6.82-40.33-13.12-32.84-16.57-57.78-42.77-76.12-73.88-15.35-26.03-34.35-47.6-56.83-67.44-27.28-24.08-49.52-52.79-61.5-87.78-3.68-10.74-4.74-22.83-4.52-34.25 0.09-4.83 5.74-11.66 10.48-13.56 3.24-1.3 10.81 3.18 13.75 7.09 7.58 10.07 13.29 21.51 20.43 31.94 8.35 12.22 15.62 26.1 26.65 35.31 12.35 10.32 26.69 18.5 39.03 29.27 5.22 4.56 11.6 4.13 15.7-1.96 3.86-5.75 1.52-10.88-3.85-14.71-14.85-10.57-25.64-24.85-33.23-40.89-19.6-41.45-32-84.9-27.35-131.29 1.28-12.79 6.26-25.65 11.75-37.45 4.39-9.45 14.59-10.05 24.23-8.35 9.27 1.64 13.13 8.22 14.35 16.68 1.26 8.77 2.35 17.58 2.98 26.41 2.06 28.99 6.99 57.17 21.34 83.03 4.88 8.8 8.83 18.1 13.46 27.04 4.21 8.12 8.52 16.22 13.29 24.02 3.4 5.55 8.66 7.91 14.49 3.64 5.99-4.38 4.73-9.63 1.76-15.91-5.89-12.42-11.72-25.06-15.53-38.21-3.14-10.82-3.94-22.46-4.7-33.81-2.1-31.51-0.98-62.91 10.9-92.62 3.87-9.68 9.92-19.53 17.58-26.42 15.53-13.96 35.15-5.88 38.08 14.58 0.62 4.35 0.83 8.89 0.35 13.25-2.26 20.44-5.41 40.8-7.13 61.29-1.61 19.19-3.73 38.92 6.63 56.56 3.49 5.95 3.23 9.86-0.23 15.22-5.1 7.91-4.04 15.24 2.21 17.95 8.41 3.64 12.02-2.22 15.25-8.46 8.96-17.3 23.04-28.55 41.75-33.3 43.75-11.11 90.31 8.02 104.37 58.83 1.22 4.42-0.02 13.11-2.6 14.26-5.65 2.52-13.48 3.28-19.3 1.36-5.48-1.81-9.82-7.7-14.15-12.28-19.48-20.62-53.89-14.47-69.97 7.35-22.2 30.14-0.31 82.81 38.31 92.93 13.68 3.58 26.32 1.14 38.15-6.33 11.88-7.5 20.33-17.89 26.27-30.53 4.3-9.16 8.23-18.59 13.53-27.15 6.52-10.52 19.6-10.86 27-0.96 3.12 4.17 5.3 9.41 6.62 14.5 4.84 18.68 0.5 36.48-6.68 53.68-14.88 35.63-43.63 60.16-70.24 86.27-7.22 7.08-9.88 12.2-5.27 17.31 6.36 7.07 12.41 3.61 18.24-1.1q1.12-0.89 2.25-1.75c6.61-5.11 11.82-4.46 14.28 3.39 1.66 5.29 2.32 12.94-0.34 17.14-6.84 10.78-14.52 21.7-24.14 29.89-22.53 19.19-49.4 30.56-78.11 37.28-7.31 1.71-15.08 2.54-22.57 2.21-14.77-0.65-21.63-8.84-20.87-24.36zm136.11-233.7c-4.12 8.72-7.23 16.34-11.19 23.48-15.64 28.23-45.76 28.59-62.21 0.83-2.08-3.51-3.86-7.29-5.22-11.14-5.64-15.92-1.5-29.29 11.33-37.45 12.76-8.12 20.93-6.47 34.76 7.68 8.64 8.83 18.03 15.93 32.52 16.6z"/>
				<path class="s0" d="m282.39 412.22c-6.49-7.69-10.86-13.99-16.33-19.13-18.4-17.29-45.02-10.81-53.76 12.95-5.99 16.3-3.43 32.59 1.71 48.44 12.53 38.66 35.85 70.74 65.37 97.62 23.33 21.24 43.49 44.01 59.87 71.16 17.28 28.64 40.71 52.66 69.66 70.24 12.34 7.49 25.82 13.12 40.09 20.25 0.12 3.52-0.36 8.92 0.6 14.06 4 21.5 20.31 34.51 44.88 33.82 12.79-0.36 25.91-2.79 38.13-6.67 34.16-10.83 66.03-26.21 89.68-54.4 5.59-6.67 10.3-14.58 13.48-22.67 7.16-18.2 2.85-34.14-14.11-48.06 5.25-4.96 10.46-9.51 15.25-14.46 23.55-24.35 42.05-51.77 47.28-85.93 1.83-11.97 1.64-24.76-0.4-36.71-3.99-23.45-16.39-34.1-41.17-38.84-6.72-39.07-25.11-69.64-63.21-84.67-37.09-14.64-72.54-10.94-105.43 14.09-5.91-10.73-5.95-21.78-4.83-32.68 2.06-20.14 5.2-40.18 7.24-60.33 0.98-9.72 1.06-19.62 0.5-29.37-0.93-16.13-6.9-29.85-22.86-36.47-16.75-6.95-32.95-5.08-47.61 5.84-15.2 11.32-23.28 27.57-28.05 45.18-4.44 16.38-7 33.26-11.61 50.36-0.15-4.32-0.08-8.66-0.49-12.96-0.86-8.82-1.48-17.7-3.11-26.39-3.09-16.49-11.56-28.61-29.01-32.54-18.66-4.2-34.72-0.07-46.6 15.49-12.26 16.06-15.38 35.15-16.26 54.65-1.23 27.43 2.48 54.34 9.47 80.83 0.47 1.79 0.81 3.61 1.63 7.3zm187.76 304.42c7.54-0.7 14.2-2.61 13.71-11.38-0.46-8.19-7.31-8.69-13.63-10.43-13.64-3.76-27.85-6.82-40.33-13.12-32.84-16.57-57.78-42.77-76.12-73.88-15.35-26.03-34.35-47.6-56.83-67.44-27.28-24.08-49.52-52.79-61.5-87.78-3.68-10.74-4.74-22.83-4.52-34.25 0.09-4.83 5.74-11.66 10.48-13.56 3.24-1.3 10.81 3.18 13.75 7.09 7.58 10.07 13.29 21.51 20.43 31.94 8.35 12.22 15.62 26.1 26.65 35.31 12.35 10.32 26.69 18.5 39.03 29.27 5.22 4.56 11.6 4.13 15.7-1.96 3.86-5.75 1.52-10.88-3.85-14.71-14.85-10.57-25.64-24.85-33.23-40.89-19.6-41.45-32-84.9-27.35-131.29 1.28-12.79 6.26-25.65 11.75-37.45 4.39-9.45 14.59-10.05 24.23-8.35 9.27 1.64 13.13 8.22 14.35 16.68 1.26 8.77 2.35 17.58 2.98 26.41 2.06 28.99 6.99 57.17 21.34 83.03 4.88 8.8 8.83 18.1 13.46 27.04 4.21 8.12 8.52 16.22 13.29 24.02 3.4 5.55 8.66 7.91 14.49 3.64 5.99-4.38 4.73-9.63 1.76-15.91-5.89-12.42-11.72-25.06-15.53-38.21-3.14-10.82-3.94-22.46-4.7-33.81-2.1-31.51-0.98-62.91 10.9-92.62 3.87-9.68 9.92-19.53 17.58-26.42 15.53-13.96 35.15-5.88 38.08 14.58 0.62 4.35 0.83 8.89 0.35 13.25-2.26 20.44-5.41 40.8-7.13 61.29-1.61 19.19-3.73 38.92 6.63 56.56 3.49 5.95 3.23 9.86-0.23 15.22-5.1 7.91-4.04 15.24 2.21 17.95 8.41 3.64 12.02-2.22 15.25-8.46 8.96-17.3 23.04-28.55 41.75-33.3 43.75-11.11 90.31 8.02 104.37 58.83 1.22 4.42-0.02 13.11-2.6 14.26-5.65 2.52-13.48 3.28-19.3 1.36-5.48-1.81-9.82-7.7-14.15-12.28-19.48-20.62-53.89-14.47-69.97 7.35-22.2 30.14-0.31 82.81 38.31 92.93 13.68 3.58 26.32 1.14 38.15-6.33 11.88-7.5 20.33-17.89 26.27-30.53 4.3-9.16 8.23-18.59 13.53-27.15 6.52-10.52 19.6-10.86 27-0.96 3.12 4.17 5.3 9.41 6.62 14.5 4.84 18.68 0.5 36.48-6.68 53.68-14.88 35.63-43.63 60.16-70.24 86.27-7.22 7.08-9.88 12.2-5.27 17.31 6.36 7.07 12.41 3.61 18.24-1.1q1.12-0.89 2.25-1.75c6.61-5.11 11.82-4.46 14.28 3.39 1.66 5.29 2.32 12.94-0.34 17.14-6.84 10.78-14.52 21.7-24.14 29.89-22.53 19.19-49.4 30.56-78.11 37.28-7.31 1.71-15.08 2.54-22.57 2.21-14.77-0.65-21.63-8.84-20.87-24.36zm136.11-233.7c-4.12 8.72-7.23 16.34-11.19 23.48-15.64 28.23-45.76 28.59-62.21 0.83-2.08-3.51-3.86-7.29-5.22-11.14-5.64-15.92-1.5-29.29 11.33-37.45 12.76-8.12 20.93-6.47 34.76 7.68 8.64 8.83 18.03 15.93 32.52 16.6z"/>
			</g>
		</g>
		<g>
			<path class="s6" d="m745.2 332.81c9.38 16.45 17.96 31.48 26.97 47.29-32.05 18.38-63.17 36.24-95.37 54.71-8.93-14.1-17.37-27.42-26.57-41.94 31.7-20.05 62.62-39.61 94.97-60.06z"/>
			<path class="s0" d="m745.2 332.81c9.38 16.45 17.96 31.48 26.97 47.29-32.05 18.38-63.17 36.24-95.37 54.71-8.93-14.1-17.37-27.42-26.57-41.94 31.7-20.05 62.62-39.61 94.97-60.06z"/>
		</g>
		<g>
			<path class="s7" d="m698.43 490.11c0.54-10.09 1.02-19.21 1.56-29.4 19.77 1 39.25 1.98 59.63 3.01-1.24 11.32-2.41 22.05-3.65 33.39-19.32-2.35-38.06-4.64-57.54-7z"/>
			<path class="s0" d="m698.43 490.11c0.54-10.09 1.02-19.21 1.56-29.4 19.77 1 39.25 1.98 59.63 3.01-1.24 11.32-2.41 22.05-3.65 33.39-19.32-2.35-38.06-4.64-57.54-7z"/>
		</g>
		<g>
			<path class="s8" d="m632.78 367.93c-9.78-4.31-18.62-8.21-28.5-12.56 8.4-19.18 16.67-38.08 25.33-57.85 10.74 5.47 20.91 10.65 31.66 16.13-9.57 18.23-18.85 35.91-28.5 54.29z"/>
			<path class="s0" d="m632.78 367.93c-9.78-4.31-18.62-8.21-28.5-12.56 8.4-19.18 16.67-38.08 25.33-57.85 10.74 5.47 20.91 10.65 31.66 16.13-9.57 18.23-18.85 35.91-28.5 54.29z"/>
		</g>
	</g>
</svg>