<svg version="1.2" xmlns="http://www.w3.org/2000/svg" viewBox="0 0 1746 706" width="1746" height="706">
	<style>
		.s0 { fill: #ffffff } 
		.s1 { fill: none;stroke: #ffffff;stroke-width: 55.2 } 
		.s2 { fill: #ef8a00 } 
		.s3 { fill: #000000 } 
		.s4 { fill: none;stroke: #ffffff;stroke-width: 1.2 } 
		.s5 { fill: none;stroke: #ffffff;stroke-linecap: round;stroke-linejoin: round;stroke-width: 56.9 } 
		.s6 { fill: #ffffff;stroke: #ffffff;stroke-width: 1.2 } 
		.s7 { fill: #f3af24 } 
		.s8 { fill: none;stroke: #ffffff;stroke-linecap: round;stroke-linejoin: round;stroke-width: 34.3 } 
		.s9 { fill: none;stroke: #ffffff;stroke-linecap: round;stroke-linejoin: round;stroke-width: 22.4 } 
	</style>
	<g>
		<g id="_Шар_1">
			<g>
				<path fill-rule="evenodd" class="s0" d="m596.8 417.8l12.8-45.1 53.6 7.2-53.6 58.6-12.8-20.7z"/>
				<path fill-rule="evenodd" class="s0" d="m561.1 551.5l14.3-10.5 7.1-29-16.4-21.4-24 30.4 19 30.5z"/>
				<g>
					<path fill-rule="evenodd" class="s0" d="m1417.6 676.4l19.9-442.8-907.9 18.8 19.1 300.4 868.9 123.6z"/>
					<path fill-rule="evenodd" class="s0" d="m713 500.8l80.6-4.7v80l-56.9-13.6h-28.5l4.8-61.7z"/>
					<g>
						<g>
							<path class="s0" d="m918.8 37c34.7 0 49.2 15.4 49.2 57.4v193.5c0 42-14.6 57.4-49.2 57.4h-9c-34.7 0-49.2-15.4-49.2-57.4v-118.6l-43.7 150.7c-6 20.1-17.1 25.3-33.8 25.3h-6.8c-17.5 0-31.2-6.4-37.7-26.5l-48-149v118.2c0 15-0.9 28.3-5.6 37.7-6.4 12.8-19.3 19.7-33 19.7h-6.8c-13.7 0-26.5-6.8-33-19.7-4.7-9.4-5.6-22.7-5.6-37.7v-193.5c0-42 14.6-57.4 49.7-57.4h60.8c22.7 0 36 5.1 44.1 28.3l30 86.9 25.3-87.3c6.4-21.8 20.5-27.8 45.4-27.8h56.9z"/>
							<path class="s0" d="m993.7 168.9c0-29.5 17.6-44.1 39.8-44.1h11.1c22.3 0 39.8 14.6 39.8 44.1v132.3c0 29.5-17.6 44.1-39.8 44.1h-11.1c-22.3 0-39.8-14.6-39.8-44.1zm6.8-95.1c0-20.1 17.1-36.8 38.5-36.8 21.4 0 38.5 16.7 38.5 36.8 0 20.1-17.6 37.7-38.5 37.7-20.9 0-38.5-16.7-38.5-37.7z"/>
							<path class="s0" d="m1224.4 124.8c16.7 0 20.1 12.4 20.1 32.1v6.4c0 19.7-3.4 32.1-20.1 32.1h-10.3v71.9c11.6 0.9 20.6 8.6 20.6 22.7 0 20.5-9.8 55.2-55.7 55.2-45.9 0-55.7-21.8-55.7-66.8v-83.1h-6c-16.7 0-20.1-12.4-20.1-32.1v-6.4c0-19.7 3.4-32.1 20.1-32.1h6v-20.5c0-25.3 15.8-27 26.1-39 10.3-12 11.1-28.3 33.8-28.3 22.7 0 30.8 19.7 30.8 44.1v43.7h10.3z"/>
							<path class="s0" d="m1350.3 153.4c14.1-17.5 34.7-28.7 58.2-28.7 23.5 0 71.1 22.3 71.1 79.6v96.8c0 29.5-17.6 44.1-39.8 44.1h-11.1c-22.3 0-39.8-14.6-39.8-44.1v-76.2c0-13.3-5.1-22.7-15.8-22.7-10.7 0-22.7 10.7-22.7 35.5v63.4c0 29.5-17.6 44.1-39.8 44.1h-11.1c-22.3 0-39.8-14.6-39.8-44.1v-220.1c0-29.5 17.6-44.1 39.8-44.1h11.1c22.3 0 39.8 14.6 39.8 44.1v72.4z"/>
							<path class="s0" d="m1496.7 235.2c0-65.1 49.7-110.4 110.4-110.4 60.7 0 110.4 45.4 110.4 110.5 0 65.1-49.7 110-110.4 110-60.7 0-110.4-45.4-110.4-110zm131.4 0c0-21.8-7.7-35.1-21-35.1-13.3 0-21 13.3-21 35.1 0 21.8 7.7 35.5 21 35.5 13.3 0 21-13.3 21-35.5z"/>
							<path class="s0" d="m747.1 677.7c-41.5 0-80.1-12.8-110-44.5-27.4-29.1-39-65.5-39-107.9v-3.4c0-41.5 11.1-78.3 39-107.9 29.5-31.2 68.5-44.5 110-44.5h9c78.8 0 113 47.1 113 83.9 0 36.8-15.8 43.2-39.8 43.2-24 0-33-9.8-41.5-25.3-9.4-16.7-21.8-22.7-39.8-22.7-18 0-27.8 4.7-36.4 16.3-8.6 11.6-11.1 30.4-11.1 50.5v16.3c0 21 3.4 39.4 11.1 50.5 9 12.8 21.4 16.3 36 16.3 14.6 0 30.8-5.1 39.8-22.7 7.7-15 17.1-25.3 41.5-25.3 24.4 0 39.8 16.7 39.8 43.2 0 37.7-33.8 83.9-112.6 83.9h-9z"/>
							<path class="s0" d="m981.3 485.9c14.1-17.5 34.7-28.7 58.2-28.7 23.5 0 71.1 22.3 71.1 79.6v96.8c0 29.5-17.6 44.1-39.8 44.1h-11.1c-22.3 0-39.8-14.6-39.8-44.1v-76.2c0-13.3-5.1-22.7-15.8-22.7-10.7 0-22.7 10.7-22.7 35.5v63.4c0 29.5-17.6 44.1-39.8 44.1h-11.1c-22.3 0-39.8-14.6-39.8-44.1v-220c0-29.5 17.5-44.1 39.8-44.1h11.1c22.3 0 39.8 14.6 39.8 44.1v72.3z"/>
							<path class="s0" d="m1341.3 603.2c19.7 0 33.8 6.8 33.8 34.2v6c0 22.3-6.8 34.2-38.5 34.2h-26.1c-24.4 0-46.2-5.6-55.7-25.3-10.7 11.1-33.8 25.3-65.9 25.3-32.1 0-61.2-12.4-61.2-53.1 0-40.7 45.8-61.2 81.8-70.6 23.6-6.4 42.8-11.6 42.8-24.8 0-13.2-5.6-15.4-19.7-15.4-30.8 0-32.5 34.7-69.3 34.7-36.8 0-31.2-11.6-31.2-29.1 0-26.1 30.4-62.1 107.5-62.1 77.1 0 101.9 24 101.9 85.2v60.8zm-84.8-33.4c-20.1 17.1-45.8 15.4-45.8 33 0 17.6 4.3 12.4 12 12.4 12.8 0 33.8-17.5 33.8-45.4z"/>
							<path class="s0" d="m1451.3 369.4c23.6 0 32.1 10.3 27.4 34.7l-36 179.4c-0.9 3.4-12.4 3.4-13.3 0l-36-179.4c-4.7-24.4 5.1-34.7 28.7-34.7h29.1zm-52.2 266.7c0-21.4 12.8-34.2 33.4-34.2h7.3c20.6 0 33 12.8 33 34.2v7.7c0 21-12.4 33.8-33 33.8h-7.3c-20.6 0-33.4-12.8-33.4-33.8z"/>
						</g>
						<g>
							<path class="s1" d="m918.8 37c34.7 0 49.2 15.4 49.2 57.4v193.5c0 42-14.6 57.4-49.2 57.4h-9c-34.7 0-49.2-15.4-49.2-57.4v-118.6l-43.7 150.7c-6 20.1-17.1 25.3-33.8 25.3h-6.8c-17.5 0-31.2-6.4-37.7-26.5l-48-149v118.2c0 15-0.9 28.3-5.6 37.7-6.4 12.8-19.3 19.7-33 19.7h-6.8c-13.7 0-26.5-6.8-33-19.7-4.7-9.4-5.6-22.7-5.6-37.7v-193.5c0-42 14.6-57.4 49.7-57.4h60.8c22.7 0 36 5.1 44.1 28.3l30 86.9 25.3-87.3c6.4-21.8 20.5-27.8 45.4-27.8h56.9z"/>
							<path class="s1" d="m993.7 168.9c0-29.5 17.6-44.1 39.8-44.1h11.1c22.3 0 39.8 14.6 39.8 44.1v132.3c0 29.5-17.6 44.1-39.8 44.1h-11.1c-22.3 0-39.8-14.6-39.8-44.1zm6.8-95.1c0-20.1 17.1-36.8 38.5-36.8 21.4 0 38.5 16.7 38.5 36.8 0 20.1-17.6 37.7-38.5 37.7-20.9 0-38.5-16.7-38.5-37.7z"/>
							<path class="s1" d="m1224.4 124.8c16.7 0 20.1 12.4 20.1 32.1v6.4c0 19.7-3.4 32.1-20.1 32.1h-10.3v71.9c11.6 0.9 20.6 8.6 20.6 22.7 0 20.5-9.8 55.2-55.7 55.2-45.9 0-55.7-21.8-55.7-66.8v-83.1h-6c-16.7 0-20.1-12.4-20.1-32.1v-6.4c0-19.7 3.4-32.1 20.1-32.1h6v-20.5c0-25.3 15.8-27 26.1-39 10.3-12 11.1-28.3 33.8-28.3 22.7 0 30.8 19.7 30.8 44.1v43.7h10.3z"/>
							<path class="s1" d="m1350.3 153.4c14.1-17.5 34.7-28.7 58.2-28.7 23.5 0 71.1 22.3 71.1 79.6v96.8c0 29.5-17.6 44.1-39.8 44.1h-11.1c-22.3 0-39.8-14.6-39.8-44.1v-76.2c0-13.3-5.1-22.7-15.8-22.7-10.7 0-22.7 10.7-22.7 35.5v63.4c0 29.5-17.6 44.1-39.8 44.1h-11.1c-22.3 0-39.8-14.6-39.8-44.1v-220.1c0-29.5 17.6-44.1 39.8-44.1h11.1c22.3 0 39.8 14.6 39.8 44.1v72.4z"/>
							<path class="s1" d="m1496.7 235.2c0-65.1 49.7-110.4 110.4-110.4 60.7 0 110.4 45.4 110.4 110.5 0 65.1-49.7 110-110.4 110-60.7 0-110.4-45.4-110.4-110zm131.4 0c0-21.8-7.7-35.1-21-35.1-13.3 0-21 13.3-21 35.1 0 21.8 7.7 35.5 21 35.5 13.3 0 21-13.3 21-35.5z"/>
							<path class="s1" d="m747.1 677.7c-41.5 0-80.1-12.8-110-44.5-27.4-29.1-39-65.5-39-107.9v-3.4c0-41.5 11.1-78.3 39-107.9 29.5-31.2 68.5-44.5 110-44.5h9c78.8 0 113 47.1 113 83.9 0 36.8-15.8 43.2-39.8 43.2-24 0-33-9.8-41.5-25.3-9.4-16.7-21.8-22.7-39.8-22.7-18 0-27.8 4.7-36.4 16.3-8.6 11.6-11.1 30.4-11.1 50.5v16.3c0 21 3.4 39.4 11.1 50.5 9 12.8 21.4 16.3 36 16.3 14.6 0 30.8-5.1 39.8-22.7 7.7-15 17.1-25.3 41.5-25.3 24.4 0 39.8 16.7 39.8 43.2 0 37.7-33.8 83.9-112.6 83.9h-9z"/>
							<path class="s1" d="m981.3 485.9c14.1-17.5 34.7-28.7 58.2-28.7 23.5 0 71.1 22.3 71.1 79.6v96.8c0 29.5-17.6 44.1-39.8 44.1h-11.1c-22.3 0-39.8-14.6-39.8-44.1v-76.2c0-13.3-5.1-22.7-15.8-22.7-10.7 0-22.7 10.7-22.7 35.5v63.4c0 29.5-17.6 44.1-39.8 44.1h-11.1c-22.3 0-39.8-14.6-39.8-44.1v-220c0-29.5 17.5-44.1 39.8-44.1h11.1c22.3 0 39.8 14.6 39.8 44.1v72.3z"/>
							<path class="s1" d="m1341.3 603.2c19.7 0 33.8 6.8 33.8 34.2v6c0 22.3-6.8 34.2-38.5 34.2h-26.1c-24.4 0-46.2-5.6-55.7-25.3-10.7 11.1-33.8 25.3-65.9 25.3-32.1 0-61.2-12.4-61.2-53.1 0-40.7 45.8-61.2 81.8-70.6 23.6-6.4 42.8-11.6 42.8-24.8 0-13.2-5.6-15.4-19.7-15.4-30.8 0-32.5 34.7-69.3 34.7-36.8 0-31.2-11.6-31.2-29.1 0-26.1 30.4-62.1 107.5-62.1 77.1 0 101.9 24 101.9 85.2v60.8zm-84.8-33.4c-20.1 17.1-45.8 15.4-45.8 33 0 17.6 4.3 12.4 12 12.4 12.8 0 33.8-17.5 33.8-45.4z"/>
							<path class="s1" d="m1451.3 369.4c23.6 0 32.1 10.3 27.4 34.7l-36 179.4c-0.9 3.4-12.4 3.4-13.3 0l-36-179.4c-4.7-24.4 5.1-34.7 28.7-34.7h29.1zm-52.2 266.7c0-21.4 12.8-34.2 33.4-34.2h7.3c20.6 0 33 12.8 33 34.2v7.7c0 21-12.4 33.8-33 33.8h-7.3c-20.6 0-33.4-12.8-33.4-33.8z"/>
						</g>
						<g>
							<path class="s2" d="m918.8 37c34.7 0 49.2 15.4 49.2 57.4v193.5c0 42-14.6 57.4-49.2 57.4h-9c-34.7 0-49.2-15.4-49.2-57.4v-118.6l-43.7 150.7c-6 20.1-17.1 25.3-33.8 25.3h-6.8c-17.5 0-31.2-6.4-37.7-26.5l-48-149v118.2c0 15-0.9 28.3-5.6 37.7-6.4 12.8-19.3 19.7-33 19.7h-6.8c-13.7 0-26.5-6.8-33-19.7-4.7-9.4-5.6-22.7-5.6-37.7v-193.5c0-42 14.6-57.4 49.7-57.4h60.8c22.7 0 36 5.1 44.1 28.3l30 86.9 25.3-87.3c6.4-21.8 20.5-27.8 45.4-27.8h56.9z"/>
							<path class="s2" d="m993.7 168.9c0-29.5 17.6-44.1 39.8-44.1h11.1c22.3 0 39.8 14.6 39.8 44.1v132.3c0 29.5-17.6 44.1-39.8 44.1h-11.1c-22.3 0-39.8-14.6-39.8-44.1zm6.8-95.1c0-20.1 17.1-36.8 38.5-36.8 21.4 0 38.5 16.7 38.5 36.8 0 20.1-17.6 37.7-38.5 37.7-20.9 0-38.5-16.7-38.5-37.7z"/>
							<path class="s2" d="m1224.4 124.8c16.7 0 20.1 12.4 20.1 32.1v6.4c0 19.7-3.4 32.1-20.1 32.1h-10.3v71.9c11.6 0.9 20.6 8.6 20.6 22.7 0 20.5-9.8 55.2-55.7 55.2-45.9 0-55.7-21.8-55.7-66.8v-83.1h-6c-16.7 0-20.1-12.4-20.1-32.1v-6.4c0-19.7 3.4-32.1 20.1-32.1h6v-20.5c0-25.3 15.8-27 26.1-39 10.3-12 11.1-28.3 33.8-28.3 22.7 0 30.8 19.7 30.8 44.1v43.7h10.3z"/>
							<path class="s2" d="m1350.3 153.4c14.1-17.5 34.7-28.7 58.2-28.7 23.5 0 71.1 22.3 71.1 79.6v96.8c0 29.5-17.6 44.1-39.8 44.1h-11.1c-22.3 0-39.8-14.6-39.8-44.1v-76.2c0-13.3-5.1-22.7-15.8-22.7-10.7 0-22.7 10.7-22.7 35.5v63.4c0 29.5-17.6 44.1-39.8 44.1h-11.1c-22.3 0-39.8-14.6-39.8-44.1v-220.1c0-29.5 17.6-44.1 39.8-44.1h11.1c22.3 0 39.8 14.6 39.8 44.1v72.4z"/>
							<path class="s2" d="m1496.7 235.2c0-65.1 49.7-110.4 110.4-110.4 60.7 0 110.4 45.4 110.4 110.5 0 65.1-49.7 110-110.4 110-60.7 0-110.4-45.4-110.4-110zm131.4 0c0-21.8-7.7-35.1-21-35.1-13.3 0-21 13.3-21 35.1 0 21.8 7.7 35.5 21 35.5 13.3 0 21-13.3 21-35.5z"/>
							<path class="s2" d="m747.1 677.7c-41.5 0-80.1-12.8-110-44.5-27.4-29.1-39-65.5-39-107.9v-3.4c0-41.5 11.1-78.3 39-107.9 29.5-31.2 68.5-44.5 110-44.5h9c78.8 0 113 47.1 113 83.9 0 36.8-15.8 43.2-39.8 43.2-24 0-33-9.8-41.5-25.3-9.4-16.7-21.8-22.7-39.8-22.7-18 0-27.8 4.7-36.4 16.3-8.6 11.6-11.1 30.4-11.1 50.5v16.3c0 21 3.4 39.4 11.1 50.5 9 12.8 21.4 16.3 36 16.3 14.6 0 30.8-5.1 39.8-22.7 7.7-15 17.1-25.3 41.5-25.3 24.4 0 39.8 16.7 39.8 43.2 0 37.7-33.8 83.9-112.6 83.9h-9z"/>
							<path class="s2" d="m981.3 485.9c14.1-17.5 34.7-28.7 58.2-28.7 23.5 0 71.1 22.3 71.1 79.6v96.8c0 29.5-17.6 44.1-39.8 44.1h-11.1c-22.3 0-39.8-14.6-39.8-44.1v-76.2c0-13.3-5.1-22.7-15.8-22.7-10.7 0-22.7 10.7-22.7 35.5v63.4c0 29.5-17.6 44.1-39.8 44.1h-11.1c-22.3 0-39.8-14.6-39.8-44.1v-220c0-29.5 17.5-44.1 39.8-44.1h11.1c22.3 0 39.8 14.6 39.8 44.1v72.3z"/>
							<path class="s2" d="m1341.3 603.2c19.7 0 33.8 6.8 33.8 34.2v6c0 22.3-6.8 34.2-38.5 34.2h-26.1c-24.4 0-46.2-5.6-55.7-25.3-10.7 11.1-33.8 25.3-65.9 25.3-32.1 0-61.2-12.4-61.2-53.1 0-40.7 45.8-61.2 81.8-70.6 23.6-6.4 42.8-11.6 42.8-24.8 0-13.2-5.6-15.4-19.7-15.4-30.8 0-32.5 34.7-69.3 34.7-36.8 0-31.2-11.6-31.2-29.1 0-26.1 30.4-62.1 107.5-62.1 77.1 0 101.9 24 101.9 85.2v60.8zm-84.8-33.4c-20.1 17.1-45.8 15.4-45.8 33 0 17.6 4.3 12.4 12 12.4 12.8 0 33.8-17.5 33.8-45.4z"/>
							<path class="s2" d="m1451.3 369.4c23.6 0 32.1 10.3 27.4 34.7l-36 179.4c-0.9 3.4-12.4 3.4-13.3 0l-36-179.4c-4.7-24.4 5.1-34.7 28.7-34.7h29.1zm-52.2 266.7c0-21.4 12.8-34.2 33.4-34.2h7.3c20.6 0 33 12.8 33 34.2v7.7c0 21-12.4 33.8-33 33.8h-7.3c-20.6 0-33.4-12.8-33.4-33.8z"/>
						</g>
					</g>
				</g>
				<g>
					<g>
						<g>
							<g>
								<path class="s3" d="m114.9 254c-7.6-9-12.8-16.5-19.2-22.5-21.6-20.3-52.9-12.7-63.2 15.2-7.1 19.2-4 38.3 2 57 14.7 45.5 42.2 83.2 76.9 114.8 27.4 25 51.1 51.8 70.4 83.7 20.3 33.7 47.9 61.9 81.9 82.6 14.5 8.8 30.4 15.4 47.1 23.8 0.1 4.1-0.4 10.5 0.7 16.5 4.7 25.3 23.9 40.6 52.8 39.8 15-0.4 30.5-3.3 44.8-7.8 40.2-12.7 77.6-30.8 105.4-64 6.6-7.8 12.1-17.1 15.8-26.7 8.4-21.4 3.3-40.1-16.6-56.5 6.2-5.8 12.3-11.2 17.9-17 27.7-28.6 49.5-60.9 55.6-101 2.2-14.1 1.9-29.1-0.5-43.2-4.7-27.6-19.3-40.1-48.4-45.7-7.9-45.9-29.5-81.9-74.3-99.6-43.6-17.2-85.3-12.9-124 16.6-7-12.6-7-25.6-5.7-38.4 2.4-23.7 6.1-47.2 8.5-70.9 1.1-11.4 1.2-23.1 0.6-34.5-1.1-19-8.1-35.1-26.9-42.9-19.7-8.2-38.7-6-56 6.9-17.9 13.3-27.4 32.4-33 53.1-5.2 19.3-8.2 39.1-13.6 59.2-0.2-5.1 0-10.2-0.6-15.2-1-10.4-1.7-20.8-3.6-31-3.6-19.4-13.6-33.6-34.1-38.3-21.9-4.9-40.8 0-54.8 18.2-14.4 18.9-18.1 41.3-19.1 64.3-1.4 32.2 2.9 63.9 11.1 95 0.6 2.1 0.9 4.2 1.9 8.6zm380.8 83.1c-4.8 10.3-8.5 19.2-13.2 27.6-18.4 33.2-53.8 33.6-73.1 1-2.5-4.1-4.5-8.6-6.1-13.1-6.6-18.7-1.8-34.4 13.3-44 15-9.5 24.6-7.6 40.9 9 10.2 10.4 21.2 18.7 38.2 19.5z"/>
								<path class="s4" d="m114.9 254c-7.6-9-12.8-16.5-19.2-22.5-21.6-20.3-52.9-12.7-63.2 15.2-7.1 19.2-4 38.3 2 57 14.7 45.5 42.2 83.2 76.9 114.8 27.4 25 51.1 51.8 70.4 83.7 20.3 33.7 47.9 61.9 81.9 82.6 14.5 8.8 30.4 15.4 47.1 23.8 0.1 4.1-0.4 10.5 0.7 16.5 4.7 25.3 23.9 40.6 52.8 39.8 15-0.4 30.5-3.3 44.8-7.8 40.2-12.7 77.6-30.8 105.4-64 6.6-7.8 12.1-17.1 15.8-26.7 8.4-21.4 3.3-40.1-16.6-56.5 6.2-5.8 12.3-11.2 17.9-17 27.7-28.6 49.5-60.9 55.6-101 2.2-14.1 1.9-29.1-0.5-43.2-4.7-27.6-19.3-40.1-48.4-45.7-7.9-45.9-29.5-81.9-74.3-99.6-43.6-17.2-85.3-12.9-124 16.6-7-12.6-7-25.6-5.7-38.4 2.4-23.7 6.1-47.2 8.5-70.9 1.1-11.4 1.2-23.1 0.6-34.5-1.1-19-8.1-35.1-26.9-42.9-19.7-8.2-38.7-6-56 6.9-17.9 13.3-27.4 32.4-33 53.1-5.2 19.3-8.2 39.1-13.6 59.2-0.2-5.1 0-10.2-0.6-15.2-1-10.4-1.7-20.8-3.6-31-3.6-19.4-13.6-33.6-34.1-38.3-21.9-4.9-40.8 0-54.8 18.2-14.4 18.9-18.1 41.3-19.1 64.3-1.4 32.2 2.9 63.9 11.1 95 0.6 2.1 0.9 4.2 1.9 8.6zm380.8 83.1c-4.8 10.3-8.5 19.2-13.2 27.6-18.4 33.2-53.8 33.6-73.1 1-2.5-4.1-4.5-8.6-6.1-13.1-6.6-18.7-1.8-34.4 13.3-44 15-9.5 24.6-7.6 40.9 9 10.2 10.4 21.2 18.7 38.2 19.5z"/>
								<path class="s5" d="m114.9 254c-7.6-9-12.8-16.5-19.2-22.5-21.6-20.3-52.9-12.7-63.2 15.2-7.1 19.2-4 38.3 2 57 14.7 45.5 42.2 83.2 76.9 114.8 27.4 25 51.1 51.8 70.4 83.7 20.3 33.7 47.9 61.9 81.9 82.6 14.5 8.8 30.4 15.4 47.1 23.8 0.1 4.1-0.4 10.5 0.7 16.5 4.7 25.3 23.9 40.6 52.8 39.8 15-0.4 30.5-3.3 44.8-7.8 40.2-12.7 77.6-30.8 105.4-64 6.6-7.8 12.1-17.1 15.8-26.7 8.4-21.4 3.3-40.1-16.6-56.5 6.2-5.8 12.3-11.2 17.9-17 27.7-28.6 49.5-60.9 55.6-101 2.2-14.1 1.9-29.1-0.5-43.2-4.7-27.6-19.3-40.1-48.4-45.7-7.9-45.9-29.5-81.9-74.3-99.6-43.6-17.2-85.3-12.9-124 16.6-7-12.6-7-25.6-5.7-38.4 2.4-23.7 6.1-47.2 8.5-70.9 1.1-11.4 1.2-23.1 0.6-34.5-1.1-19-8.1-35.1-26.9-42.9-19.7-8.2-38.7-6-56 6.9-17.9 13.3-27.4 32.4-33 53.1-5.2 19.3-8.2 39.1-13.6 59.2-0.2-5.1 0-10.2-0.6-15.2-1-10.4-1.7-20.8-3.6-31-3.6-19.4-13.6-33.6-34.1-38.3-21.9-4.9-40.8 0-54.8 18.2-14.4 18.9-18.1 41.3-19.1 64.3-1.4 32.2 2.9 63.9 11.1 95 0.6 2.1 0.9 4.2 1.9 8.6zm380.8 83.1c-4.8 10.3-8.5 19.2-13.2 27.6-18.4 33.2-53.8 33.6-73.1 1-2.5-4.1-4.5-8.6-6.1-13.1-6.6-18.7-1.8-34.4 13.3-44 15-9.5 24.6-7.6 40.9 9 10.2 10.4 21.2 18.7 38.2 19.5z"/>
								<path class="s0" d="m114.9 254c-7.6-9-12.8-16.5-19.2-22.5-21.6-20.3-52.9-12.7-63.2 15.2-7.1 19.2-4 38.3 2 57 14.7 45.5 42.2 83.2 76.9 114.8 27.4 25 51.1 51.8 70.4 83.7 20.3 33.7 47.9 61.9 81.9 82.6 14.5 8.8 30.4 15.4 47.1 23.8 0.1 4.1-0.4 10.5 0.7 16.5 4.7 25.3 23.9 40.6 52.8 39.8 15-0.4 30.5-3.3 44.8-7.8 40.2-12.7 77.6-30.8 105.4-64 6.6-7.8 12.1-17.1 15.8-26.7 8.4-21.4 3.3-40.1-16.6-56.5 6.2-5.8 12.3-11.2 17.9-17 27.7-28.6 49.5-60.9 55.6-101 2.2-14.1 1.9-29.1-0.5-43.2-4.7-27.6-19.3-40.1-48.4-45.7-7.9-45.9-29.5-81.9-74.3-99.6-43.6-17.2-85.3-12.9-124 16.6-7-12.6-7-25.6-5.7-38.4 2.4-23.7 6.1-47.2 8.5-70.9 1.1-11.4 1.2-23.1 0.6-34.5-1.1-19-8.1-35.1-26.9-42.9-19.7-8.2-38.7-6-56 6.9-17.9 13.3-27.4 32.4-33 53.1-5.2 19.3-8.2 39.1-13.6 59.2-0.2-5.1 0-10.2-0.6-15.2-1-10.4-1.7-20.8-3.6-31-3.6-19.4-13.6-33.6-34.1-38.3-21.9-4.9-40.8 0-54.8 18.2-14.4 18.9-18.1 41.3-19.1 64.3-1.4 32.2 2.9 63.9 11.1 95 0.6 2.1 0.9 4.2 1.9 8.6zm380.8 83.1c-4.8 10.3-8.5 19.2-13.2 27.6-18.4 33.2-53.8 33.6-73.1 1-2.5-4.1-4.5-8.6-6.1-13.1-6.6-18.7-1.8-34.4 13.3-44 15-9.5 24.6-7.6 40.9 9 10.2 10.4 21.2 18.7 38.2 19.5z"/>
							</g>
							<path fill-rule="evenodd" class="s6" d="m448.36 402.43c-36.7 1.28-67.14-19.93-68.1-47.45-0.96-27.53 27.92-50.81 64.62-52.09 36.7-1.28 67.14 19.93 68.1 47.45 0.96 27.52-27.93 50.81-64.62 52.09z"/>
						</g>
						<g>
							<path class="s7" d="m114.9 254c-7.6-9-12.8-16.5-19.2-22.5-21.6-20.3-52.9-12.7-63.2 15.2-7.1 19.2-4 38.3 2 57 14.7 45.5 42.2 83.2 76.9 114.8 27.4 25 51.1 51.8 70.4 83.7 20.3 33.7 47.9 61.9 81.9 82.6 14.5 8.8 30.4 15.4 47.1 23.8 0.1 4.1-0.4 10.5 0.7 16.5 4.7 25.3 23.9 40.6 52.8 39.8 15-0.4 30.5-3.3 44.8-7.8 40.2-12.7 77.6-30.8 105.4-64 6.6-7.8 12.1-17.1 15.8-26.7 8.4-21.4 3.3-40.1-16.6-56.5 6.2-5.8 12.3-11.2 17.9-17 27.7-28.6 49.5-60.9 55.6-101 2.2-14.1 1.9-29.1-0.5-43.2-4.7-27.6-19.3-40.1-48.4-45.7-7.9-45.9-29.5-81.9-74.3-99.6-43.6-17.2-85.3-12.9-124 16.6-7-12.6-7-25.6-5.7-38.4 2.4-23.7 6.1-47.2 8.5-70.9 1.1-11.4 1.2-23.1 0.6-34.5-1.1-19-8.1-35.1-26.9-42.9-19.7-8.2-38.7-6-56 6.9-17.9 13.3-27.4 32.4-33 53.1-5.2 19.3-8.2 39.1-13.6 59.2-0.2-5.1 0-10.2-0.6-15.2-1-10.4-1.7-20.8-3.6-31-3.6-19.4-13.6-33.6-34.1-38.3-21.9-4.9-40.8 0-54.8 18.2-14.4 18.9-18.1 41.3-19.1 64.3-1.4 32.2 2.9 63.9 11.1 95 0.6 2.1 0.9 4.2 1.9 8.6zm220.8 357.9c8.9-0.8 16.7-3.1 16.1-13.4-0.5-9.6-8.6-10.2-16-12.3-16-4.4-32.7-8-47.4-15.4-38.6-19.5-67.9-50.3-89.5-86.9-18-30.6-40.4-56-66.8-79.3-32.1-28.3-58.2-62.1-72.3-103.2-4.3-12.6-5.6-26.8-5.3-40.3 0.1-5.7 6.8-13.7 12.3-16 3.8-1.5 12.7 3.7 16.2 8.3 8.9 11.8 15.6 25.3 24 37.6 9.8 14.4 18.4 30.7 31.3 41.5 14.5 12.1 31.4 21.8 45.9 34.4 6.1 5.4 13.6 4.9 18.5-2.3 4.5-6.8 1.8-12.8-4.5-17.3-17.5-12.4-30.1-29.2-39.1-48.1-23.1-48.8-37.6-99.8-32.2-154.4 1.5-15 7.4-30.2 13.8-44 5.2-11.1 17.1-11.8 28.5-9.8 10.9 1.9 15.4 9.7 16.9 19.6 1.5 10.3 2.8 20.7 3.5 31 2.4 34.1 8.2 67.2 25.1 97.6 5.7 10.3 10.4 21.3 15.8 31.8 5 9.5 10 19.1 15.6 28.2 4 6.5 10.2 9.3 17 4.3 7-5.1 5.6-11.3 2.1-18.7-6.9-14.6-13.8-29.5-18.3-44.9-3.7-12.7-4.6-26.4-5.5-39.8-2.5-37-1.2-74 12.8-108.9 4.5-11.4 11.7-23 20.7-31.1 18.3-16.4 41.3-6.9 44.8 17.1 0.7 5.1 1 10.5 0.4 15.6-2.7 24-6.4 48-8.4 72.1-1.9 22.6-4.4 45.8 7.8 66.5 4.1 7 3.8 11.6-0.3 17.9-6 9.3-4.8 17.9 2.6 21.1 9.9 4.3 14.1-2.6 17.9-10 10.5-20.3 27.1-33.6 49.1-39.1 51.4-13.1 106.2 9.4 122.7 69.2 1.4 5.2 0 15.4-3.1 16.8-6.6 3-15.8 3.9-22.7 1.6-6.5-2.1-11.5-9-16.6-14.4-22.9-24.2-63.4-17-82.3 8.6-26.1 35.4-0.4 97.4 45.1 109.3 16.1 4.2 31 1.3 44.9-7.4 14-8.8 23.9-21 30.9-35.9 5-10.8 9.7-21.9 15.9-31.9 7.7-12.4 23-12.8 31.7-1.1 3.7 4.9 6.2 11.1 7.8 17 5.7 22 0.6 42.9-7.8 63.1-17.5 41.9-51.3 70.7-82.6 101.4-8.5 8.3-11.6 14.3-6.2 20.4 7.5 8.3 14.6 4.2 21.5-1.3q1.35-1.05 2.7-2.1c7.8-6 13.9-5.2 16.8 4 2 6.2 2.7 15.2-0.4 20.2-8 12.7-17.1 25.5-28.4 35.2-26.5 22.6-58.1 35.9-91.9 43.8-8.6 2-17.7 3-26.5 2.6-17.4-0.8-25.4-10.4-24.5-28.7zm160-274.8c-4.8 10.3-8.5 19.2-13.2 27.6-18.4 33.2-53.8 33.6-73.1 1-2.5-4.1-4.5-8.6-6.1-13.1-6.6-18.7-1.8-34.4 13.3-44 15-9.5 24.6-7.6 40.9 9 10.2 10.4 21.2 18.7 38.2 19.5z"/>
							<path class="s4" d="m114.9 254c-7.6-9-12.8-16.5-19.2-22.5-21.6-20.3-52.9-12.7-63.2 15.2-7.1 19.2-4 38.3 2 57 14.7 45.5 42.2 83.2 76.9 114.8 27.4 25 51.1 51.8 70.4 83.7 20.3 33.7 47.9 61.9 81.9 82.6 14.5 8.8 30.4 15.4 47.1 23.8 0.1 4.1-0.4 10.5 0.7 16.5 4.7 25.3 23.9 40.6 52.8 39.8 15-0.4 30.5-3.3 44.8-7.8 40.2-12.7 77.6-30.8 105.4-64 6.6-7.8 12.1-17.1 15.8-26.7 8.4-21.4 3.3-40.1-16.6-56.5 6.2-5.8 12.3-11.2 17.9-17 27.7-28.6 49.5-60.9 55.6-101 2.2-14.1 1.9-29.1-0.5-43.2-4.7-27.6-19.3-40.1-48.4-45.7-7.9-45.9-29.5-81.9-74.3-99.6-43.6-17.2-85.3-12.9-124 16.6-7-12.6-7-25.6-5.7-38.4 2.4-23.7 6.1-47.2 8.5-70.9 1.1-11.4 1.2-23.1 0.6-34.5-1.1-19-8.1-35.1-26.9-42.9-19.7-8.2-38.7-6-56 6.9-17.9 13.3-27.4 32.4-33 53.1-5.2 19.3-8.2 39.1-13.6 59.2-0.2-5.1 0-10.2-0.6-15.2-1-10.4-1.7-20.8-3.6-31-3.6-19.4-13.6-33.6-34.1-38.3-21.9-4.9-40.8 0-54.8 18.2-14.4 18.9-18.1 41.3-19.1 64.3-1.4 32.2 2.9 63.9 11.1 95 0.6 2.1 0.9 4.2 1.9 8.6zm220.8 357.9c8.9-0.8 16.7-3.1 16.1-13.4-0.5-9.6-8.6-10.2-16-12.3-16-4.4-32.7-8-47.4-15.4-38.6-19.5-67.9-50.3-89.5-86.9-18-30.6-40.4-56-66.8-79.3-32.1-28.3-58.2-62.1-72.3-103.2-4.3-12.6-5.6-26.8-5.3-40.3 0.1-5.7 6.8-13.7 12.3-16 3.8-1.5 12.7 3.7 16.2 8.3 8.9 11.8 15.6 25.3 24 37.6 9.8 14.4 18.4 30.7 31.3 41.5 14.5 12.1 31.4 21.8 45.9 34.4 6.1 5.4 13.6 4.9 18.5-2.3 4.5-6.8 1.8-12.8-4.5-17.3-17.5-12.4-30.1-29.2-39.1-48.1-23.1-48.8-37.6-99.8-32.2-154.4 1.5-15 7.4-30.2 13.8-44 5.2-11.1 17.1-11.8 28.5-9.8 10.9 1.9 15.4 9.7 16.9 19.6 1.5 10.3 2.8 20.7 3.5 31 2.4 34.1 8.2 67.2 25.1 97.6 5.7 10.3 10.4 21.3 15.8 31.8 5 9.5 10 19.1 15.6 28.2 4 6.5 10.2 9.3 17 4.3 7-5.1 5.6-11.3 2.1-18.7-6.9-14.6-13.8-29.5-18.3-44.9-3.7-12.7-4.6-26.4-5.5-39.8-2.5-37-1.2-74 12.8-108.9 4.5-11.4 11.7-23 20.7-31.1 18.3-16.4 41.3-6.9 44.8 17.1 0.7 5.1 1 10.5 0.4 15.6-2.7 24-6.4 48-8.4 72.1-1.9 22.6-4.4 45.8 7.8 66.5 4.1 7 3.8 11.6-0.3 17.9-6 9.3-4.8 17.9 2.6 21.1 9.9 4.3 14.1-2.6 17.9-10 10.5-20.3 27.1-33.6 49.1-39.1 51.4-13.1 106.2 9.4 122.7 69.2 1.4 5.2 0 15.4-3.1 16.8-6.6 3-15.8 3.9-22.7 1.6-6.5-2.1-11.5-9-16.6-14.4-22.9-24.2-63.4-17-82.3 8.6-26.1 35.4-0.4 97.4 45.1 109.3 16.1 4.2 31 1.3 44.9-7.4 14-8.8 23.9-21 30.9-35.9 5-10.8 9.7-21.9 15.9-31.9 7.7-12.4 23-12.8 31.7-1.1 3.7 4.9 6.2 11.1 7.8 17 5.7 22 0.6 42.9-7.8 63.1-17.5 41.9-51.3 70.7-82.6 101.4-8.5 8.3-11.6 14.3-6.2 20.4 7.5 8.3 14.6 4.2 21.5-1.3q1.35-1.05 2.7-2.1c7.8-6 13.9-5.2 16.8 4 2 6.2 2.7 15.2-0.4 20.2-8 12.7-17.1 25.5-28.4 35.2-26.5 22.6-58.1 35.9-91.9 43.8-8.6 2-17.7 3-26.5 2.6-17.4-0.8-25.4-10.4-24.5-28.7zm160-274.8c-4.8 10.3-8.5 19.2-13.2 27.6-18.4 33.2-53.8 33.6-73.1 1-2.5-4.1-4.5-8.6-6.1-13.1-6.6-18.7-1.8-34.4 13.3-44 15-9.5 24.6-7.6 40.9 9 10.2 10.4 21.2 18.7 38.2 19.5z"/>
							<path class="s5" d="m114.9 254c-7.6-9-12.8-16.5-19.2-22.5-21.6-20.3-52.9-12.7-63.2 15.2-7.1 19.2-4 38.3 2 57 14.7 45.5 42.2 83.2 76.9 114.8 27.4 25 51.1 51.8 70.4 83.7 20.3 33.7 47.9 61.9 81.9 82.6 14.5 8.8 30.4 15.4 47.1 23.8 0.1 4.1-0.4 10.5 0.7 16.5 4.7 25.3 23.9 40.6 52.8 39.8 15-0.4 30.5-3.3 44.8-7.8 40.2-12.7 77.6-30.8 105.4-64 6.6-7.8 12.1-17.1 15.8-26.7 8.4-21.4 3.3-40.1-16.6-56.5 6.2-5.8 12.3-11.2 17.9-17 27.7-28.6 49.5-60.9 55.6-101 2.2-14.1 1.9-29.1-0.5-43.2-4.7-27.6-19.3-40.1-48.4-45.7-7.9-45.9-29.5-81.9-74.3-99.6-43.6-17.2-85.3-12.9-124 16.6-7-12.6-7-25.6-5.7-38.4 2.4-23.7 6.1-47.2 8.5-70.9 1.1-11.4 1.2-23.1 0.6-34.5-1.1-19-8.1-35.1-26.9-42.9-19.7-8.2-38.7-6-56 6.9-17.9 13.3-27.4 32.4-33 53.1-5.2 19.3-8.2 39.1-13.6 59.2-0.2-5.1 0-10.2-0.6-15.2-1-10.4-1.7-20.8-3.6-31-3.6-19.4-13.6-33.6-34.1-38.3-21.9-4.9-40.8 0-54.8 18.2-14.4 18.9-18.1 41.3-19.1 64.3-1.4 32.2 2.9 63.9 11.1 95 0.6 2.1 0.9 4.2 1.9 8.6zm220.8 357.9c8.9-0.8 16.7-3.1 16.1-13.4-0.5-9.6-8.6-10.2-16-12.3-16-4.4-32.7-8-47.4-15.4-38.6-19.5-67.9-50.3-89.5-86.9-18-30.6-40.4-56-66.8-79.3-32.1-28.3-58.2-62.1-72.3-103.2-4.3-12.6-5.6-26.8-5.3-40.3 0.1-5.7 6.8-13.7 12.3-16 3.8-1.5 12.7 3.7 16.2 8.3 8.9 11.8 15.6 25.3 24 37.6 9.8 14.4 18.4 30.7 31.3 41.5 14.5 12.1 31.4 21.8 45.9 34.4 6.1 5.4 13.6 4.9 18.5-2.3 4.5-6.8 1.8-12.8-4.5-17.3-17.5-12.4-30.1-29.2-39.1-48.1-23.1-48.8-37.6-99.8-32.2-154.4 1.5-15 7.4-30.2 13.8-44 5.2-11.1 17.1-11.8 28.5-9.8 10.9 1.9 15.4 9.7 16.9 19.6 1.5 10.3 2.8 20.7 3.5 31 2.4 34.1 8.2 67.2 25.1 97.6 5.7 10.3 10.4 21.3 15.8 31.8 5 9.5 10 19.1 15.6 28.2 4 6.5 10.2 9.3 17 4.3 7-5.1 5.6-11.3 2.1-18.7-6.9-14.6-13.8-29.5-18.3-44.9-3.7-12.7-4.6-26.4-5.5-39.8-2.5-37-1.2-74 12.8-108.9 4.5-11.4 11.7-23 20.7-31.1 18.3-16.4 41.3-6.9 44.8 17.1 0.7 5.1 1 10.5 0.4 15.6-2.7 24-6.4 48-8.4 72.1-1.9 22.6-4.4 45.8 7.8 66.5 4.1 7 3.8 11.6-0.3 17.9-6 9.3-4.8 17.9 2.6 21.1 9.9 4.3 14.1-2.6 17.9-10 10.5-20.3 27.1-33.6 49.1-39.1 51.4-13.1 106.2 9.4 122.7 69.2 1.4 5.2 0 15.4-3.1 16.8-6.6 3-15.8 3.9-22.7 1.6-6.5-2.1-11.5-9-16.6-14.4-22.9-24.2-63.4-17-82.3 8.6-26.1 35.4-0.4 97.4 45.1 109.3 16.1 4.2 31 1.3 44.9-7.4 14-8.8 23.9-21 30.9-35.9 5-10.8 9.7-21.9 15.9-31.9 7.7-12.4 23-12.8 31.7-1.1 3.7 4.9 6.2 11.1 7.8 17 5.7 22 0.6 42.9-7.8 63.1-17.5 41.9-51.3 70.7-82.6 101.4-8.5 8.3-11.6 14.3-6.2 20.4 7.5 8.3 14.6 4.2 21.5-1.3q1.35-1.05 2.7-2.1c7.8-6 13.9-5.2 16.8 4 2 6.2 2.7 15.2-0.4 20.2-8 12.7-17.1 25.5-28.4 35.2-26.5 22.6-58.1 35.9-91.9 43.8-8.6 2-17.7 3-26.5 2.6-17.4-0.8-25.4-10.4-24.5-28.7zm160-274.8c-4.8 10.3-8.5 19.2-13.2 27.6-18.4 33.2-53.8 33.6-73.1 1-2.5-4.1-4.5-8.6-6.1-13.1-6.6-18.7-1.8-34.4 13.3-44 15-9.5 24.6-7.6 40.9 9 10.2 10.4 21.2 18.7 38.2 19.5z"/>
							<path class="s2" d="m114.9 254c-7.6-9-12.8-16.5-19.2-22.5-21.6-20.3-52.9-12.7-63.2 15.2-7.1 19.2-4 38.3 2 57 14.7 45.5 42.2 83.2 76.9 114.8 27.4 25 51.1 51.8 70.4 83.7 20.3 33.7 47.9 61.9 81.9 82.6 14.5 8.8 30.4 15.4 47.1 23.8 0.1 4.1-0.4 10.5 0.7 16.5 4.7 25.3 23.9 40.6 52.8 39.8 15-0.4 30.5-3.3 44.8-7.8 40.2-12.7 77.6-30.8 105.4-64 6.6-7.8 12.1-17.1 15.8-26.7 8.4-21.4 3.3-40.1-16.6-56.5 6.2-5.8 12.3-11.2 17.9-17 27.7-28.6 49.5-60.9 55.6-101 2.2-14.1 1.9-29.1-0.5-43.2-4.7-27.6-19.3-40.1-48.4-45.7-7.9-45.9-29.5-81.9-74.3-99.6-43.6-17.2-85.3-12.9-124 16.6-7-12.6-7-25.6-5.7-38.4 2.4-23.7 6.1-47.2 8.5-70.9 1.1-11.4 1.2-23.1 0.6-34.5-1.1-19-8.1-35.1-26.9-42.9-19.7-8.2-38.7-6-56 6.9-17.9 13.3-27.4 32.4-33 53.1-5.2 19.3-8.2 39.1-13.6 59.2-0.2-5.1 0-10.2-0.6-15.2-1-10.4-1.7-20.8-3.6-31-3.6-19.4-13.6-33.6-34.1-38.3-21.9-4.9-40.8 0-54.8 18.2-14.4 18.9-18.1 41.3-19.1 64.3-1.4 32.2 2.9 63.9 11.1 95 0.6 2.1 0.9 4.2 1.9 8.6zm220.8 357.9c8.9-0.8 16.7-3.1 16.1-13.4-0.5-9.6-8.6-10.2-16-12.3-16-4.4-32.7-8-47.4-15.4-38.6-19.5-67.9-50.3-89.5-86.9-18-30.6-40.4-56-66.8-79.3-32.1-28.3-58.2-62.1-72.3-103.2-4.3-12.6-5.6-26.8-5.3-40.3 0.1-5.7 6.8-13.7 12.3-16 3.8-1.5 12.7 3.7 16.2 8.3 8.9 11.8 15.6 25.3 24 37.6 9.8 14.4 18.4 30.7 31.3 41.5 14.5 12.1 31.4 21.8 45.9 34.4 6.1 5.4 13.6 4.9 18.5-2.3 4.5-6.8 1.8-12.8-4.5-17.3-17.5-12.4-30.1-29.2-39.1-48.1-23.1-48.8-37.6-99.8-32.2-154.4 1.5-15 7.4-30.2 13.8-44 5.2-11.1 17.1-11.8 28.5-9.8 10.9 1.9 15.4 9.7 16.9 19.6 1.5 10.3 2.8 20.7 3.5 31 2.4 34.1 8.2 67.2 25.1 97.6 5.7 10.3 10.4 21.3 15.8 31.8 5 9.5 10 19.1 15.6 28.2 4 6.5 10.2 9.3 17 4.3 7-5.1 5.6-11.3 2.1-18.7-6.9-14.6-13.8-29.5-18.3-44.9-3.7-12.7-4.6-26.4-5.5-39.8-2.5-37-1.2-74 12.8-108.9 4.5-11.4 11.7-23 20.7-31.1 18.3-16.4 41.3-6.9 44.8 17.1 0.7 5.1 1 10.5 0.4 15.6-2.7 24-6.4 48-8.4 72.1-1.9 22.6-4.4 45.8 7.8 66.5 4.1 7 3.8 11.6-0.3 17.9-6 9.3-4.8 17.9 2.6 21.1 9.9 4.3 14.1-2.6 17.9-10 10.5-20.3 27.1-33.6 49.1-39.1 51.4-13.1 106.2 9.4 122.7 69.2 1.4 5.2 0 15.4-3.1 16.8-6.6 3-15.8 3.9-22.7 1.6-6.5-2.1-11.5-9-16.6-14.4-22.9-24.2-63.4-17-82.3 8.6-26.1 35.4-0.4 97.4 45.1 109.3 16.1 4.2 31 1.3 44.9-7.4 14-8.8 23.9-21 30.9-35.9 5-10.8 9.7-21.9 15.9-31.9 7.7-12.4 23-12.8 31.7-1.1 3.7 4.9 6.2 11.1 7.8 17 5.7 22 0.6 42.9-7.8 63.1-17.5 41.9-51.3 70.7-82.6 101.4-8.5 8.3-11.6 14.3-6.2 20.4 7.5 8.3 14.6 4.2 21.5-1.3q1.35-1.05 2.7-2.1c7.8-6 13.9-5.2 16.8 4 2 6.2 2.7 15.2-0.4 20.2-8 12.7-17.1 25.5-28.4 35.2-26.5 22.6-58.1 35.9-91.9 43.8-8.6 2-17.7 3-26.5 2.6-17.4-0.8-25.4-10.4-24.5-28.7zm160-274.8c-4.8 10.3-8.5 19.2-13.2 27.6-18.4 33.2-53.8 33.6-73.1 1-2.5-4.1-4.5-8.6-6.1-13.1-6.6-18.7-1.8-34.4 13.3-44 15-9.5 24.6-7.6 40.9 9 10.2 10.4 21.2 18.7 38.2 19.5z"/>
						</g>
					</g>
					<g>
						<path class="s8" d="m607.2 168.7c8.1 13 15.5 24.9 23.2 37.4-25.4 15.8-50 31.2-75.5 47-7.6-11.1-14.8-21.6-22.7-33.1 25-17.1 49.4-33.9 75-51.4z"/>
						<path class="s2" d="m607.2 168.7c8.1 13 15.5 24.9 23.2 37.4-25.4 15.8-50 31.2-75.5 47-7.6-11.1-14.8-21.6-22.7-33.1 25-17.1 49.4-33.9 75-51.4z"/>
					</g>
					<g>
						<path class="s9" d="m562.8 291c-0.6-8.6-1.2-16.4-1.8-25.1 16.9-1.2 33.5-2.5 50.9-3.7 0.2 9.7 0.3 19 0.4 28.7-16.7 0-32.8 0-49.6 0.1z"/>
						<path class="s2" d="m562.8 291c-0.6-8.6-1.2-16.4-1.8-25.1 16.9-1.2 33.5-2.5 50.9-3.7 0.2 9.7 0.3 19 0.4 28.7-16.7 0-32.8 0-49.6 0.1z"/>
					</g>
					<g>
						<path class="s9" d="m521.4 207.9c-8-3.2-15.3-6.1-23.4-9.3 6.2-15.8 12.3-31.3 18.8-47.5 8.8 4.1 17.2 8 26.1 12.1-7.2 15-14.2 29.6-21.4 44.7z"/>
						<path class="s2" d="m521.4 207.9c-8-3.2-15.3-6.1-23.4-9.3 6.2-15.8 12.3-31.3 18.8-47.5 8.8 4.1 17.2 8 26.1 12.1-7.2 15-14.2 29.6-21.4 44.7z"/>
					</g>
				</g>
			</g>
		</g>
	</g>
</svg>