<svg version="1.2" xmlns="http://www.w3.org/2000/svg" viewBox="0 0 1812 733" width="1812" height="733">
	<style>
		.s0 { fill: #ffffff } 
		.s1 { fill: none;stroke: #ffffff;stroke-width: 57.3 } 
		.s2 { fill: #007936 } 
		.s3 { fill: #000000 } 
		.s4 { fill: none;stroke: #ffffff;stroke-width: 1.2 } 
		.s5 { fill: none;stroke: #ffffff;stroke-linecap: round;stroke-linejoin: round;stroke-width: 59.1 } 
		.s6 { fill: #ffffff;stroke: #ffffff;stroke-width: 1.2 } 
		.s7 { fill: none;stroke: #ffffff;stroke-linecap: round;stroke-linejoin: round;stroke-width: 35.6 } 
		.s8 { fill: none;stroke: #ffffff;stroke-linecap: round;stroke-linejoin: round;stroke-width: 23.3 } 
	</style>
	<g>
		<g id="_Шар_1">
			<g>
				<path fill-rule="evenodd" class="s0" d="m549.6 262.6l17.4 273.2-4.4 5.6 5.3 8.5 1.6 24.5 901.7 128.2 20.7-459.5-942.3 19.5z"/>
				<g>
					<g>
						<path class="s0" d="m953.5 39c36 0 51.1 16 51.1 59.5v200.8c0 43.5-15.1 59.5-51.1 59.5h-9.3c-36 0-51.1-16-51.1-59.5v-123.1l-45.3 156.4c-6.2 20.9-17.8 26.2-35.1 26.2h-7.1c-18.2 0-32.4-6.7-39.1-27.5l-49.8-154.6v122.6c0 15.5-0.9 29.3-5.8 39.1-6.7 13.3-20 20.4-34.2 20.4h-7.1c-14.2 0-27.5-7.1-34.2-20.4-4.9-9.8-5.8-23.5-5.8-39.1v-200.8c0-43.5 15.1-59.5 51.5-59.5h63.1c23.5 0 37.3 5.3 45.8 29.3l31.1 90.2 26.2-90.6c6.7-22.7 21.3-28.9 47.1-28.9z"/>
						<path class="s0" d="m1031.2 175.9c0-30.7 18.2-45.8 41.3-45.8h11.6c23.1 0 41.3 15.1 41.3 45.8v137.3c0 30.7-18.2 45.8-41.3 45.8h-11.6c-23.1 0-41.3-15.1-41.3-45.8zm7.1-98.7c0-20.9 17.8-38.2 40-38.2 22.2 0 40 17.3 40 38.2 0 20.9-18.2 39.1-40 39.1-21.8 0-40-17.3-40-39.1z"/>
						<path class="s0" d="m1270.7 130.1c17.3 0 20.9 12.9 20.9 33.3v6.7c0 20.4-3.6 33.3-20.9 33.3h-10.7v74.6c12 0.9 21.3 8.9 21.3 23.5 0 21.3-10.2 57.3-57.8 57.3-47.6 0-57.8-22.7-57.8-69.3v-86.2h-6.2c-17.3 0-20.9-12.9-20.9-33.3v-6.7c0-20.4 3.6-33.3 20.9-33.3h6.2v-21.3c0-26.2 16.4-28 27.1-40.4 10.7-12.4 11.6-29.3 35.1-29.3 23.5 0 32 20.4 32 45.8v45.3h10.7z"/>
						<path class="s0" d="m1401.3 159.9c14.7-18.2 36-29.8 60.4-29.8 24.4 0 73.8 23.1 73.8 82.6v100.4c0 30.7-18.2 45.8-41.3 45.8h-11.6c-23.1 0-41.3-15.1-41.3-45.8v-79.1c0-13.8-5.3-23.5-16.4-23.5-11.1 0-23.6 11.1-23.6 36.9v65.8c0 30.7-18.2 45.8-41.3 45.8h-11.6c-23.1 0-41.3-15.1-41.3-45.8v-228.4c0-30.7 18.2-45.8 41.3-45.8h11.6c23.1 0 41.3 15.1 41.3 45.8z"/>
						<path class="s0" d="m1553.3 244.8c0-67.5 51.5-114.6 114.6-114.6 63.1 0 114.6 47.1 114.6 114.6 0 67.5-51.5 114.2-114.6 114.2-63.1 0-114.6-47.1-114.6-114.2zm136.4 0c0-22.7-8-36.4-21.8-36.4-13.8 0-21.8 13.8-21.8 36.4 0 22.6 8 36.9 21.8 36.9 13.8 0 21.8-13.8 21.8-36.9z"/>
						<path class="s0" d="m775.3 703.9c-43.1 0-83.1-13.3-114.2-46.2-28.4-30.2-40.4-68-40.4-112v-3.6c0-43.1 11.5-81.3 40.4-112 30.7-32.4 71.1-46.2 114.2-46.2h9.3c81.8 0 117.3 48.9 117.3 87.1 0 38.2-16.4 44.9-41.3 44.9-24.9 0-34.2-10.2-43.1-26.2-9.8-17.3-22.7-23.5-41.3-23.5-18.6 0-28.9 4.9-37.8 16.9-8.9 12-11.5 31.5-11.5 52.4v16.9c0 21.8 3.5 40.9 11.5 52.4 9.3 13.3 22.2 16.9 37.3 16.9 15.1 0 32-5.3 41.3-23.5 8-15.5 17.8-26.2 43.1-26.2 25.3 0 41.3 17.3 41.3 44.9 0 39.1-35.1 87.1-116.9 87.1h-9.3z"/>
						<path class="s0" d="m1018.3 504.9c14.7-18.2 36-29.8 60.4-29.8 24.4 0 73.8 23.1 73.8 82.6v100.4c0 30.7-18.2 45.8-41.3 45.8h-11.6c-23.1 0-41.3-15.1-41.3-45.8v-79.1c0-13.8-5.3-23.5-16.4-23.5-11.1 0-23.6 11.1-23.6 36.9v65.8c0 30.7-18.2 45.8-41.3 45.8h-11.5c-23.1 0-41.3-15.1-41.3-45.8v-228.4c0-30.7 18.2-45.8 41.3-45.8h11.5c23.1 0 41.3 15.1 41.3 45.8z"/>
						<path class="s0" d="m1392 626.6c20.4 0 35.1 7.1 35.1 35.5v6.2c0 23.1-7.1 35.5-40 35.5h-27.1c-25.3 0-48-5.8-57.8-26.2-11.1 11.5-35.1 26.2-68.4 26.2-33.3 0-63.5-12.9-63.5-55.1 0-42.2 47.5-63.5 84.9-73.3 24.4-6.7 44.4-12 44.4-25.8 0-13.8-5.8-16-20.4-16-32 0-33.8 36-72 36-38.2 0-32.4-12-32.4-30.2 0-27.1 31.6-64.4 111.5-64.4 79.9 0 105.8 24.9 105.8 88.4v63.1zm-88-34.6c-20.9 17.8-47.5 16-47.5 34.2 0 18.2 4.4 12.9 12.4 12.9 13.3 0 35.1-18.2 35.1-47.1z"/>
						<path class="s0" d="m1506.2 384c24.4 0 33.3 10.7 28.4 36l-37.3 186.2c-0.9 3.6-12.9 3.6-13.8 0l-37.3-186.2c-4.9-25.3 5.3-36 29.8-36zm-54.2 276.8c0-22.2 13.3-35.5 34.7-35.5h7.6c21.3 0 34.2 13.3 34.2 35.5v8c0 21.8-12.9 35.1-34.2 35.1h-7.6c-21.3 0-34.7-13.3-34.7-35.1z"/>
					</g>
					<g>
						<path class="s1" d="m953.5 39c36 0 51.1 16 51.1 59.5v200.8c0 43.5-15.1 59.5-51.1 59.5h-9.3c-36 0-51.1-16-51.1-59.5v-123.1l-45.3 156.4c-6.2 20.9-17.8 26.2-35.1 26.2h-7.1c-18.2 0-32.4-6.7-39.1-27.5l-49.8-154.6v122.6c0 15.5-0.9 29.3-5.8 39.1-6.7 13.3-20 20.4-34.2 20.4h-7.1c-14.2 0-27.5-7.1-34.2-20.4-4.9-9.8-5.8-23.5-5.8-39.1v-200.8c0-43.5 15.1-59.5 51.5-59.5h63.1c23.5 0 37.3 5.3 45.8 29.3l31.1 90.2 26.2-90.6c6.7-22.7 21.3-28.9 47.1-28.9z"/>
						<path class="s1" d="m1031.2 175.9c0-30.7 18.2-45.8 41.3-45.8h11.6c23.1 0 41.3 15.1 41.3 45.8v137.3c0 30.7-18.2 45.8-41.3 45.8h-11.6c-23.1 0-41.3-15.1-41.3-45.8zm7.1-98.7c0-20.9 17.8-38.2 40-38.2 22.2 0 40 17.3 40 38.2 0 20.9-18.2 39.1-40 39.1-21.8 0-40-17.3-40-39.1z"/>
						<path class="s1" d="m1270.7 130.1c17.3 0 20.9 12.9 20.9 33.3v6.7c0 20.4-3.6 33.3-20.9 33.3h-10.7v74.6c12 0.9 21.3 8.9 21.3 23.5 0 21.3-10.2 57.3-57.8 57.3-47.6 0-57.8-22.7-57.8-69.3v-86.2h-6.2c-17.3 0-20.9-12.9-20.9-33.3v-6.7c0-20.4 3.6-33.3 20.9-33.3h6.2v-21.3c0-26.2 16.4-28 27.1-40.4 10.7-12.4 11.6-29.3 35.1-29.3 23.5 0 32 20.4 32 45.8v45.3h10.7z"/>
						<path class="s1" d="m1401.3 159.9c14.7-18.2 36-29.8 60.4-29.8 24.4 0 73.8 23.1 73.8 82.6v100.4c0 30.7-18.2 45.8-41.3 45.8h-11.6c-23.1 0-41.3-15.1-41.3-45.8v-79.1c0-13.8-5.3-23.5-16.4-23.5-11.1 0-23.6 11.1-23.6 36.9v65.8c0 30.7-18.2 45.8-41.3 45.8h-11.6c-23.1 0-41.3-15.1-41.3-45.8v-228.4c0-30.7 18.2-45.8 41.3-45.8h11.6c23.1 0 41.3 15.1 41.3 45.8z"/>
						<path class="s1" d="m1553.3 244.8c0-67.5 51.5-114.6 114.6-114.6 63.1 0 114.6 47.1 114.6 114.6 0 67.5-51.5 114.2-114.6 114.2-63.1 0-114.6-47.1-114.6-114.2zm136.4 0c0-22.7-8-36.4-21.8-36.4-13.8 0-21.8 13.8-21.8 36.4 0 22.6 8 36.9 21.8 36.9 13.8 0 21.8-13.8 21.8-36.9z"/>
						<path class="s1" d="m775.3 703.9c-43.1 0-83.1-13.3-114.2-46.2-28.4-30.2-40.4-68-40.4-112v-3.6c0-43.1 11.5-81.3 40.4-112 30.7-32.4 71.1-46.2 114.2-46.2h9.3c81.8 0 117.3 48.9 117.3 87.1 0 38.2-16.4 44.9-41.3 44.9-24.9 0-34.2-10.2-43.1-26.2-9.8-17.3-22.7-23.5-41.3-23.5-18.6 0-28.9 4.9-37.8 16.9-8.9 12-11.5 31.5-11.5 52.4v16.9c0 21.8 3.5 40.9 11.5 52.4 9.3 13.3 22.2 16.9 37.3 16.9 15.1 0 32-5.3 41.3-23.5 8-15.5 17.8-26.2 43.1-26.2 25.3 0 41.3 17.3 41.3 44.9 0 39.1-35.1 87.1-116.9 87.1h-9.3z"/>
						<path class="s1" d="m1018.3 504.9c14.7-18.2 36-29.8 60.4-29.8 24.4 0 73.8 23.1 73.8 82.6v100.4c0 30.7-18.2 45.8-41.3 45.8h-11.6c-23.1 0-41.3-15.1-41.3-45.8v-79.1c0-13.8-5.3-23.5-16.4-23.5-11.1 0-23.6 11.1-23.6 36.9v65.8c0 30.7-18.2 45.8-41.3 45.8h-11.5c-23.1 0-41.3-15.1-41.3-45.8v-228.4c0-30.7 18.2-45.8 41.3-45.8h11.5c23.1 0 41.3 15.1 41.3 45.8z"/>
						<path class="s1" d="m1392 626.6c20.4 0 35.1 7.1 35.1 35.5v6.2c0 23.1-7.1 35.5-40 35.5h-27.1c-25.3 0-48-5.8-57.8-26.2-11.1 11.5-35.1 26.2-68.4 26.2-33.3 0-63.5-12.9-63.5-55.1 0-42.2 47.5-63.5 84.9-73.3 24.4-6.7 44.4-12 44.4-25.8 0-13.8-5.8-16-20.4-16-32 0-33.8 36-72 36-38.2 0-32.4-12-32.4-30.2 0-27.1 31.6-64.4 111.5-64.4 79.9 0 105.8 24.9 105.8 88.4v63.1zm-88-34.6c-20.9 17.8-47.5 16-47.5 34.2 0 18.2 4.4 12.9 12.4 12.9 13.3 0 35.1-18.2 35.1-47.1z"/>
						<path class="s1" d="m1506.2 384c24.4 0 33.3 10.7 28.4 36l-37.3 186.2c-0.9 3.6-12.9 3.6-13.8 0l-37.3-186.2c-4.9-25.3 5.3-36 29.8-36zm-54.2 276.8c0-22.2 13.3-35.5 34.7-35.5h7.6c21.3 0 34.2 13.3 34.2 35.5v8c0 21.8-12.9 35.1-34.2 35.1h-7.6c-21.3 0-34.7-13.3-34.7-35.1z"/>
					</g>
					<g>
						<path class="s2" d="m953.5 39c36 0 51.1 16 51.1 59.5v200.8c0 43.5-15.1 59.5-51.1 59.5h-9.3c-36 0-51.1-16-51.1-59.5v-123.1l-45.3 156.4c-6.2 20.9-17.8 26.2-35.1 26.2h-7.1c-18.2 0-32.4-6.7-39.1-27.5l-49.8-154.6v122.6c0 15.5-0.9 29.3-5.8 39.1-6.7 13.3-20 20.4-34.2 20.4h-7.1c-14.2 0-27.5-7.1-34.2-20.4-4.9-9.8-5.8-23.5-5.8-39.1v-200.8c0-43.5 15.1-59.5 51.5-59.5h63.1c23.5 0 37.3 5.3 45.8 29.3l31.1 90.2 26.2-90.6c6.7-22.7 21.3-28.9 47.1-28.9z"/>
						<path class="s2" d="m1031.2 175.9c0-30.7 18.2-45.8 41.3-45.8h11.6c23.1 0 41.3 15.1 41.3 45.8v137.3c0 30.7-18.2 45.8-41.3 45.8h-11.6c-23.1 0-41.3-15.1-41.3-45.8zm7.1-98.7c0-20.9 17.8-38.2 40-38.2 22.2 0 40 17.3 40 38.2 0 20.9-18.2 39.1-40 39.1-21.8 0-40-17.3-40-39.1z"/>
						<path class="s2" d="m1270.7 130.1c17.3 0 20.9 12.9 20.9 33.3v6.7c0 20.4-3.6 33.3-20.9 33.3h-10.7v74.6c12 0.9 21.3 8.9 21.3 23.5 0 21.3-10.2 57.3-57.8 57.3-47.6 0-57.8-22.7-57.8-69.3v-86.2h-6.2c-17.3 0-20.9-12.9-20.9-33.3v-6.7c0-20.4 3.6-33.3 20.9-33.3h6.2v-21.3c0-26.2 16.4-28 27.1-40.4 10.7-12.4 11.6-29.3 35.1-29.3 23.5 0 32 20.4 32 45.8v45.3h10.7z"/>
						<path class="s2" d="m1401.3 159.9c14.7-18.2 36-29.8 60.4-29.8 24.4 0 73.8 23.1 73.8 82.6v100.4c0 30.7-18.2 45.8-41.3 45.8h-11.6c-23.1 0-41.3-15.1-41.3-45.8v-79.1c0-13.8-5.3-23.5-16.4-23.5-11.1 0-23.6 11.1-23.6 36.9v65.8c0 30.7-18.2 45.8-41.3 45.8h-11.6c-23.1 0-41.3-15.1-41.3-45.8v-228.4c0-30.7 18.2-45.8 41.3-45.8h11.6c23.1 0 41.3 15.1 41.3 45.8z"/>
						<path class="s2" d="m1553.3 244.8c0-67.5 51.5-114.6 114.6-114.6 63.1 0 114.6 47.1 114.6 114.6 0 67.5-51.5 114.2-114.6 114.2-63.1 0-114.6-47.1-114.6-114.2zm136.4 0c0-22.7-8-36.4-21.8-36.4-13.8 0-21.8 13.8-21.8 36.4 0 22.6 8 36.9 21.8 36.9 13.8 0 21.8-13.8 21.8-36.9z"/>
						<path class="s2" d="m775.3 703.9c-43.1 0-83.1-13.3-114.2-46.2-28.4-30.2-40.4-68-40.4-112v-3.6c0-43.1 11.5-81.3 40.4-112 30.7-32.4 71.1-46.2 114.2-46.2h9.3c81.8 0 117.3 48.9 117.3 87.1 0 38.2-16.4 44.9-41.3 44.9-24.9 0-34.2-10.2-43.1-26.2-9.8-17.3-22.7-23.5-41.3-23.5-18.6 0-28.9 4.9-37.8 16.9-8.9 12-11.5 31.5-11.5 52.4v16.9c0 21.8 3.5 40.9 11.5 52.4 9.3 13.3 22.2 16.9 37.3 16.9 15.1 0 32-5.3 41.3-23.5 8-15.5 17.8-26.2 43.1-26.2 25.3 0 41.3 17.3 41.3 44.9 0 39.1-35.1 87.1-116.9 87.1h-9.3z"/>
						<path class="s2" d="m1018.3 504.9c14.7-18.2 36-29.8 60.4-29.8 24.4 0 73.8 23.1 73.8 82.6v100.4c0 30.7-18.2 45.8-41.3 45.8h-11.6c-23.1 0-41.3-15.1-41.3-45.8v-79.1c0-13.8-5.3-23.5-16.4-23.5-11.1 0-23.6 11.1-23.6 36.9v65.8c0 30.7-18.2 45.8-41.3 45.8h-11.5c-23.1 0-41.3-15.1-41.3-45.8v-228.4c0-30.7 18.2-45.8 41.3-45.8h11.5c23.1 0 41.3 15.1 41.3 45.8z"/>
						<path class="s2" d="m1392 626.6c20.4 0 35.1 7.1 35.1 35.5v6.2c0 23.1-7.1 35.5-40 35.5h-27.1c-25.3 0-48-5.8-57.8-26.2-11.1 11.5-35.1 26.2-68.4 26.2-33.3 0-63.5-12.9-63.5-55.1 0-42.2 47.5-63.5 84.9-73.3 24.4-6.7 44.4-12 44.4-25.8 0-13.8-5.8-16-20.4-16-32 0-33.8 36-72 36-38.2 0-32.4-12-32.4-30.2 0-27.1 31.6-64.4 111.5-64.4 79.9 0 105.8 24.9 105.8 88.4v63.1zm-88-34.6c-20.9 17.8-47.5 16-47.5 34.2 0 18.2 4.4 12.9 12.4 12.9 13.3 0 35.1-18.2 35.1-47.1z"/>
						<path class="s2" d="m1506.2 384c24.4 0 33.3 10.7 28.4 36l-37.3 186.2c-0.9 3.6-12.9 3.6-13.8 0l-37.3-186.2c-4.9-25.3 5.3-36 29.8-36zm-54.2 276.8c0-22.2 13.3-35.5 34.7-35.5h7.6c21.3 0 34.2 13.3 34.2 35.5v8c0 21.8-12.9 35.1-34.2 35.1h-7.6c-21.3 0-34.7-13.3-34.7-35.1z"/>
					</g>
				</g>
				<g>
					<g>
						<g>
							<g>
								<path class="s3" d="m119.2 264.2c-7.9-9.4-13.3-17.1-19.9-23.3-22.4-21.1-54.9-13.2-65.6 15.8-7.3 19.9-4.2 39.8 2.1 59.1 15.3 47.2 43.8 86.3 79.8 119.1 28.5 25.9 53.1 53.7 73.1 86.8 21.1 35 49.7 64.3 85 85.7 15.1 9.1 31.5 16 48.9 24.7 0.1 4.3-0.4 10.9 0.7 17.2 4.9 26.2 24.8 42.1 54.8 41.3 15.6-0.4 31.6-3.4 46.5-8.1 41.7-13.2 80.6-32 109.4-66.4 6.8-8.1 12.6-17.8 16.5-27.7 8.7-22.2 3.5-41.7-17.2-58.7 6.4-6 12.8-11.6 18.6-17.7 28.7-29.7 51.3-63.2 57.7-104.9 2.2-14.6 2-30.2-0.5-44.8-4.9-28.6-20-41.6-50.2-47.4-8.2-47.7-30.6-85-77.1-103.3-45.3-17.9-88.5-13.4-128.7 17.2-7.2-13.1-7.3-26.6-5.9-39.9 2.5-24.6 6.4-49 8.8-73.6 1.2-11.9 1.3-23.9 0.6-35.8-1.1-19.7-8.4-36.4-27.9-44.5-20.4-8.5-40.2-6.2-58.1 7.1-18.5 13.8-28.4 33.6-34.2 55.1-5.4 20-8.5 40.6-14.2 61.5-0.2-5.3 0-10.6-0.6-15.8-1-10.8-1.8-21.6-3.8-32.2-3.8-20.1-14.1-34.9-35.4-39.7-22.8-5.1-42.4 0-56.9 18.9-15 19.6-18.8 42.9-19.8 66.7-1.5 33.5 3 66.3 11.6 98.6 0.6 2.2 1 4.4 2 8.9zm395.3 86.3c-5 10.6-8.8 19.9-13.7 28.7-19.1 34.5-55.8 34.9-75.9 1-2.5-4.3-4.7-8.9-6.4-13.6-6.9-19.4-1.8-35.7 13.8-45.7 15.6-9.9 25.5-7.9 42.4 9.4 10.5 10.8 22 19.4 39.7 20.3z"/>
								<path class="s4" d="m119.2 264.2c-7.9-9.4-13.3-17.1-19.9-23.3-22.4-21.1-54.9-13.2-65.6 15.8-7.3 19.9-4.2 39.8 2.1 59.1 15.3 47.2 43.8 86.3 79.8 119.1 28.5 25.9 53.1 53.7 73.1 86.8 21.1 35 49.7 64.3 85 85.7 15.1 9.1 31.5 16 48.9 24.7 0.1 4.3-0.4 10.9 0.7 17.2 4.9 26.2 24.8 42.1 54.8 41.3 15.6-0.4 31.6-3.4 46.5-8.1 41.7-13.2 80.6-32 109.4-66.4 6.8-8.1 12.6-17.8 16.5-27.7 8.7-22.2 3.5-41.7-17.2-58.7 6.4-6 12.8-11.6 18.6-17.7 28.7-29.7 51.3-63.2 57.7-104.9 2.2-14.6 2-30.2-0.5-44.8-4.9-28.6-20-41.6-50.2-47.4-8.2-47.7-30.6-85-77.1-103.3-45.3-17.9-88.5-13.4-128.7 17.2-7.2-13.1-7.3-26.6-5.9-39.9 2.5-24.6 6.4-49 8.8-73.6 1.2-11.9 1.3-23.9 0.6-35.8-1.1-19.7-8.4-36.4-27.9-44.5-20.4-8.5-40.2-6.2-58.1 7.1-18.5 13.8-28.4 33.6-34.2 55.1-5.4 20-8.5 40.6-14.2 61.5-0.2-5.3 0-10.6-0.6-15.8-1-10.8-1.8-21.6-3.8-32.2-3.8-20.1-14.1-34.9-35.4-39.7-22.8-5.1-42.4 0-56.9 18.9-15 19.6-18.8 42.9-19.8 66.7-1.5 33.5 3 66.3 11.6 98.6 0.6 2.2 1 4.4 2 8.9zm395.3 86.3c-5 10.6-8.8 19.9-13.7 28.7-19.1 34.5-55.8 34.9-75.9 1-2.5-4.3-4.7-8.9-6.4-13.6-6.9-19.4-1.8-35.7 13.8-45.7 15.6-9.9 25.5-7.9 42.4 9.4 10.5 10.8 22 19.4 39.7 20.3z"/>
								<path class="s5" d="m119.2 264.2c-7.9-9.4-13.3-17.1-19.9-23.3-22.4-21.1-54.9-13.2-65.6 15.8-7.3 19.9-4.2 39.8 2.1 59.1 15.3 47.2 43.8 86.3 79.8 119.1 28.5 25.9 53.1 53.7 73.1 86.8 21.1 35 49.7 64.3 85 85.7 15.1 9.1 31.5 16 48.9 24.7 0.1 4.3-0.4 10.9 0.7 17.2 4.9 26.2 24.8 42.1 54.8 41.3 15.6-0.4 31.6-3.4 46.5-8.1 41.7-13.2 80.6-32 109.4-66.4 6.8-8.1 12.6-17.8 16.5-27.7 8.7-22.2 3.5-41.7-17.2-58.7 6.4-6 12.8-11.6 18.6-17.7 28.7-29.7 51.3-63.2 57.7-104.9 2.2-14.6 2-30.2-0.5-44.8-4.9-28.6-20-41.6-50.2-47.4-8.2-47.7-30.6-85-77.1-103.3-45.3-17.9-88.5-13.4-128.7 17.2-7.2-13.1-7.3-26.6-5.9-39.9 2.5-24.6 6.4-49 8.8-73.6 1.2-11.9 1.3-23.9 0.6-35.8-1.1-19.7-8.4-36.4-27.9-44.5-20.4-8.5-40.2-6.2-58.1 7.1-18.5 13.8-28.4 33.6-34.2 55.1-5.4 20-8.5 40.6-14.2 61.5-0.2-5.3 0-10.6-0.6-15.8-1-10.8-1.8-21.6-3.8-32.2-3.8-20.1-14.1-34.9-35.4-39.7-22.8-5.1-42.4 0-56.9 18.9-15 19.6-18.8 42.9-19.8 66.7-1.5 33.5 3 66.3 11.6 98.6 0.6 2.2 1 4.4 2 8.9zm395.3 86.3c-5 10.6-8.8 19.9-13.7 28.7-19.1 34.5-55.8 34.9-75.9 1-2.5-4.3-4.7-8.9-6.4-13.6-6.9-19.4-1.8-35.7 13.8-45.7 15.6-9.9 25.5-7.9 42.4 9.4 10.5 10.8 22 19.4 39.7 20.3z"/>
								<path class="s0" d="m119.2 264.2c-7.9-9.4-13.3-17.1-19.9-23.3-22.4-21.1-54.9-13.2-65.6 15.8-7.3 19.9-4.2 39.8 2.1 59.1 15.3 47.2 43.8 86.3 79.8 119.1 28.5 25.9 53.1 53.7 73.1 86.8 21.1 35 49.7 64.3 85 85.7 15.1 9.1 31.5 16 48.9 24.7 0.1 4.3-0.4 10.9 0.7 17.2 4.9 26.2 24.8 42.1 54.8 41.3 15.6-0.4 31.6-3.4 46.5-8.1 41.7-13.2 80.6-32 109.4-66.4 6.8-8.1 12.6-17.8 16.5-27.7 8.7-22.2 3.5-41.7-17.2-58.7 6.4-6 12.8-11.6 18.6-17.7 28.7-29.7 51.3-63.2 57.7-104.9 2.2-14.6 2-30.2-0.5-44.8-4.9-28.6-20-41.6-50.2-47.4-8.2-47.7-30.6-85-77.1-103.3-45.3-17.9-88.5-13.4-128.7 17.2-7.2-13.1-7.3-26.6-5.9-39.9 2.5-24.6 6.4-49 8.8-73.6 1.2-11.9 1.3-23.9 0.6-35.8-1.1-19.7-8.4-36.4-27.9-44.5-20.4-8.5-40.2-6.2-58.1 7.1-18.5 13.8-28.4 33.6-34.2 55.1-5.4 20-8.5 40.6-14.2 61.5-0.2-5.3 0-10.6-0.6-15.8-1-10.8-1.8-21.6-3.8-32.2-3.8-20.1-14.1-34.9-35.4-39.7-22.8-5.1-42.4 0-56.9 18.9-15 19.6-18.8 42.9-19.8 66.7-1.5 33.5 3 66.3 11.6 98.6 0.6 2.2 1 4.4 2 8.9zm395.3 86.3c-5 10.6-8.8 19.9-13.7 28.7-19.1 34.5-55.8 34.9-75.9 1-2.5-4.3-4.7-8.9-6.4-13.6-6.9-19.4-1.8-35.7 13.8-45.7 15.6-9.9 25.5-7.9 42.4 9.4 10.5 10.8 22 19.4 39.7 20.3z"/>
							</g>
							<path fill-rule="evenodd" class="s6" d="m465.23 418.29c-38.08 1.33-69.66-20.69-70.66-49.26-1-28.58 28.97-52.75 67.05-54.08 38.08-1.33 69.67 20.69 70.67 49.27 0.99 28.57-28.98 52.74-67.06 54.07z"/>
						</g>
						<g>
							<path class="s2" d="m119.2 264.2c-7.9-9.4-13.3-17.1-19.9-23.3-22.4-21.1-54.9-13.2-65.6 15.8-7.3 19.9-4.2 39.8 2.1 59.1 15.3 47.2 43.8 86.3 79.8 119.1 28.5 25.9 53.1 53.7 73.1 86.8 21.1 35 49.7 64.3 85 85.7 15.1 9.1 31.5 16 48.9 24.7 0.1 4.3-0.4 10.9 0.7 17.2 4.9 26.2 24.8 42.1 54.8 41.3 15.6-0.4 31.6-3.4 46.5-8.1 41.7-13.2 80.6-32 109.4-66.4 6.8-8.1 12.6-17.8 16.5-27.7 8.7-22.2 3.5-41.7-17.2-58.7 6.4-6 12.8-11.6 18.6-17.7 28.7-29.7 51.3-63.2 57.7-104.9 2.2-14.6 2-30.2-0.5-44.8-4.9-28.6-20-41.6-50.2-47.4-8.2-47.7-30.6-85-77.1-103.3-45.3-17.9-88.5-13.4-128.7 17.2-7.2-13.1-7.3-26.6-5.9-39.9 2.5-24.6 6.4-49 8.8-73.6 1.2-11.9 1.3-23.9 0.6-35.8-1.1-19.7-8.4-36.4-27.9-44.5-20.4-8.5-40.2-6.2-58.1 7.1-18.5 13.8-28.4 33.6-34.2 55.1-5.4 20-8.5 40.6-14.2 61.5-0.2-5.3 0-10.6-0.6-15.8-1-10.8-1.8-21.6-3.8-32.2-3.8-20.1-14.1-34.9-35.4-39.7-22.8-5.1-42.4 0-56.9 18.9-15 19.6-18.8 42.9-19.8 66.7-1.5 33.5 3 66.3 11.6 98.6 0.6 2.2 1 4.4 2 8.9zm229.2 371.5c9.2-0.8 17.3-3.2 16.7-13.9-0.6-10-8.9-10.6-16.6-12.7-16.6-4.6-34-8.3-49.2-16-40.1-20.2-70.5-52.2-92.9-90.2-18.7-31.8-41.9-58.1-69.4-82.3-33.3-29.4-60.4-64.4-75.1-107.1-4.5-13.1-5.8-27.9-5.5-41.8 0.1-5.9 7-14.2 12.8-16.5 3.9-1.6 13.2 3.9 16.8 8.7 9.2 12.3 16.2 26.2 24.9 39 10.2 14.9 19.1 31.8 32.5 43.1 15.1 12.6 32.6 22.6 47.6 35.7 6.4 5.6 14.2 5 19.1-2.4 4.7-7 1.9-13.3-4.7-18-18.1-12.9-31.3-30.3-40.6-49.9-23.9-50.6-39.1-103.6-33.4-160.2 1.6-15.6 7.6-31.3 14.3-45.7 5.4-11.5 17.8-12.3 29.6-10.2 11.3 2 16 10 17.5 20.4 1.5 10.7 2.9 21.5 3.6 32.2 2.5 35.4 8.5 69.8 26 101.3 6 10.7 10.8 22.1 16.4 33 5.1 9.9 10.4 19.8 16.2 29.3 4.1 6.8 10.6 9.6 17.7 4.5 7.3-5.4 5.8-11.8 2.1-19.4-7.2-15.1-14.3-30.6-19-46.6-3.8-13.2-4.8-27.4-5.7-41.3-2.6-38.5-1.2-76.8 13.3-113 4.7-11.8 12.1-23.8 21.5-32.2 19-17 42.9-7.2 46.5 17.8 0.8 5.3 1 10.9 0.4 16.2-2.8 25-6.6 49.8-8.7 74.8-2 23.4-4.5 47.5 8.1 69 4.3 7.3 3.9 12-0.3 18.6-6.2 9.6-4.9 18.6 2.7 21.9 10.3 4.4 14.7-2.7 18.6-10.3 10.9-21.1 28.1-34.8 51-40.6 53.4-13.6 110.2 9.8 127.4 71.8 1.5 5.4 0 16-3.2 17.4-6.9 3.1-16.5 4-23.5 1.7-6.7-2.2-12-9.4-17.3-15-23.8-25.2-65.8-17.7-85.4 9-27.1 36.8-0.4 101.1 46.8 113.4 16.7 4.4 32.1 1.4 46.6-7.7 14.5-9.2 24.8-21.8 32-37.3 5.2-11.2 10-22.7 16.5-33.1 8-12.8 23.9-13.2 33-1.2 3.8 5.1 6.5 11.5 8.1 17.7 5.9 22.8 0.6 44.5-8.2 65.5-18.2 43.5-53.2 73.4-85.7 105.3-8.8 8.6-12 14.9-6.4 21.1 7.8 8.6 15.2 4.4 22.3-1.3 0.9-0.7 1.8-1.4 2.8-2.1 8.1-6.2 14.4-5.4 17.4 4.1 2 6.5 2.8 15.8-0.4 20.9-8.3 13.2-17.7 26.5-29.5 36.5-27.5 23.4-60.3 37.3-95.3 45.5-8.9 2.1-18.4 3.1-27.5 2.7-18-0.8-26.4-10.8-25.5-29.7zm166.1-285.2c-5 10.6-8.8 19.9-13.7 28.7-19.1 34.5-55.8 34.9-75.9 1-2.5-4.3-4.7-8.9-6.4-13.6-6.9-19.4-1.8-35.7 13.8-45.7 15.6-9.9 25.5-7.9 42.4 9.4 10.5 10.8 22 19.4 39.7 20.3z"/>
							<path class="s4" d="m119.2 264.2c-7.9-9.4-13.3-17.1-19.9-23.3-22.4-21.1-54.9-13.2-65.6 15.8-7.3 19.9-4.2 39.8 2.1 59.1 15.3 47.2 43.8 86.3 79.8 119.1 28.5 25.9 53.1 53.7 73.1 86.8 21.1 35 49.7 64.3 85 85.7 15.1 9.1 31.5 16 48.9 24.7 0.1 4.3-0.4 10.9 0.7 17.2 4.9 26.2 24.8 42.1 54.8 41.3 15.6-0.4 31.6-3.4 46.5-8.1 41.7-13.2 80.6-32 109.4-66.4 6.8-8.1 12.6-17.8 16.5-27.7 8.7-22.2 3.5-41.7-17.2-58.7 6.4-6 12.8-11.6 18.6-17.7 28.7-29.7 51.3-63.2 57.7-104.9 2.2-14.6 2-30.2-0.5-44.8-4.9-28.6-20-41.6-50.2-47.4-8.2-47.7-30.6-85-77.1-103.3-45.3-17.9-88.5-13.4-128.7 17.2-7.2-13.1-7.3-26.6-5.9-39.9 2.5-24.6 6.4-49 8.8-73.6 1.2-11.9 1.3-23.9 0.6-35.8-1.1-19.7-8.4-36.4-27.9-44.5-20.4-8.5-40.2-6.2-58.1 7.1-18.5 13.8-28.4 33.6-34.2 55.1-5.4 20-8.5 40.6-14.2 61.5-0.2-5.3 0-10.6-0.6-15.8-1-10.8-1.8-21.6-3.8-32.2-3.8-20.1-14.1-34.9-35.4-39.7-22.8-5.1-42.4 0-56.9 18.9-15 19.6-18.8 42.9-19.8 66.7-1.5 33.5 3 66.3 11.6 98.6 0.6 2.2 1 4.4 2 8.9zm229.2 371.5c9.2-0.8 17.3-3.2 16.7-13.9-0.6-10-8.9-10.6-16.6-12.7-16.6-4.6-34-8.3-49.2-16-40.1-20.2-70.5-52.2-92.9-90.2-18.7-31.8-41.9-58.1-69.4-82.3-33.3-29.4-60.4-64.4-75.1-107.1-4.5-13.1-5.8-27.9-5.5-41.8 0.1-5.9 7-14.2 12.8-16.5 3.9-1.6 13.2 3.9 16.8 8.7 9.2 12.3 16.2 26.2 24.9 39 10.2 14.9 19.1 31.8 32.5 43.1 15.1 12.6 32.6 22.6 47.6 35.7 6.4 5.6 14.2 5 19.1-2.4 4.7-7 1.9-13.3-4.7-18-18.1-12.9-31.3-30.3-40.6-49.9-23.9-50.6-39.1-103.6-33.4-160.2 1.6-15.6 7.6-31.3 14.3-45.7 5.4-11.5 17.8-12.3 29.6-10.2 11.3 2 16 10 17.5 20.4 1.5 10.7 2.9 21.5 3.6 32.2 2.5 35.4 8.5 69.8 26 101.3 6 10.7 10.8 22.1 16.4 33 5.1 9.9 10.4 19.8 16.2 29.3 4.1 6.8 10.6 9.6 17.7 4.5 7.3-5.4 5.8-11.8 2.1-19.4-7.2-15.1-14.3-30.6-19-46.6-3.8-13.2-4.8-27.4-5.7-41.3-2.6-38.5-1.2-76.8 13.3-113 4.7-11.8 12.1-23.8 21.5-32.2 19-17 42.9-7.2 46.5 17.8 0.8 5.3 1 10.9 0.4 16.2-2.8 25-6.6 49.8-8.7 74.8-2 23.4-4.5 47.5 8.1 69 4.3 7.3 3.9 12-0.3 18.6-6.2 9.6-4.9 18.6 2.7 21.9 10.3 4.4 14.7-2.7 18.6-10.3 10.9-21.1 28.1-34.8 51-40.6 53.4-13.6 110.2 9.8 127.4 71.8 1.5 5.4 0 16-3.2 17.4-6.9 3.1-16.5 4-23.5 1.7-6.7-2.2-12-9.4-17.3-15-23.8-25.2-65.8-17.7-85.4 9-27.1 36.8-0.4 101.1 46.8 113.4 16.7 4.4 32.1 1.4 46.6-7.7 14.5-9.2 24.8-21.8 32-37.3 5.2-11.2 10-22.7 16.5-33.1 8-12.8 23.9-13.2 33-1.2 3.8 5.1 6.5 11.5 8.1 17.7 5.9 22.8 0.6 44.5-8.2 65.5-18.2 43.5-53.2 73.4-85.7 105.3-8.8 8.6-12 14.9-6.4 21.1 7.8 8.6 15.2 4.4 22.3-1.3 0.9-0.7 1.8-1.4 2.8-2.1 8.1-6.2 14.4-5.4 17.4 4.1 2 6.5 2.8 15.8-0.4 20.9-8.3 13.2-17.7 26.5-29.5 36.5-27.5 23.4-60.3 37.3-95.3 45.5-8.9 2.1-18.4 3.1-27.5 2.7-18-0.8-26.4-10.8-25.5-29.7zm166.1-285.2c-5 10.6-8.8 19.9-13.7 28.7-19.1 34.5-55.8 34.9-75.9 1-2.5-4.3-4.7-8.9-6.4-13.6-6.9-19.4-1.8-35.7 13.8-45.7 15.6-9.9 25.5-7.9 42.4 9.4 10.5 10.8 22 19.4 39.7 20.3z"/>
							<path class="s5" d="m119.2 264.2c-7.9-9.4-13.3-17.1-19.9-23.3-22.4-21.1-54.9-13.2-65.6 15.8-7.3 19.9-4.2 39.8 2.1 59.1 15.3 47.2 43.8 86.3 79.8 119.1 28.5 25.9 53.1 53.7 73.1 86.8 21.1 35 49.7 64.3 85 85.7 15.1 9.1 31.5 16 48.9 24.7 0.1 4.3-0.4 10.9 0.7 17.2 4.9 26.2 24.8 42.1 54.8 41.3 15.6-0.4 31.6-3.4 46.5-8.1 41.7-13.2 80.6-32 109.4-66.4 6.8-8.1 12.6-17.8 16.5-27.7 8.7-22.2 3.5-41.7-17.2-58.7 6.4-6 12.8-11.6 18.6-17.7 28.7-29.7 51.3-63.2 57.7-104.9 2.2-14.6 2-30.2-0.5-44.8-4.9-28.6-20-41.6-50.2-47.4-8.2-47.7-30.6-85-77.1-103.3-45.3-17.9-88.5-13.4-128.7 17.2-7.2-13.1-7.3-26.6-5.9-39.9 2.5-24.6 6.4-49 8.8-73.6 1.2-11.9 1.3-23.9 0.6-35.8-1.1-19.7-8.4-36.4-27.9-44.5-20.4-8.5-40.2-6.2-58.1 7.1-18.5 13.8-28.4 33.6-34.2 55.1-5.4 20-8.5 40.6-14.2 61.5-0.2-5.3 0-10.6-0.6-15.8-1-10.8-1.8-21.6-3.8-32.2-3.8-20.1-14.1-34.9-35.4-39.7-22.8-5.1-42.4 0-56.9 18.9-15 19.6-18.8 42.9-19.8 66.7-1.5 33.5 3 66.3 11.6 98.6 0.6 2.2 1 4.4 2 8.9zm229.2 371.5c9.2-0.8 17.3-3.2 16.7-13.9-0.6-10-8.9-10.6-16.6-12.7-16.6-4.6-34-8.3-49.2-16-40.1-20.2-70.5-52.2-92.9-90.2-18.7-31.8-41.9-58.1-69.4-82.3-33.3-29.4-60.4-64.4-75.1-107.1-4.5-13.1-5.8-27.9-5.5-41.8 0.1-5.9 7-14.2 12.8-16.5 3.9-1.6 13.2 3.9 16.8 8.7 9.2 12.3 16.2 26.2 24.9 39 10.2 14.9 19.1 31.8 32.5 43.1 15.1 12.6 32.6 22.6 47.6 35.7 6.4 5.6 14.2 5 19.1-2.4 4.7-7 1.9-13.3-4.7-18-18.1-12.9-31.3-30.3-40.6-49.9-23.9-50.6-39.1-103.6-33.4-160.2 1.6-15.6 7.6-31.3 14.3-45.7 5.4-11.5 17.8-12.3 29.6-10.2 11.3 2 16 10 17.5 20.4 1.5 10.7 2.9 21.5 3.6 32.2 2.5 35.4 8.5 69.8 26 101.3 6 10.7 10.8 22.1 16.4 33 5.1 9.9 10.4 19.8 16.2 29.3 4.1 6.8 10.6 9.6 17.7 4.5 7.3-5.4 5.8-11.8 2.1-19.4-7.2-15.1-14.3-30.6-19-46.6-3.8-13.2-4.8-27.4-5.7-41.3-2.6-38.5-1.2-76.8 13.3-113 4.7-11.8 12.1-23.8 21.5-32.2 19-17 42.9-7.2 46.5 17.8 0.8 5.3 1 10.9 0.4 16.2-2.8 25-6.6 49.8-8.7 74.8-2 23.4-4.5 47.5 8.1 69 4.3 7.3 3.9 12-0.3 18.6-6.2 9.6-4.9 18.6 2.7 21.9 10.3 4.4 14.7-2.7 18.6-10.3 10.9-21.1 28.1-34.8 51-40.6 53.4-13.6 110.2 9.8 127.4 71.8 1.5 5.4 0 16-3.2 17.4-6.9 3.1-16.5 4-23.5 1.7-6.7-2.2-12-9.4-17.3-15-23.8-25.2-65.8-17.7-85.4 9-27.1 36.8-0.4 101.1 46.8 113.4 16.7 4.4 32.1 1.4 46.6-7.7 14.5-9.2 24.8-21.8 32-37.3 5.2-11.2 10-22.7 16.5-33.1 8-12.8 23.9-13.2 33-1.2 3.8 5.1 6.5 11.5 8.1 17.7 5.9 22.8 0.6 44.5-8.2 65.5-18.2 43.5-53.2 73.4-85.7 105.3-8.8 8.6-12 14.9-6.4 21.1 7.8 8.6 15.2 4.4 22.3-1.3 0.9-0.7 1.8-1.4 2.8-2.1 8.1-6.2 14.4-5.4 17.4 4.1 2 6.5 2.8 15.8-0.4 20.9-8.3 13.2-17.7 26.5-29.5 36.5-27.5 23.4-60.3 37.3-95.3 45.5-8.9 2.1-18.4 3.1-27.5 2.7-18-0.8-26.4-10.8-25.5-29.7zm166.1-285.2c-5 10.6-8.8 19.9-13.7 28.7-19.1 34.5-55.8 34.9-75.9 1-2.5-4.3-4.7-8.9-6.4-13.6-6.9-19.4-1.8-35.7 13.8-45.7 15.6-9.9 25.5-7.9 42.4 9.4 10.5 10.8 22 19.4 39.7 20.3z"/>
							<path class="s2" d="m119.2 264.2c-7.9-9.4-13.3-17.1-19.9-23.3-22.4-21.1-54.9-13.2-65.6 15.8-7.3 19.9-4.2 39.8 2.1 59.1 15.3 47.2 43.8 86.3 79.8 119.1 28.5 25.9 53.1 53.7 73.1 86.8 21.1 35 49.7 64.3 85 85.7 15.1 9.1 31.5 16 48.9 24.7 0.1 4.3-0.4 10.9 0.7 17.2 4.9 26.2 24.8 42.1 54.8 41.3 15.6-0.4 31.6-3.4 46.5-8.1 41.7-13.2 80.6-32 109.4-66.4 6.8-8.1 12.6-17.8 16.5-27.7 8.7-22.2 3.5-41.7-17.2-58.7 6.4-6 12.8-11.6 18.6-17.7 28.7-29.7 51.3-63.2 57.7-104.9 2.2-14.6 2-30.2-0.5-44.8-4.9-28.6-20-41.6-50.2-47.4-8.2-47.7-30.6-85-77.1-103.3-45.3-17.9-88.5-13.4-128.7 17.2-7.2-13.1-7.3-26.6-5.9-39.9 2.5-24.6 6.4-49 8.8-73.6 1.2-11.9 1.3-23.9 0.6-35.8-1.1-19.7-8.4-36.4-27.9-44.5-20.4-8.5-40.2-6.2-58.1 7.1-18.5 13.8-28.4 33.6-34.2 55.1-5.4 20-8.5 40.6-14.2 61.5-0.2-5.3 0-10.6-0.6-15.8-1-10.8-1.8-21.6-3.8-32.2-3.8-20.1-14.1-34.9-35.4-39.7-22.8-5.1-42.4 0-56.9 18.9-15 19.6-18.8 42.9-19.8 66.7-1.5 33.5 3 66.3 11.6 98.6 0.6 2.2 1 4.4 2 8.9zm229.2 371.5c9.2-0.8 17.3-3.2 16.7-13.9-0.6-10-8.9-10.6-16.6-12.7-16.6-4.6-34-8.3-49.2-16-40.1-20.2-70.5-52.2-92.9-90.2-18.7-31.8-41.9-58.1-69.4-82.3-33.3-29.4-60.4-64.4-75.1-107.1-4.5-13.1-5.8-27.9-5.5-41.8 0.1-5.9 7-14.2 12.8-16.5 3.9-1.6 13.2 3.9 16.8 8.7 9.2 12.3 16.2 26.2 24.9 39 10.2 14.9 19.1 31.8 32.5 43.1 15.1 12.6 32.6 22.6 47.6 35.7 6.4 5.6 14.2 5 19.1-2.4 4.7-7 1.9-13.3-4.7-18-18.1-12.9-31.3-30.3-40.6-49.9-23.9-50.6-39.1-103.6-33.4-160.2 1.6-15.6 7.6-31.3 14.3-45.7 5.4-11.5 17.8-12.3 29.6-10.2 11.3 2 16 10 17.5 20.4 1.5 10.7 2.9 21.5 3.6 32.2 2.5 35.4 8.5 69.8 26 101.3 6 10.7 10.8 22.1 16.4 33 5.1 9.9 10.4 19.8 16.2 29.3 4.1 6.8 10.6 9.6 17.7 4.5 7.3-5.4 5.8-11.8 2.1-19.4-7.2-15.1-14.3-30.6-19-46.6-3.8-13.2-4.8-27.4-5.7-41.3-2.6-38.5-1.2-76.8 13.3-113 4.7-11.8 12.1-23.8 21.5-32.2 19-17 42.9-7.2 46.5 17.8 0.8 5.3 1 10.9 0.4 16.2-2.8 25-6.6 49.8-8.7 74.8-2 23.4-4.5 47.5 8.1 69 4.3 7.3 3.9 12-0.3 18.6-6.2 9.6-4.9 18.6 2.7 21.9 10.3 4.4 14.7-2.7 18.6-10.3 10.9-21.1 28.1-34.8 51-40.6 53.4-13.6 110.2 9.8 127.4 71.8 1.5 5.4 0 16-3.2 17.4-6.9 3.1-16.5 4-23.5 1.7-6.7-2.2-12-9.4-17.3-15-23.8-25.2-65.8-17.7-85.4 9-27.1 36.8-0.4 101.1 46.8 113.4 16.7 4.4 32.1 1.4 46.6-7.7 14.5-9.2 24.8-21.8 32-37.3 5.2-11.2 10-22.7 16.5-33.1 8-12.8 23.9-13.2 33-1.2 3.8 5.1 6.5 11.5 8.1 17.7 5.9 22.8 0.6 44.5-8.2 65.5-18.2 43.5-53.2 73.4-85.7 105.3-8.8 8.6-12 14.9-6.4 21.1 7.8 8.6 15.2 4.4 22.3-1.3 0.9-0.7 1.8-1.4 2.8-2.1 8.1-6.2 14.4-5.4 17.4 4.1 2 6.5 2.8 15.8-0.4 20.9-8.3 13.2-17.7 26.5-29.5 36.5-27.5 23.4-60.3 37.3-95.3 45.5-8.9 2.1-18.4 3.1-27.5 2.7-18-0.8-26.4-10.8-25.5-29.7zm166.1-285.2c-5 10.6-8.8 19.9-13.7 28.7-19.1 34.5-55.8 34.9-75.9 1-2.5-4.3-4.7-8.9-6.4-13.6-6.9-19.4-1.8-35.7 13.8-45.7 15.6-9.9 25.5-7.9 42.4 9.4 10.5 10.8 22 19.4 39.7 20.3z"/>
						</g>
					</g>
					<g>
						<path class="s7" d="m630.1 175.8c8.4 13.5 16 25.9 24.1 38.8-26.3 16.4-51.9 32.3-78.3 48.8-7.9-11.5-15.4-22.5-23.6-34.4 26-17.8 51.3-35.1 77.8-53.3z"/>
						<path class="s2" d="m630.1 175.8c8.4 13.5 16 25.9 24.1 38.8-26.3 16.4-51.9 32.3-78.3 48.8-7.9-11.5-15.4-22.5-23.6-34.4 26-17.8 51.3-35.1 77.8-53.3z"/>
					</g>
					<g>
						<path class="s8" d="m541.1 216.4c-8.3-3.3-15.9-6.3-24.3-9.7 6.5-16.3 12.8-32.5 19.5-49.3 9.2 4.2 17.9 8.3 27 12.5-7.5 15.6-14.7 30.7-22.2 46.4z"/>
						<path class="s2" d="m541.1 216.4c-8.3-3.3-15.9-6.3-24.3-9.7 6.5-16.3 12.8-32.5 19.5-49.3 9.2 4.2 17.9 8.3 27 12.5-7.5 15.6-14.7 30.7-22.2 46.4z"/>
					</g>
					<g>
						<path class="s8" d="m584.1 302.6c-0.6-9-1.2-17-1.8-26.1 17.5-1.3 34.8-2.5 52.9-3.9 0.2 10.1 0.3 19.7 0.4 29.8-17.3 0-34 0-51.5 0.1z"/>
						<path class="s2" d="m584.1 302.6c-0.6-9-1.2-17-1.8-26.1 17.5-1.3 34.8-2.5 52.9-3.9 0.2 10.1 0.3 19.7 0.4 29.8-17.3 0-34 0-51.5 0.1z"/>
					</g>
				</g>
			</g>
		</g>
	</g>
</svg>