<svg version="1.2" xmlns="http://www.w3.org/2000/svg" viewBox="0 0 966 966" width="966" height="966">
	<style>
		.s0 { fill: #ef8a00 } 
		.s1 { fill: #000000 } 
		.s2 { fill: none;stroke: #ffffff;stroke-width: 1 } 
		.s3 { fill: none;stroke: #ffffff;stroke-linecap: round;stroke-linejoin: round;stroke-width: 47.7 } 
		.s4 { fill: #ffffff } 
		.s5 { fill: #ffffff;stroke: #ffffff;stroke-width: 1 } 
		.s6 { fill: none;stroke: #ffffff;stroke-linecap: round;stroke-linejoin: round;stroke-width: 41.8 } 
		.s7 { fill: none;stroke: #ffffff;stroke-linecap: round;stroke-linejoin: round;stroke-width: 25.8 } 
		.s8 { fill: none;stroke: #ffffff;stroke-linecap: round;stroke-linejoin: round;stroke-width: 27.3 } 
	</style>
	<path fill-rule="evenodd" class="s0" d="m483 965.67c-266.92 0-482.67-215.75-482.67-482.67 0-266.92 215.75-482.67 482.67-482.67 266.92 0 482.67 215.75 482.67 482.67 0 266.92-215.75 482.67-482.67 482.67z"/>
	<g>
		<g>
			<g>
				<g>
					<path class="s1" d="m278.07 405.43c-6.39-7.57-10.7-13.78-16.08-18.83-18.12-17.03-44.33-10.65-52.94 12.75-5.9 16.05-3.37 32.09 1.69 47.7 12.34 38.07 35.31 69.66 64.37 96.12 22.97 20.92 42.82 43.34 58.95 70.07 17.02 28.21 40.09 51.86 68.59 69.16 12.15 7.38 25.42 12.92 39.47 19.94 0.12 3.46-0.35 8.78 0.59 13.84 3.94 21.17 20 33.98 44.19 33.3 12.59-0.35 25.52-2.75 37.55-6.56 33.64-10.67 65.02-25.81 88.31-53.57 5.51-6.57 10.14-14.35 13.28-22.32 7.05-17.92 2.8-33.61-13.9-47.33 5.17-4.88 10.3-9.36 15.02-14.24 23.19-23.98 41.41-50.98 46.56-84.62 1.8-11.79 1.61-24.38-0.39-36.15-3.93-23.09-16.14-33.57-40.54-38.24-6.62-38.47-24.72-68.57-62.24-83.38-36.53-14.41-71.43-10.77-103.82 13.87-5.82-10.57-5.86-21.45-4.76-32.18 2.03-19.84 5.13-39.56 7.13-59.4 0.97-9.57 1.05-19.31 0.5-28.92-0.91-15.88-6.79-29.39-22.51-35.92-16.5-6.85-32.45-5-46.88 5.75-14.97 11.15-22.93 27.15-27.62 44.48-4.37 16.13-6.9 32.75-11.43 49.59-0.15-4.26-0.07-8.53-0.49-12.76-0.85-8.68-1.45-17.43-3.06-25.98-3.05-16.24-11.38-28.18-28.57-32.04-18.38-4.13-34.19-0.07-45.88 15.26-12.07 15.81-15.15 34.61-16.01 53.82-1.22 27.01 2.44 53.5 9.33 79.59 0.46 1.76 0.8 3.56 1.61 7.2zm318.92 69.64c-4.06 8.59-7.12 16.09-11.01 23.12-15.4 27.8-45.06 28.16-61.26 0.82-2.05-3.46-3.8-7.18-5.14-10.97-5.55-15.68-1.48-28.84 11.16-36.88 12.56-7.99 20.61-6.37 34.23 7.56 8.51 8.7 17.76 15.69 32.02 16.35z"/>
					<path class="s2" d="m278.07 405.43c-6.39-7.57-10.7-13.78-16.08-18.83-18.12-17.03-44.33-10.65-52.94 12.75-5.9 16.05-3.37 32.09 1.69 47.7 12.34 38.07 35.31 69.66 64.37 96.12 22.97 20.92 42.82 43.34 58.95 70.07 17.02 28.21 40.09 51.86 68.59 69.16 12.15 7.38 25.42 12.92 39.47 19.94 0.12 3.46-0.35 8.78 0.59 13.84 3.94 21.17 20 33.98 44.19 33.3 12.59-0.35 25.52-2.75 37.55-6.56 33.64-10.67 65.02-25.81 88.31-53.57 5.51-6.57 10.14-14.35 13.28-22.32 7.05-17.92 2.8-33.61-13.9-47.33 5.17-4.88 10.3-9.36 15.02-14.24 23.19-23.98 41.41-50.98 46.56-84.62 1.8-11.79 1.61-24.38-0.39-36.15-3.93-23.09-16.14-33.57-40.54-38.24-6.62-38.47-24.72-68.57-62.24-83.38-36.53-14.41-71.43-10.77-103.82 13.87-5.82-10.57-5.86-21.45-4.76-32.18 2.03-19.84 5.13-39.56 7.13-59.4 0.97-9.57 1.05-19.31 0.5-28.92-0.91-15.88-6.79-29.39-22.51-35.92-16.5-6.85-32.45-5-46.88 5.75-14.97 11.15-22.93 27.15-27.62 44.48-4.37 16.13-6.9 32.75-11.43 49.59-0.15-4.26-0.07-8.53-0.49-12.76-0.85-8.68-1.45-17.43-3.06-25.98-3.05-16.24-11.38-28.18-28.57-32.04-18.38-4.13-34.19-0.07-45.88 15.26-12.07 15.81-15.15 34.61-16.01 53.82-1.22 27.01 2.44 53.5 9.33 79.59 0.46 1.76 0.8 3.56 1.61 7.2zm318.92 69.64c-4.06 8.59-7.12 16.09-11.01 23.12-15.4 27.8-45.06 28.16-61.26 0.82-2.05-3.46-3.8-7.18-5.14-10.97-5.55-15.68-1.48-28.84 11.16-36.88 12.56-7.99 20.61-6.37 34.23 7.56 8.51 8.7 17.76 15.69 32.02 16.35z"/>
					<path class="s3" d="m278.07 405.43c-6.39-7.57-10.7-13.78-16.08-18.83-18.12-17.03-44.33-10.65-52.94 12.75-5.9 16.05-3.37 32.09 1.69 47.7 12.34 38.07 35.31 69.66 64.37 96.12 22.97 20.92 42.82 43.34 58.95 70.07 17.02 28.21 40.09 51.86 68.59 69.16 12.15 7.38 25.42 12.92 39.47 19.94 0.12 3.46-0.35 8.78 0.59 13.84 3.94 21.17 20 33.98 44.19 33.3 12.59-0.35 25.52-2.75 37.55-6.56 33.64-10.67 65.02-25.81 88.31-53.57 5.51-6.57 10.14-14.35 13.28-22.32 7.05-17.92 2.8-33.61-13.9-47.33 5.17-4.88 10.3-9.36 15.02-14.24 23.19-23.98 41.41-50.98 46.56-84.62 1.8-11.79 1.61-24.38-0.39-36.15-3.93-23.09-16.14-33.57-40.54-38.24-6.62-38.47-24.72-68.57-62.24-83.38-36.53-14.41-71.43-10.77-103.82 13.87-5.82-10.57-5.86-21.45-4.76-32.18 2.03-19.84 5.13-39.56 7.13-59.4 0.97-9.57 1.05-19.31 0.5-28.92-0.91-15.88-6.79-29.39-22.51-35.92-16.5-6.85-32.45-5-46.88 5.75-14.97 11.15-22.93 27.15-27.62 44.48-4.37 16.13-6.9 32.75-11.43 49.59-0.15-4.26-0.07-8.53-0.49-12.76-0.85-8.68-1.45-17.43-3.06-25.98-3.05-16.24-11.38-28.18-28.57-32.04-18.38-4.13-34.19-0.07-45.88 15.26-12.07 15.81-15.15 34.61-16.01 53.82-1.22 27.01 2.44 53.5 9.33 79.59 0.46 1.76 0.8 3.56 1.61 7.2zm318.92 69.64c-4.06 8.59-7.12 16.09-11.01 23.12-15.4 27.8-45.06 28.16-61.26 0.82-2.05-3.46-3.8-7.18-5.14-10.97-5.55-15.68-1.48-28.84 11.16-36.88 12.56-7.99 20.61-6.37 34.23 7.56 8.51 8.7 17.76 15.69 32.02 16.35z"/>
					<path class="s4" d="m278.07 405.43c-6.39-7.57-10.7-13.78-16.08-18.83-18.12-17.03-44.33-10.65-52.94 12.75-5.9 16.05-3.37 32.09 1.69 47.7 12.34 38.07 35.31 69.66 64.37 96.12 22.97 20.92 42.82 43.34 58.95 70.07 17.02 28.21 40.09 51.86 68.59 69.16 12.15 7.38 25.42 12.92 39.47 19.94 0.12 3.46-0.35 8.78 0.59 13.84 3.94 21.17 20 33.98 44.19 33.3 12.59-0.35 25.52-2.75 37.55-6.56 33.64-10.67 65.02-25.81 88.31-53.57 5.51-6.57 10.14-14.35 13.28-22.32 7.05-17.92 2.8-33.61-13.9-47.33 5.17-4.88 10.3-9.36 15.02-14.24 23.19-23.98 41.41-50.98 46.56-84.62 1.8-11.79 1.61-24.38-0.39-36.15-3.93-23.09-16.14-33.57-40.54-38.24-6.62-38.47-24.72-68.57-62.24-83.38-36.53-14.41-71.43-10.77-103.82 13.87-5.82-10.57-5.86-21.45-4.76-32.18 2.03-19.84 5.13-39.56 7.13-59.4 0.97-9.57 1.05-19.31 0.5-28.92-0.91-15.88-6.79-29.39-22.51-35.92-16.5-6.85-32.45-5-46.88 5.75-14.97 11.15-22.93 27.15-27.62 44.48-4.37 16.13-6.9 32.75-11.43 49.59-0.15-4.26-0.07-8.53-0.49-12.76-0.85-8.68-1.45-17.43-3.06-25.98-3.05-16.24-11.38-28.18-28.57-32.04-18.38-4.13-34.19-0.07-45.88 15.26-12.07 15.81-15.15 34.61-16.01 53.82-1.22 27.01 2.44 53.5 9.33 79.59 0.46 1.76 0.8 3.56 1.61 7.2zm318.92 69.64c-4.06 8.59-7.12 16.09-11.01 23.12-15.4 27.8-45.06 28.16-61.26 0.82-2.05-3.46-3.8-7.18-5.14-10.97-5.55-15.68-1.48-28.84 11.16-36.88 12.56-7.99 20.61-6.37 34.23 7.56 8.51 8.7 17.76 15.69 32.02 16.35z"/>
				</g>
				<path fill-rule="evenodd" class="s5" d="m557.06 529.98c-30.73 1.06-56.21-16.72-57-39.76-0.8-23.05 23.4-42.53 54.13-43.59 30.73-1.06 56.21 16.72 57 39.77 0.79 23.04-23.41 42.53-54.13 43.58z"/>
			</g>
			<g>
				<path class="s1" d="m278.07 405.43c-6.39-7.57-10.7-13.78-16.08-18.83-18.12-17.03-44.33-10.65-52.94 12.75-5.9 16.05-3.37 32.09 1.69 47.7 12.34 38.07 35.31 69.66 64.37 96.12 22.97 20.92 42.82 43.34 58.95 70.07 17.02 28.21 40.09 51.86 68.59 69.16 12.15 7.38 25.42 12.92 39.47 19.94 0.12 3.46-0.35 8.78 0.59 13.84 3.94 21.17 20 33.98 44.19 33.3 12.59-0.35 25.52-2.75 37.55-6.56 33.64-10.67 65.02-25.81 88.31-53.57 5.51-6.57 10.14-14.35 13.28-22.32 7.05-17.92 2.8-33.61-13.9-47.33 5.17-4.88 10.3-9.36 15.02-14.24 23.19-23.98 41.41-50.98 46.56-84.62 1.8-11.79 1.61-24.38-0.39-36.15-3.93-23.09-16.14-33.57-40.54-38.24-6.62-38.47-24.72-68.57-62.24-83.38-36.53-14.41-71.43-10.77-103.82 13.87-5.82-10.57-5.86-21.45-4.76-32.18 2.03-19.84 5.13-39.56 7.13-59.4 0.97-9.57 1.05-19.31 0.5-28.92-0.91-15.88-6.79-29.39-22.51-35.92-16.5-6.85-32.45-5-46.88 5.75-14.97 11.15-22.93 27.15-27.62 44.48-4.37 16.13-6.9 32.75-11.43 49.59-0.15-4.26-0.07-8.53-0.49-12.76-0.85-8.68-1.45-17.43-3.06-25.98-3.05-16.24-11.38-28.18-28.57-32.04-18.38-4.13-34.19-0.07-45.88 15.26-12.07 15.81-15.15 34.61-16.01 53.82-1.22 27.01 2.44 53.5 9.33 79.59 0.46 1.76 0.8 3.56 1.61 7.2zm184.9 299.75c7.42-0.69 13.98-2.57 13.5-11.21-0.45-8.06-7.2-8.55-13.42-10.27-13.43-3.7-27.42-6.72-39.71-12.92-32.34-16.32-56.89-42.12-74.95-72.75-15.11-25.63-33.82-46.87-55.96-66.41-26.87-23.71-48.76-51.98-60.56-86.44-3.62-10.58-4.67-22.48-4.45-33.72 0.09-4.76 5.66-11.48 10.32-13.36 3.19-1.28 10.64 3.13 13.54 6.98 7.46 9.91 13.09 21.18 20.12 31.45 8.23 12.03 15.38 25.7 26.25 34.77 12.16 10.16 26.28 18.22 38.43 28.82 5.14 4.49 11.43 4.07 15.46-1.93 3.8-5.66 1.5-10.72-3.79-14.48-14.62-10.4-25.25-24.47-32.72-40.27-19.3-40.82-31.51-83.6-26.93-129.28 1.26-12.6 6.16-25.25 11.57-36.87 4.33-9.31 14.37-9.9 23.86-8.22 9.13 1.61 12.93 8.09 14.13 16.42 1.24 8.63 2.31 17.31 2.93 26 2.02 28.55 6.88 56.29 21.01 81.76 4.81 8.66 8.69 17.83 13.26 26.63 4.15 8 8.39 15.97 13.09 23.65 3.35 5.47 8.53 7.79 14.27 3.59 5.9-4.32 4.66-9.49 1.73-15.66-5.8-12.23-11.54-24.68-15.29-37.62-3.09-10.66-3.88-22.12-4.62-33.29-2.07-31.03-0.97-61.94 10.73-91.2 3.81-9.53 9.77-19.23 17.31-26.01 15.3-13.75 34.62-5.79 37.5 14.35 0.61 4.28 0.82 8.75 0.35 13.04-2.23 20.13-5.33 40.18-7.02 60.35-1.58 18.89-3.68 38.33 6.53 55.69 3.44 5.86 3.18 9.71-0.23 14.99-5.03 7.79-3.98 15.01 2.18 17.67 8.28 3.58 11.84-2.18 15.02-8.33 8.82-17.04 22.69-28.11 41.11-32.79 43.08-10.94 88.93 7.9 102.78 57.93 1.2 4.35-0.02 12.91-2.56 14.04-5.56 2.48-13.28 3.23-19.01 1.34-5.4-1.78-9.67-7.58-13.93-12.09-19.18-20.3-53.07-14.25-68.89 7.23-21.86 29.68-0.3 81.54 37.72 91.51 13.47 3.53 25.92 1.12 37.57-6.23 11.7-7.38 20.02-17.61 25.86-30.06 4.23-9.02 8.1-18.3 13.32-26.73 6.42-10.36 19.3-10.69 26.58-0.94 3.07 4.11 5.22 9.27 6.52 14.28 4.77 18.39 0.49 35.92-6.58 52.86-14.65 35.09-42.96 59.24-69.16 84.94-7.11 6.97-9.73 12.01-5.19 17.05 6.26 6.96 12.22 3.56 17.96-1.08q1.1-0.88 2.22-1.72c6.51-5.04 11.64-4.39 14.07 3.34 1.64 5.21 2.29 12.74-0.34 16.88-6.73 10.61-14.29 21.37-23.77 29.43-22.18 18.89-48.65 30.09-76.91 36.71-7.2 1.69-14.85 2.5-22.22 2.18-14.54-0.64-21.29-8.71-20.55-23.99zm134.02-230.11c-4.06 8.59-7.12 16.09-11.01 23.12-15.4 27.8-45.06 28.16-61.26 0.82-2.05-3.46-3.8-7.18-5.14-10.97-5.55-15.68-1.48-28.84 11.16-36.88 12.56-7.99 20.61-6.37 34.23 7.56 8.51 8.7 17.76 15.69 32.02 16.35z"/>
				<path class="s2" d="m278.07 405.43c-6.39-7.57-10.7-13.78-16.08-18.83-18.12-17.03-44.33-10.65-52.94 12.75-5.9 16.05-3.37 32.09 1.69 47.7 12.34 38.07 35.31 69.66 64.37 96.12 22.97 20.92 42.82 43.34 58.95 70.07 17.02 28.21 40.09 51.86 68.59 69.16 12.15 7.38 25.42 12.92 39.47 19.94 0.12 3.46-0.35 8.78 0.59 13.84 3.94 21.17 20 33.98 44.19 33.3 12.59-0.35 25.52-2.75 37.55-6.56 33.64-10.67 65.02-25.81 88.31-53.57 5.51-6.57 10.14-14.35 13.28-22.32 7.05-17.92 2.8-33.61-13.9-47.33 5.17-4.88 10.3-9.36 15.02-14.24 23.19-23.98 41.41-50.98 46.56-84.62 1.8-11.79 1.61-24.38-0.39-36.15-3.93-23.09-16.14-33.57-40.54-38.24-6.62-38.47-24.72-68.57-62.24-83.38-36.53-14.41-71.43-10.77-103.82 13.87-5.82-10.57-5.86-21.45-4.76-32.18 2.03-19.84 5.13-39.56 7.13-59.4 0.97-9.57 1.05-19.31 0.5-28.92-0.91-15.88-6.79-29.39-22.51-35.92-16.5-6.85-32.45-5-46.88 5.75-14.97 11.15-22.93 27.15-27.62 44.48-4.37 16.13-6.9 32.75-11.43 49.59-0.15-4.26-0.07-8.53-0.49-12.76-0.85-8.68-1.45-17.43-3.06-25.98-3.05-16.24-11.38-28.18-28.57-32.04-18.38-4.13-34.19-0.07-45.88 15.26-12.07 15.81-15.15 34.61-16.01 53.82-1.22 27.01 2.44 53.5 9.33 79.59 0.46 1.76 0.8 3.56 1.61 7.2zm184.9 299.75c7.42-0.69 13.98-2.57 13.5-11.21-0.45-8.06-7.2-8.55-13.42-10.27-13.43-3.7-27.42-6.72-39.71-12.92-32.34-16.32-56.89-42.12-74.95-72.75-15.11-25.63-33.82-46.87-55.96-66.41-26.87-23.71-48.76-51.98-60.56-86.44-3.62-10.58-4.67-22.48-4.45-33.72 0.09-4.76 5.66-11.48 10.32-13.36 3.19-1.28 10.64 3.13 13.54 6.98 7.46 9.91 13.09 21.18 20.12 31.45 8.23 12.03 15.38 25.7 26.25 34.77 12.16 10.16 26.28 18.22 38.43 28.82 5.14 4.49 11.43 4.07 15.46-1.93 3.8-5.66 1.5-10.72-3.79-14.48-14.62-10.4-25.25-24.47-32.72-40.27-19.3-40.82-31.51-83.6-26.93-129.28 1.26-12.6 6.16-25.25 11.57-36.87 4.33-9.31 14.37-9.9 23.86-8.22 9.13 1.61 12.93 8.09 14.13 16.42 1.24 8.63 2.31 17.31 2.93 26 2.02 28.55 6.88 56.29 21.01 81.76 4.81 8.66 8.69 17.83 13.26 26.63 4.15 8 8.39 15.97 13.09 23.65 3.35 5.47 8.53 7.79 14.27 3.59 5.9-4.32 4.66-9.49 1.73-15.66-5.8-12.23-11.54-24.68-15.29-37.62-3.09-10.66-3.88-22.12-4.62-33.29-2.07-31.03-0.97-61.94 10.73-91.2 3.81-9.53 9.77-19.23 17.31-26.01 15.3-13.75 34.62-5.79 37.5 14.35 0.61 4.28 0.82 8.75 0.35 13.04-2.23 20.13-5.33 40.18-7.02 60.35-1.58 18.89-3.68 38.33 6.53 55.69 3.44 5.86 3.18 9.71-0.23 14.99-5.03 7.79-3.98 15.01 2.18 17.67 8.28 3.58 11.84-2.18 15.02-8.33 8.82-17.04 22.69-28.11 41.11-32.79 43.08-10.94 88.93 7.9 102.78 57.93 1.2 4.35-0.02 12.91-2.56 14.04-5.56 2.48-13.28 3.23-19.01 1.34-5.4-1.78-9.67-7.58-13.93-12.09-19.18-20.3-53.07-14.25-68.89 7.23-21.86 29.68-0.3 81.54 37.72 91.51 13.47 3.53 25.92 1.12 37.57-6.23 11.7-7.38 20.02-17.61 25.86-30.06 4.23-9.02 8.1-18.3 13.32-26.73 6.42-10.36 19.3-10.69 26.58-0.94 3.07 4.11 5.22 9.27 6.52 14.28 4.77 18.39 0.49 35.92-6.58 52.86-14.65 35.09-42.96 59.24-69.16 84.94-7.11 6.97-9.73 12.01-5.19 17.05 6.26 6.96 12.22 3.56 17.96-1.08q1.1-0.88 2.22-1.72c6.51-5.04 11.64-4.39 14.07 3.34 1.64 5.21 2.29 12.74-0.34 16.88-6.73 10.61-14.29 21.37-23.77 29.43-22.18 18.89-48.65 30.09-76.91 36.71-7.2 1.69-14.85 2.5-22.22 2.18-14.54-0.64-21.29-8.71-20.55-23.99zm134.02-230.11c-4.06 8.59-7.12 16.09-11.01 23.12-15.4 27.8-45.06 28.16-61.26 0.82-2.05-3.46-3.8-7.18-5.14-10.97-5.55-15.68-1.48-28.84 11.16-36.88 12.56-7.99 20.61-6.37 34.23 7.56 8.51 8.7 17.76 15.69 32.02 16.35z"/>
				<path class="s3" d="m278.07 405.43c-6.39-7.57-10.7-13.78-16.08-18.83-18.12-17.03-44.33-10.65-52.94 12.75-5.9 16.05-3.37 32.09 1.69 47.7 12.34 38.07 35.31 69.66 64.37 96.12 22.97 20.92 42.82 43.34 58.95 70.07 17.02 28.21 40.09 51.86 68.59 69.16 12.15 7.38 25.42 12.92 39.47 19.94 0.12 3.46-0.35 8.78 0.59 13.84 3.94 21.17 20 33.98 44.19 33.3 12.59-0.35 25.52-2.75 37.55-6.56 33.64-10.67 65.02-25.81 88.31-53.57 5.51-6.57 10.14-14.35 13.28-22.32 7.05-17.92 2.8-33.61-13.9-47.33 5.17-4.88 10.3-9.36 15.02-14.24 23.19-23.98 41.41-50.98 46.56-84.62 1.8-11.79 1.61-24.38-0.39-36.15-3.93-23.09-16.14-33.57-40.54-38.24-6.62-38.47-24.72-68.57-62.24-83.38-36.53-14.41-71.43-10.77-103.82 13.87-5.82-10.57-5.86-21.45-4.76-32.18 2.03-19.84 5.13-39.56 7.13-59.4 0.97-9.57 1.05-19.31 0.5-28.92-0.91-15.88-6.79-29.39-22.51-35.92-16.5-6.85-32.45-5-46.88 5.75-14.97 11.15-22.93 27.15-27.62 44.48-4.37 16.13-6.9 32.75-11.43 49.59-0.15-4.26-0.07-8.53-0.49-12.76-0.85-8.68-1.45-17.43-3.06-25.98-3.05-16.24-11.38-28.18-28.57-32.04-18.38-4.13-34.19-0.07-45.88 15.26-12.07 15.81-15.15 34.61-16.01 53.82-1.22 27.01 2.44 53.5 9.33 79.59 0.46 1.76 0.8 3.56 1.61 7.2zm184.9 299.75c7.42-0.69 13.98-2.57 13.5-11.21-0.45-8.06-7.2-8.55-13.42-10.27-13.43-3.7-27.42-6.72-39.71-12.92-32.34-16.32-56.89-42.12-74.95-72.75-15.11-25.63-33.82-46.87-55.96-66.41-26.87-23.71-48.76-51.98-60.56-86.44-3.62-10.58-4.67-22.48-4.45-33.72 0.09-4.76 5.66-11.48 10.32-13.36 3.19-1.28 10.64 3.13 13.54 6.98 7.46 9.91 13.09 21.18 20.12 31.45 8.23 12.03 15.38 25.7 26.25 34.77 12.16 10.16 26.28 18.22 38.43 28.82 5.14 4.49 11.43 4.07 15.46-1.93 3.8-5.66 1.5-10.72-3.79-14.48-14.62-10.4-25.25-24.47-32.72-40.27-19.3-40.82-31.51-83.6-26.93-129.28 1.26-12.6 6.16-25.25 11.57-36.87 4.33-9.31 14.37-9.9 23.86-8.22 9.13 1.61 12.93 8.09 14.13 16.42 1.24 8.63 2.31 17.31 2.93 26 2.02 28.55 6.88 56.29 21.01 81.76 4.81 8.66 8.69 17.83 13.26 26.63 4.15 8 8.39 15.97 13.09 23.65 3.35 5.47 8.53 7.79 14.27 3.59 5.9-4.32 4.66-9.49 1.73-15.66-5.8-12.23-11.54-24.68-15.29-37.62-3.09-10.66-3.88-22.12-4.62-33.29-2.07-31.03-0.97-61.94 10.73-91.2 3.81-9.53 9.77-19.23 17.31-26.01 15.3-13.75 34.62-5.79 37.5 14.35 0.61 4.28 0.82 8.75 0.35 13.04-2.23 20.13-5.33 40.18-7.02 60.35-1.58 18.89-3.68 38.33 6.53 55.69 3.44 5.86 3.18 9.71-0.23 14.99-5.03 7.79-3.98 15.01 2.18 17.67 8.28 3.58 11.84-2.18 15.02-8.33 8.82-17.04 22.69-28.11 41.11-32.79 43.08-10.94 88.93 7.9 102.78 57.93 1.2 4.35-0.02 12.91-2.56 14.04-5.56 2.48-13.28 3.23-19.01 1.34-5.4-1.78-9.67-7.58-13.93-12.09-19.18-20.3-53.07-14.25-68.89 7.23-21.86 29.68-0.3 81.54 37.72 91.51 13.47 3.53 25.92 1.12 37.57-6.23 11.7-7.38 20.02-17.61 25.86-30.06 4.23-9.02 8.1-18.3 13.32-26.73 6.42-10.36 19.3-10.69 26.58-0.94 3.07 4.11 5.22 9.27 6.52 14.28 4.77 18.39 0.49 35.92-6.58 52.86-14.65 35.09-42.96 59.24-69.16 84.94-7.11 6.97-9.73 12.01-5.19 17.05 6.26 6.96 12.22 3.56 17.96-1.08q1.1-0.88 2.22-1.72c6.51-5.04 11.64-4.39 14.07 3.34 1.64 5.21 2.29 12.74-0.34 16.88-6.73 10.61-14.29 21.37-23.77 29.43-22.18 18.89-48.65 30.09-76.91 36.71-7.2 1.69-14.85 2.5-22.22 2.18-14.54-0.64-21.29-8.71-20.55-23.99zm134.02-230.11c-4.06 8.59-7.12 16.09-11.01 23.12-15.4 27.8-45.06 28.16-61.26 0.82-2.05-3.46-3.8-7.18-5.14-10.97-5.55-15.68-1.48-28.84 11.16-36.88 12.56-7.99 20.61-6.37 34.23 7.56 8.51 8.7 17.76 15.69 32.02 16.35z"/>
				<path class="s0" d="m278.07 405.43c-6.39-7.57-10.7-13.78-16.08-18.83-18.12-17.03-44.33-10.65-52.94 12.75-5.9 16.05-3.37 32.09 1.69 47.7 12.34 38.07 35.31 69.66 64.37 96.12 22.97 20.92 42.82 43.34 58.95 70.07 17.02 28.21 40.09 51.86 68.59 69.16 12.15 7.38 25.42 12.92 39.47 19.94 0.12 3.46-0.35 8.78 0.59 13.84 3.94 21.17 20 33.98 44.19 33.3 12.59-0.35 25.52-2.75 37.55-6.56 33.64-10.67 65.02-25.81 88.31-53.57 5.51-6.57 10.14-14.35 13.28-22.32 7.05-17.92 2.8-33.61-13.9-47.33 5.17-4.88 10.3-9.36 15.02-14.24 23.19-23.98 41.41-50.98 46.56-84.62 1.8-11.79 1.61-24.38-0.39-36.15-3.93-23.09-16.14-33.57-40.54-38.24-6.62-38.47-24.72-68.57-62.24-83.38-36.53-14.41-71.43-10.77-103.82 13.87-5.82-10.57-5.86-21.45-4.76-32.18 2.03-19.84 5.13-39.56 7.13-59.4 0.97-9.57 1.05-19.31 0.5-28.92-0.91-15.88-6.79-29.39-22.51-35.92-16.5-6.85-32.45-5-46.88 5.75-14.97 11.15-22.93 27.15-27.62 44.48-4.37 16.13-6.9 32.75-11.43 49.59-0.15-4.26-0.07-8.53-0.49-12.76-0.85-8.68-1.45-17.43-3.06-25.98-3.05-16.24-11.38-28.18-28.57-32.04-18.38-4.13-34.19-0.07-45.88 15.26-12.07 15.81-15.15 34.61-16.01 53.82-1.22 27.01 2.44 53.5 9.33 79.59 0.46 1.76 0.8 3.56 1.61 7.2zm184.9 299.75c7.42-0.69 13.98-2.57 13.5-11.21-0.45-8.06-7.2-8.55-13.42-10.27-13.43-3.7-27.42-6.72-39.71-12.92-32.34-16.32-56.89-42.12-74.95-72.75-15.11-25.63-33.82-46.87-55.96-66.41-26.87-23.71-48.76-51.98-60.56-86.44-3.62-10.58-4.67-22.48-4.45-33.72 0.09-4.76 5.66-11.48 10.32-13.36 3.19-1.28 10.64 3.13 13.54 6.98 7.46 9.91 13.09 21.18 20.12 31.45 8.23 12.03 15.38 25.7 26.25 34.77 12.16 10.16 26.28 18.22 38.43 28.82 5.14 4.49 11.43 4.07 15.46-1.93 3.8-5.66 1.5-10.72-3.79-14.48-14.62-10.4-25.25-24.47-32.72-40.27-19.3-40.82-31.51-83.6-26.93-129.28 1.26-12.6 6.16-25.25 11.57-36.87 4.33-9.31 14.37-9.9 23.86-8.22 9.13 1.61 12.93 8.09 14.13 16.42 1.24 8.63 2.31 17.31 2.93 26 2.02 28.55 6.88 56.29 21.01 81.76 4.81 8.66 8.69 17.83 13.26 26.63 4.15 8 8.39 15.97 13.09 23.65 3.35 5.47 8.53 7.79 14.27 3.59 5.9-4.32 4.66-9.49 1.73-15.66-5.8-12.23-11.54-24.68-15.29-37.62-3.09-10.66-3.88-22.12-4.62-33.29-2.07-31.03-0.97-61.94 10.73-91.2 3.81-9.53 9.77-19.23 17.31-26.01 15.3-13.75 34.62-5.79 37.5 14.35 0.61 4.28 0.82 8.75 0.35 13.04-2.23 20.13-5.33 40.18-7.02 60.35-1.58 18.89-3.68 38.33 6.53 55.69 3.44 5.86 3.18 9.71-0.23 14.99-5.03 7.79-3.98 15.01 2.18 17.67 8.28 3.58 11.84-2.18 15.02-8.33 8.82-17.04 22.69-28.11 41.11-32.79 43.08-10.94 88.93 7.9 102.78 57.93 1.2 4.35-0.02 12.91-2.56 14.04-5.56 2.48-13.28 3.23-19.01 1.34-5.4-1.78-9.67-7.58-13.93-12.09-19.18-20.3-53.07-14.25-68.89 7.23-21.86 29.68-0.3 81.54 37.72 91.51 13.47 3.53 25.92 1.12 37.57-6.23 11.7-7.38 20.02-17.61 25.86-30.06 4.23-9.02 8.1-18.3 13.32-26.73 6.42-10.36 19.3-10.69 26.58-0.94 3.07 4.11 5.22 9.27 6.52 14.28 4.77 18.39 0.49 35.92-6.58 52.86-14.65 35.09-42.96 59.24-69.16 84.94-7.11 6.97-9.73 12.01-5.19 17.05 6.26 6.96 12.22 3.56 17.96-1.08q1.1-0.88 2.22-1.72c6.51-5.04 11.64-4.39 14.07 3.34 1.64 5.21 2.29 12.74-0.34 16.88-6.73 10.61-14.29 21.37-23.77 29.43-22.18 18.89-48.65 30.09-76.91 36.71-7.2 1.69-14.85 2.5-22.22 2.18-14.54-0.64-21.29-8.71-20.55-23.99zm134.02-230.11c-4.06 8.59-7.12 16.09-11.01 23.12-15.4 27.8-45.06 28.16-61.26 0.82-2.05-3.46-3.8-7.18-5.14-10.97-5.55-15.68-1.48-28.84 11.16-36.88 12.56-7.99 20.61-6.37 34.23 7.56 8.51 8.7 17.76 15.69 32.02 16.35z"/>
			</g>
		</g>
		<g>
			<path class="s6" d="m733.8 327.23c9.24 16.2 17.68 31 26.56 46.57-31.56 18.1-62.21 35.68-93.91 53.87-8.79-13.88-17.1-27-26.16-41.3 31.22-19.74 61.66-39 93.51-59.14z"/>
			<path class="s0" d="m733.8 327.23c9.24 16.2 17.68 31 26.56 46.57-31.56 18.1-62.21 35.68-93.91 53.87-8.79-13.88-17.1-27-26.16-41.3 31.22-19.74 61.66-39 93.51-59.14z"/>
		</g>
		<g>
			<path class="s7" d="m687.75 482.13c0.53-9.94 1-18.91 1.54-28.95 19.46 0.98 38.65 1.95 58.72 2.97-1.22 11.15-2.37 21.72-3.59 32.88-19.02-2.32-37.48-4.57-56.67-6.9z"/>
			<path class="s0" d="m687.75 482.13c0.53-9.94 1-18.91 1.54-28.95 19.46 0.98 38.65 1.95 58.72 2.97-1.22 11.15-2.37 21.72-3.59 32.88-19.02-2.32-37.48-4.57-56.67-6.9z"/>
		</g>
		<g>
			<path class="s8" d="m623.1 361.81c-9.63-4.25-18.33-8.08-28.06-12.37 8.27-18.88 16.42-37.49 24.94-56.97 10.57 5.38 20.59 10.49 31.18 15.88-9.42 17.95-18.56 35.36-28.06 53.46z"/>
			<path class="s0" d="m623.1 361.81c-9.63-4.25-18.33-8.08-28.06-12.37 8.27-18.88 16.42-37.49 24.94-56.97 10.57 5.38 20.59 10.49 31.18 15.88-9.42 17.95-18.56 35.36-28.06 53.46z"/>
		</g>
	</g>
</svg>