<svg version="1.2" xmlns="http://www.w3.org/2000/svg" viewBox="0 0 1834 328" width="1834" height="328">
	<style>
		.s0 { fill: #ffffff } 
		.s1 { fill: none;stroke: #ffffff;stroke-width: 59.7 } 
		.s2 { fill: #007936 } 
		.s3 { fill: none;stroke: #ffffff;stroke-width: 60 } 
	</style>
	<g>
		<g id="_Шар_1">
			<g>
				<g>
					<g>
						<path class="s0" d="m301.4 30.3c30.1 0 42.7 13.4 42.7 49.8v167.9c0 36.4-12.6 49.8-42.7 49.8h-7.8c-30.1 0-42.7-13.4-42.7-49.8v-102.9l-37.9 130.8c-5.2 17.5-14.9 21.9-29.4 21.9h-5.9c-15.2 0-27.1-5.6-32.7-23l-41.6-129.3v102.5c0 13-0.7 24.5-4.8 32.7-5.6 11.2-16.7 17.1-28.6 17.1h-5.9c-11.9 0-23-5.9-28.6-17.1-4.1-8.2-4.8-19.7-4.8-32.7v-167.9c0-36.4 12.6-49.8 43.1-49.8h52.8c19.7 0 31.2 4.5 38.3 24.5l26 75.4 21.9-75.8c5.6-19 17.8-24.1 39.4-24.1h49.4z"/>
						<path class="s0" d="m366.4 144.7c0-25.6 15.2-38.3 34.5-38.3h9.7c19.3 0 34.5 12.6 34.5 38.3v114.8c0 25.6-15.2 38.3-34.5 38.3h-9.7c-19.3 0-34.5-12.6-34.5-38.3zm5.9-82.5c0-17.5 14.9-32 33.4-32 18.5 0 33.4 14.5 33.4 32 0 17.5-15.2 32.7-33.4 32.7-18.2 0-33.4-14.5-33.4-32.7z"/>
						<path class="s0" d="m566.6 106.4c14.5 0 17.5 10.8 17.5 27.9v5.6c0 17.1-3 27.9-17.5 27.9h-8.9v62.4c10 0.7 17.8 7.4 17.8 19.7 0 17.8-8.5 47.9-48.3 47.9-39.8 0-48.3-19-48.3-58v-72.1h-5.2c-14.5 0-17.5-10.8-17.5-27.9v-5.6c0-17.1 3-27.9 17.5-27.9h5.2v-17.8c0-21.9 13.8-23.4 22.7-33.8 8.9-10.4 9.7-24.5 29.3-24.5 19.6 0 26.8 17.1 26.8 38.3v37.9z"/>
						<path class="s0" d="m675.8 131.3c12.3-15.2 30.1-24.9 50.5-24.9 20.4 0 61.7 19.3 61.7 69.1v84c0 25.6-15.2 38.3-34.5 38.3h-9.7c-19.3 0-34.5-12.6-34.5-38.3v-66.1c0-11.5-4.5-19.7-13.8-19.7-9.3 0-19.7 9.3-19.7 30.8v55c0 25.6-15.2 38.3-34.5 38.3h-9.7c-19.3 0-34.5-12.6-34.5-38.3v-191c0-25.6 15.2-38.3 34.5-38.3h9.7c19.3 0 34.5 12.6 34.5 38.3z"/>
						<path class="s0" d="m802.9 202.3c0-56.5 43.1-95.9 95.8-95.9 52.7 0 95.8 39.4 95.8 95.9 0 56.5-43.1 95.5-95.8 95.5-52.7 0-95.8-39.4-95.8-95.5zm114 0c0-19-6.7-30.5-18.2-30.5-11.5 0-18.2 11.5-18.2 30.5 0 19 6.7 30.8 18.2 30.8 11.5 0 18.2-11.5 18.2-30.8z"/>
					</g>
					<g>
						<path class="s1" d="m301.4 30.3c30.1 0 42.7 13.4 42.7 49.8v167.9c0 36.4-12.6 49.8-42.7 49.8h-7.8c-30.1 0-42.7-13.4-42.7-49.8v-102.9l-37.9 130.8c-5.2 17.5-14.9 21.9-29.4 21.9h-5.9c-15.2 0-27.1-5.6-32.7-23l-41.6-129.3v102.5c0 13-0.7 24.5-4.8 32.7-5.6 11.2-16.7 17.1-28.6 17.1h-5.9c-11.9 0-23-5.9-28.6-17.1-4.1-8.2-4.8-19.7-4.8-32.7v-167.9c0-36.4 12.6-49.8 43.1-49.8h52.8c19.7 0 31.2 4.5 38.3 24.5l26 75.4 21.9-75.8c5.6-19 17.8-24.1 39.4-24.1h49.4z"/>
						<path class="s1" d="m366.4 144.7c0-25.6 15.2-38.3 34.5-38.3h9.7c19.3 0 34.5 12.6 34.5 38.3v114.8c0 25.6-15.2 38.3-34.5 38.3h-9.7c-19.3 0-34.5-12.6-34.5-38.3zm5.9-82.5c0-17.5 14.9-32 33.4-32 18.5 0 33.4 14.5 33.4 32 0 17.5-15.2 32.7-33.4 32.7-18.2 0-33.4-14.5-33.4-32.7z"/>
						<path class="s1" d="m566.6 106.4c14.5 0 17.5 10.8 17.5 27.9v5.6c0 17.1-3 27.9-17.5 27.9h-8.9v62.4c10 0.7 17.8 7.4 17.8 19.7 0 17.8-8.5 47.9-48.3 47.9-39.8 0-48.3-19-48.3-58v-72.1h-5.2c-14.5 0-17.5-10.8-17.5-27.9v-5.6c0-17.1 3-27.9 17.5-27.9h5.2v-17.8c0-21.9 13.8-23.4 22.7-33.8 8.9-10.4 9.7-24.5 29.3-24.5 19.6 0 26.8 17.1 26.8 38.3v37.9z"/>
						<path class="s1" d="m675.8 131.3c12.3-15.2 30.1-24.9 50.5-24.9 20.4 0 61.7 19.3 61.7 69.1v84c0 25.6-15.2 38.3-34.5 38.3h-9.7c-19.3 0-34.5-12.6-34.5-38.3v-66.1c0-11.5-4.5-19.7-13.8-19.7-9.3 0-19.7 9.3-19.7 30.8v55c0 25.6-15.2 38.3-34.5 38.3h-9.7c-19.3 0-34.5-12.6-34.5-38.3v-191c0-25.6 15.2-38.3 34.5-38.3h9.7c19.3 0 34.5 12.6 34.5 38.3z"/>
						<path class="s1" d="m802.9 202.3c0-56.5 43.1-95.9 95.8-95.9 52.7 0 95.8 39.4 95.8 95.9 0 56.5-43.1 95.5-95.8 95.5-52.7 0-95.8-39.4-95.8-95.5zm114 0c0-19-6.7-30.5-18.2-30.5-11.5 0-18.2 11.5-18.2 30.5 0 19 6.7 30.8 18.2 30.8 11.5 0 18.2-11.5 18.2-30.8z"/>
					</g>
					<g>
						<path class="s2" d="m301.4 30.3c30.1 0 42.7 13.4 42.7 49.8v167.9c0 36.4-12.6 49.8-42.7 49.8h-7.8c-30.1 0-42.7-13.4-42.7-49.8v-102.9l-37.9 130.8c-5.2 17.5-14.9 21.9-29.4 21.9h-5.9c-15.2 0-27.1-5.6-32.7-23l-41.6-129.3v102.5c0 13-0.7 24.5-4.8 32.7-5.6 11.2-16.7 17.1-28.6 17.1h-5.9c-11.9 0-23-5.9-28.6-17.1-4.1-8.2-4.8-19.7-4.8-32.7v-167.9c0-36.4 12.6-49.8 43.1-49.8h52.8c19.7 0 31.2 4.5 38.3 24.5l26 75.4 21.9-75.8c5.6-19 17.8-24.1 39.4-24.1h49.4z"/>
						<path class="s2" d="m366.4 144.7c0-25.6 15.2-38.3 34.5-38.3h9.7c19.3 0 34.5 12.6 34.5 38.3v114.8c0 25.6-15.2 38.3-34.5 38.3h-9.7c-19.3 0-34.5-12.6-34.5-38.3zm5.9-82.5c0-17.5 14.9-32 33.4-32 18.5 0 33.4 14.5 33.4 32 0 17.5-15.2 32.7-33.4 32.7-18.2 0-33.4-14.5-33.4-32.7z"/>
						<path class="s2" d="m566.6 106.4c14.5 0 17.5 10.8 17.5 27.9v5.6c0 17.1-3 27.9-17.5 27.9h-8.9v62.4c10 0.7 17.8 7.4 17.8 19.7 0 17.8-8.5 47.9-48.3 47.9-39.8 0-48.3-19-48.3-58v-72.1h-5.2c-14.5 0-17.5-10.8-17.5-27.9v-5.6c0-17.1 3-27.9 17.5-27.9h5.2v-17.8c0-21.9 13.8-23.4 22.7-33.8 8.9-10.4 9.7-24.5 29.3-24.5 19.6 0 26.8 17.1 26.8 38.3v37.9z"/>
						<path class="s2" d="m675.8 131.3c12.3-15.2 30.1-24.9 50.5-24.9 20.4 0 61.7 19.3 61.7 69.1v84c0 25.6-15.2 38.3-34.5 38.3h-9.7c-19.3 0-34.5-12.6-34.5-38.3v-66.1c0-11.5-4.5-19.7-13.8-19.7-9.3 0-19.7 9.3-19.7 30.8v55c0 25.6-15.2 38.3-34.5 38.3h-9.7c-19.3 0-34.5-12.6-34.5-38.3v-191c0-25.6 15.2-38.3 34.5-38.3h9.7c19.3 0 34.5 12.6 34.5 38.3z"/>
						<path class="s2" d="m802.9 202.3c0-56.5 43.1-95.9 95.8-95.9 52.7 0 95.8 39.4 95.8 95.9 0 56.5-43.1 95.5-95.8 95.5-52.7 0-95.8-39.4-95.8-95.5zm114 0c0-19-6.7-30.5-18.2-30.5-11.5 0-18.2 11.5-18.2 30.5 0 19 6.7 30.8 18.2 30.8 11.5 0 18.2-11.5 18.2-30.8z"/>
					</g>
				</g>
				<path fill-rule="evenodd" class="s0" d="m1114.7 106.4l179.4-18.8 124.4 82.7 110.1 15.3 152.9-25.4 58.1-33.8 22.7 105.6-226.1 34.8-263.2-41.8-158.3-6.3-19.1-97.2 19.1-15.1z"/>
				<g>
					<g>
						<path class="s0" d="m1167.5 297.7c-36 0-69.5-11.2-95.5-38.6-23.8-25.3-33.8-56.8-33.8-93.6v-3c0-36 9.7-68 33.8-93.6 25.6-27.1 59.4-38.6 95.5-38.6h7.8c68.4 0 98.1 40.9 98.1 72.8 0 31.9-13.8 37.5-34.6 37.5-20.8 0-28.6-8.5-36-21.9-8.2-14.5-18.9-19.7-34.6-19.7-15.7 0-24.2 4.1-31.6 14.1-7.4 10-9.7 26.4-9.7 43.8v14.1c0 18.2 3 34.2 9.7 43.8 7.8 11.1 18.6 14.1 31.2 14.1 12.6 0 26.8-4.5 34.6-19.7 6.7-13 14.9-21.9 36-21.9 21.1 0 34.6 14.5 34.6 37.5 0 32.7-29.3 72.8-97.7 72.8h-7.8z"/>
						<path class="s0" d="m1370.7 131.3c12.3-15.2 30.1-24.9 50.5-24.9 20.4 0 61.7 19.3 61.7 69.1v84c0 25.6-15.2 38.3-34.6 38.3h-9.7c-19.3 0-34.6-12.6-34.6-38.3v-66.1c0-11.5-4.5-19.7-13.8-19.7-9.3 0-19.7 9.3-19.7 30.8v55c0 25.6-15.2 38.3-34.6 38.3h-9.7c-19.3 0-34.6-12.6-34.6-38.3v-191c0-25.6 15.2-38.3 34.6-38.3h9.7c19.3 0 34.6 12.6 34.6 38.3v62.8z"/>
						<path class="s0" d="m1683.1 233.1c17.1 0 29.3 5.9 29.3 29.7v5.2c0 19.3-5.9 29.7-33.4 29.7h-22.7c-21.2 0-40.1-4.8-48.3-21.9-9.3 9.7-29.3 21.9-57.2 21.9-27.9 0-53.1-10.8-53.1-46.1 0-35.3 39.8-53.1 71-61.3 20.4-5.6 37.2-10 37.2-21.5 0-11.5-4.8-13.4-17.1-13.4-26.8 0-28.2 30.1-60.2 30.1-32 0-27.1-10-27.1-25.3 0-22.7 26.4-53.9 93.2-53.9 66.8 0 88.4 20.8 88.4 73.9v52.8zm-73.5-29c-17.5 14.9-39.8 13.4-39.8 28.6 0 15.2 3.7 10.8 10.4 10.8 11.2 0 29.3-15.2 29.3-39.4z"/>
						<path class="s0" d="m1778.6 30.3c20.4 0 27.9 8.9 23.8 30.1l-31.2 155.7c-0.7 3-10.8 3-11.5 0l-31.2-155.7c-4.1-21.2 4.5-30.1 24.9-30.1h25.3zm-45.3 231.4c0-18.6 11.2-29.7 29-29.7h6.3c17.8 0 28.6 11.1 28.6 29.7v6.7c0 18.2-10.8 29.3-28.6 29.3h-6.3c-17.8 0-29-11.2-29-29.3z"/>
					</g>
					<g>
						<path class="s3" d="m1167.5 297.7c-36 0-69.5-11.2-95.5-38.6-23.8-25.3-33.8-56.8-33.8-93.6v-3c0-36 9.7-68 33.8-93.6 25.6-27.1 59.4-38.6 95.5-38.6h7.8c68.4 0 98.1 40.9 98.1 72.8 0 31.9-13.8 37.5-34.6 37.5-20.8 0-28.6-8.5-36-21.9-8.2-14.5-18.9-19.7-34.6-19.7-15.7 0-24.2 4.1-31.6 14.1-7.4 10-9.7 26.4-9.7 43.8v14.1c0 18.2 3 34.2 9.7 43.8 7.8 11.1 18.6 14.1 31.2 14.1 12.6 0 26.8-4.5 34.6-19.7 6.7-13 14.9-21.9 36-21.9 21.1 0 34.6 14.5 34.6 37.5 0 32.7-29.3 72.8-97.7 72.8h-7.8z"/>
						<path class="s3" d="m1370.7 131.3c12.3-15.2 30.1-24.9 50.5-24.9 20.4 0 61.7 19.3 61.7 69.1v84c0 25.6-15.2 38.3-34.6 38.3h-9.7c-19.3 0-34.6-12.6-34.6-38.3v-66.1c0-11.5-4.5-19.7-13.8-19.7-9.3 0-19.7 9.3-19.7 30.8v55c0 25.6-15.2 38.3-34.6 38.3h-9.7c-19.3 0-34.6-12.6-34.6-38.3v-191c0-25.6 15.2-38.3 34.6-38.3h9.7c19.3 0 34.6 12.6 34.6 38.3v62.8z"/>
						<path class="s3" d="m1683.1 233.1c17.1 0 29.3 5.9 29.3 29.7v5.2c0 19.3-5.9 29.7-33.4 29.7h-22.7c-21.2 0-40.1-4.8-48.3-21.9-9.3 9.7-29.3 21.9-57.2 21.9-27.9 0-53.1-10.8-53.1-46.1 0-35.3 39.8-53.1 71-61.3 20.4-5.6 37.2-10 37.2-21.5 0-11.5-4.8-13.4-17.1-13.4-26.8 0-28.2 30.1-60.2 30.1-32 0-27.1-10-27.1-25.3 0-22.7 26.4-53.9 93.2-53.9 66.8 0 88.4 20.8 88.4 73.9v52.8zm-73.5-29c-17.5 14.9-39.8 13.4-39.8 28.6 0 15.2 3.7 10.8 10.4 10.8 11.2 0 29.3-15.2 29.3-39.4z"/>
						<path class="s3" d="m1778.6 30.3c20.4 0 27.9 8.9 23.8 30.1l-31.2 155.7c-0.7 3-10.8 3-11.5 0l-31.2-155.7c-4.1-21.2 4.5-30.1 24.9-30.1h25.3zm-45.3 231.4c0-18.6 11.2-29.7 29-29.7h6.3c17.8 0 28.6 11.1 28.6 29.7v6.7c0 18.2-10.8 29.3-28.6 29.3h-6.3c-17.8 0-29-11.2-29-29.3z"/>
					</g>
					<g>
						<path class="s2" d="m1167.5 297.7c-36 0-69.5-11.2-95.5-38.6-23.8-25.3-33.8-56.8-33.8-93.6v-3c0-36 9.7-68 33.8-93.6 25.6-27.1 59.4-38.6 95.5-38.6h7.8c68.4 0 98.1 40.9 98.1 72.8 0 31.9-13.8 37.5-34.6 37.5-20.8 0-28.6-8.5-36-21.9-8.2-14.5-18.9-19.7-34.6-19.7-15.7 0-24.2 4.1-31.6 14.1-7.4 10-9.7 26.4-9.7 43.8v14.1c0 18.2 3 34.2 9.7 43.8 7.8 11.1 18.6 14.1 31.2 14.1 12.6 0 26.8-4.5 34.6-19.7 6.7-13 14.9-21.9 36-21.9 21.1 0 34.6 14.5 34.6 37.5 0 32.7-29.3 72.8-97.7 72.8h-7.8z"/>
						<path class="s2" d="m1370.7 131.3c12.3-15.2 30.1-24.9 50.5-24.9 20.4 0 61.7 19.3 61.7 69.1v84c0 25.6-15.2 38.3-34.6 38.3h-9.7c-19.3 0-34.6-12.6-34.6-38.3v-66.1c0-11.5-4.5-19.7-13.8-19.7-9.3 0-19.7 9.3-19.7 30.8v55c0 25.6-15.2 38.3-34.6 38.3h-9.7c-19.3 0-34.6-12.6-34.6-38.3v-191c0-25.6 15.2-38.3 34.6-38.3h9.7c19.3 0 34.6 12.6 34.6 38.3v62.8z"/>
						<path class="s2" d="m1683.1 233.1c17.1 0 29.3 5.9 29.3 29.7v5.2c0 19.3-5.9 29.7-33.4 29.7h-22.7c-21.2 0-40.1-4.8-48.3-21.9-9.3 9.7-29.3 21.9-57.2 21.9-27.9 0-53.1-10.8-53.1-46.1 0-35.3 39.8-53.1 71-61.3 20.4-5.6 37.2-10 37.2-21.5 0-11.5-4.8-13.4-17.1-13.4-26.8 0-28.2 30.1-60.2 30.1-32 0-27.1-10-27.1-25.3 0-22.7 26.4-53.9 93.2-53.9 66.8 0 88.4 20.8 88.4 73.9v52.8zm-73.5-29c-17.5 14.9-39.8 13.4-39.8 28.6 0 15.2 3.7 10.8 10.4 10.8 11.2 0 29.3-15.2 29.3-39.4z"/>
						<path class="s2" d="m1778.6 30.3c20.4 0 27.9 8.9 23.8 30.1l-31.2 155.7c-0.7 3-10.8 3-11.5 0l-31.2-155.7c-4.1-21.2 4.5-30.1 24.9-30.1h25.3zm-45.3 231.4c0-18.6 11.2-29.7 29-29.7h6.3c17.8 0 28.6 11.1 28.6 29.7v6.7c0 18.2-10.8 29.3-28.6 29.3h-6.3c-17.8 0-29-11.2-29-29.3z"/>
					</g>
				</g>
			</g>
		</g>
	</g>
</svg>